%TF.GenerationSoftware,KiCad,Pcbnew,(6.0.8)*%
%TF.CreationDate,2023-05-12T01:14:41+02:00*%
%TF.ProjectId,SMDBattHolder,534d4442-6174-4744-986f-6c6465722e6b,rev?*%
%TF.SameCoordinates,Original*%
%TF.FileFunction,Copper,L1,Top*%
%TF.FilePolarity,Positive*%
%FSLAX46Y46*%
G04 Gerber Fmt 4.6, Leading zero omitted, Abs format (unit mm)*
G04 Created by KiCad (PCBNEW (6.0.8)) date 2023-05-12 01:14:41*
%MOMM*%
%LPD*%
G01*
G04 APERTURE LIST*
G04 Aperture macros list*
%AMRoundRect*
0 Rectangle with rounded corners*
0 $1 Rounding radius*
0 $2 $3 $4 $5 $6 $7 $8 $9 X,Y pos of 4 corners*
0 Add a 4 corners polygon primitive as box body*
4,1,4,$2,$3,$4,$5,$6,$7,$8,$9,$2,$3,0*
0 Add four circle primitives for the rounded corners*
1,1,$1+$1,$2,$3*
1,1,$1+$1,$4,$5*
1,1,$1+$1,$6,$7*
1,1,$1+$1,$8,$9*
0 Add four rect primitives between the rounded corners*
20,1,$1+$1,$2,$3,$4,$5,0*
20,1,$1+$1,$4,$5,$6,$7,0*
20,1,$1+$1,$6,$7,$8,$9,0*
20,1,$1+$1,$8,$9,$2,$3,0*%
G04 Aperture macros list end*
%TA.AperFunction,ConnectorPad*%
%ADD10C,6.400000*%
%TD*%
%TA.AperFunction,ComponentPad*%
%ADD11C,3.600000*%
%TD*%
%TA.AperFunction,ComponentPad*%
%ADD12R,1.500000X1.500000*%
%TD*%
%TA.AperFunction,ComponentPad*%
%ADD13C,1.500000*%
%TD*%
%TA.AperFunction,SMDPad,CuDef*%
%ADD14RoundRect,1.000000X-2.000000X-3.000000X2.000000X-3.000000X2.000000X3.000000X-2.000000X3.000000X0*%
%TD*%
%TA.AperFunction,SMDPad,CuDef*%
%ADD15RoundRect,1.500000X1.500000X-14.500000X1.500000X14.500000X-1.500000X14.500000X-1.500000X-14.500000X0*%
%TD*%
%TA.AperFunction,ComponentPad*%
%ADD16R,1.050000X1.500000*%
%TD*%
%TA.AperFunction,ComponentPad*%
%ADD17O,1.050000X1.500000*%
%TD*%
%TA.AperFunction,Conductor*%
%ADD18C,6.000000*%
%TD*%
%TA.AperFunction,Conductor*%
%ADD19C,0.500000*%
%TD*%
G04 APERTURE END LIST*
D10*
X290000000Y-115000000D03*
D11*
X290000000Y-115000000D03*
D12*
X305075000Y-137545000D03*
D13*
X305075000Y-135005000D03*
X305075000Y-132465000D03*
D14*
X294000000Y-155000000D03*
X376000000Y-155000000D03*
X294000000Y-115000000D03*
X376000000Y-115000000D03*
D11*
X380000000Y-155000000D03*
D10*
X380000000Y-155000000D03*
X290000000Y-155000000D03*
D11*
X290000000Y-155000000D03*
D10*
X380000000Y-115000000D03*
D11*
X380000000Y-115000000D03*
D12*
X364925000Y-132455000D03*
D13*
X364925000Y-134995000D03*
X364925000Y-137535000D03*
D15*
X294000000Y-135000000D03*
X376000000Y-135000000D03*
D16*
X333730000Y-127500000D03*
D17*
X335000000Y-127500000D03*
X336270000Y-127500000D03*
D16*
X336250000Y-142500000D03*
D17*
X334980000Y-142500000D03*
X333710000Y-142500000D03*
D18*
X294000000Y-115000000D02*
X294000000Y-135000000D01*
X294000000Y-115000000D02*
X293000000Y-115000000D01*
X294000000Y-155000000D02*
X294000000Y-135000000D01*
X294000000Y-155000000D02*
X293000000Y-155000000D01*
X376000000Y-115000000D02*
X377000000Y-115000000D01*
X376000000Y-135000000D02*
X376000000Y-115000000D01*
X376000000Y-155000000D02*
X376000000Y-135000000D01*
X376000000Y-155000000D02*
X377000000Y-155000000D01*
D19*
X335000000Y-135500000D02*
X335000000Y-142480000D01*
X334995000Y-135005000D02*
X335000000Y-135000000D01*
X335000000Y-127500000D02*
X335000000Y-134500000D01*
X305075000Y-135005000D02*
X334505000Y-135005000D01*
X335000000Y-134500000D02*
X335000000Y-134510000D01*
X335005000Y-134995000D02*
X335495000Y-134995000D01*
X335495000Y-135005000D02*
X335495000Y-134995000D01*
X335000000Y-134500000D02*
X335000000Y-135000000D01*
X335000000Y-135500000D02*
X335495000Y-135005000D01*
X335000000Y-135000000D02*
X335000000Y-135500000D01*
X334505000Y-135005000D02*
X334995000Y-135005000D01*
X334505000Y-135005000D02*
X335000000Y-135500000D01*
X335000000Y-135000000D02*
X335005000Y-134995000D01*
X335495000Y-134995000D02*
X335000000Y-134500000D01*
X335000000Y-134510000D02*
X334505000Y-135005000D01*
X335000000Y-142480000D02*
X334980000Y-142500000D01*
X335495000Y-134995000D02*
X364925000Y-134995000D01*
M02*
