%TF.GenerationSoftware,KiCad,Pcbnew,(6.0.8)*%
%TF.CreationDate,2023-05-12T01:14:41+02:00*%
%TF.ProjectId,SMDBattHolder,534d4442-6174-4744-986f-6c6465722e6b,rev?*%
%TF.SameCoordinates,Original*%
%TF.FileFunction,Copper,L2,Bot*%
%TF.FilePolarity,Positive*%
%FSLAX46Y46*%
G04 Gerber Fmt 4.6, Leading zero omitted, Abs format (unit mm)*
G04 Created by KiCad (PCBNEW (6.0.8)) date 2023-05-12 01:14:41*
%MOMM*%
%LPD*%
G01*
G04 APERTURE LIST*
%TA.AperFunction,ComponentPad*%
%ADD10C,3.600000*%
%TD*%
%TA.AperFunction,ComponentPad*%
%ADD11R,1.500000X1.500000*%
%TD*%
%TA.AperFunction,ComponentPad*%
%ADD12C,1.500000*%
%TD*%
%TA.AperFunction,ComponentPad*%
%ADD13R,1.050000X1.500000*%
%TD*%
%TA.AperFunction,ComponentPad*%
%ADD14O,1.050000X1.500000*%
%TD*%
%TA.AperFunction,Conductor*%
%ADD15C,0.500000*%
%TD*%
G04 APERTURE END LIST*
D10*
X290000000Y-115000000D03*
D11*
X305075000Y-137545000D03*
D12*
X305075000Y-135005000D03*
X305075000Y-132465000D03*
D10*
X380000000Y-155000000D03*
X290000000Y-155000000D03*
X380000000Y-115000000D03*
D11*
X364925000Y-132455000D03*
D12*
X364925000Y-134995000D03*
X364925000Y-137535000D03*
D13*
X333730000Y-127500000D03*
D14*
X335000000Y-127500000D03*
X336270000Y-127500000D03*
D13*
X336250000Y-142500000D03*
D14*
X334980000Y-142500000D03*
X333710000Y-142500000D03*
D15*
X303000000Y-135470000D02*
X305075000Y-137545000D01*
X334000000Y-126000000D02*
X358470000Y-126000000D01*
X333730000Y-126270000D02*
X334000000Y-126000000D01*
X306500000Y-127500000D02*
X303000000Y-131000000D01*
X333730000Y-127500000D02*
X333730000Y-126270000D01*
X364925000Y-132455000D02*
X367000000Y-134530000D01*
X367000000Y-141000000D02*
X365500000Y-142500000D01*
X303000000Y-131000000D02*
X303000000Y-135470000D01*
X367000000Y-134530000D02*
X367000000Y-141000000D01*
X358470000Y-126000000D02*
X364925000Y-132455000D01*
X365500000Y-142500000D02*
X336250000Y-142500000D01*
X333730000Y-127500000D02*
X306500000Y-127500000D01*
X364915000Y-135005000D02*
X364925000Y-134995000D01*
X335000000Y-142480000D02*
X334980000Y-142500000D01*
X336270000Y-127500000D02*
X336270000Y-133730000D01*
X315110000Y-142500000D02*
X305075000Y-132465000D01*
X333710000Y-136290000D02*
X333710000Y-142500000D01*
X354890000Y-127500000D02*
X364925000Y-137535000D01*
X333710000Y-142500000D02*
X315110000Y-142500000D01*
X336270000Y-127500000D02*
X336270000Y-127166142D01*
X336270000Y-127500000D02*
X354890000Y-127500000D01*
X336270000Y-133730000D02*
X333710000Y-136290000D01*
M02*
