%TF.GenerationSoftware,KiCad,Pcbnew,(6.0.8)*%
%TF.CreationDate,2023-05-12T01:14:41+02:00*%
%TF.ProjectId,SMDBattHolder,534d4442-6174-4744-986f-6c6465722e6b,rev?*%
%TF.SameCoordinates,Original*%
%TF.FileFunction,Legend,Top*%
%TF.FilePolarity,Positive*%
%FSLAX46Y46*%
G04 Gerber Fmt 4.6, Leading zero omitted, Abs format (unit mm)*
G04 Created by KiCad (PCBNEW (6.0.8)) date 2023-05-12 01:14:41*
%MOMM*%
%LPD*%
G01*
G04 APERTURE LIST*
G04 Aperture macros list*
%AMRoundRect*
0 Rectangle with rounded corners*
0 $1 Rounding radius*
0 $2 $3 $4 $5 $6 $7 $8 $9 X,Y pos of 4 corners*
0 Add a 4 corners polygon primitive as box body*
4,1,4,$2,$3,$4,$5,$6,$7,$8,$9,$2,$3,0*
0 Add four circle primitives for the rounded corners*
1,1,$1+$1,$2,$3*
1,1,$1+$1,$4,$5*
1,1,$1+$1,$6,$7*
1,1,$1+$1,$8,$9*
0 Add four rect primitives between the rounded corners*
20,1,$1+$1,$2,$3,$4,$5,0*
20,1,$1+$1,$4,$5,$6,$7,0*
20,1,$1+$1,$6,$7,$8,$9,0*
20,1,$1+$1,$8,$9,$2,$3,0*%
G04 Aperture macros list end*
%ADD10C,0.150000*%
%ADD11C,0.254000*%
%ADD12C,0.200000*%
%ADD13C,0.120000*%
%ADD14C,6.400000*%
%ADD15C,3.600000*%
%ADD16C,2.100000*%
%ADD17R,1.500000X1.500000*%
%ADD18C,1.500000*%
%ADD19RoundRect,1.000000X-2.000000X-3.000000X2.000000X-3.000000X2.000000X3.000000X-2.000000X3.000000X0*%
%ADD20C,8.400000*%
%ADD21RoundRect,1.500000X1.500000X-14.500000X1.500000X14.500000X-1.500000X14.500000X-1.500000X-14.500000X0*%
%ADD22R,1.050000X1.500000*%
%ADD23O,1.050000X1.500000*%
G04 APERTURE END LIST*
D10*
X377238095Y-107142857D02*
X378761904Y-107142857D01*
X378000000Y-107904761D02*
X378000000Y-106380952D01*
X363666666Y-139452380D02*
X364000000Y-140452380D01*
X364333333Y-139452380D01*
X364666666Y-140452380D02*
X364666666Y-139452380D01*
X364904761Y-139452380D01*
X365047619Y-139500000D01*
X365142857Y-139595238D01*
X365190476Y-139690476D01*
X365238095Y-139880952D01*
X365238095Y-140023809D01*
X365190476Y-140214285D01*
X365142857Y-140309523D01*
X365047619Y-140404761D01*
X364904761Y-140452380D01*
X364666666Y-140452380D01*
X365666666Y-140452380D02*
X365666666Y-139452380D01*
X365904761Y-139452380D01*
X366047619Y-139500000D01*
X366142857Y-139595238D01*
X366190476Y-139690476D01*
X366238095Y-139880952D01*
X366238095Y-140023809D01*
X366190476Y-140214285D01*
X366142857Y-140309523D01*
X366047619Y-140404761D01*
X365904761Y-140452380D01*
X365666666Y-140452380D01*
X359238095Y-155142857D02*
X360761904Y-155142857D01*
X360000000Y-155904761D02*
X360000000Y-154380952D01*
X303666666Y-129452380D02*
X304000000Y-130452380D01*
X304333333Y-129452380D01*
X304666666Y-130452380D02*
X304666666Y-129452380D01*
X304904761Y-129452380D01*
X305047619Y-129500000D01*
X305142857Y-129595238D01*
X305190476Y-129690476D01*
X305238095Y-129880952D01*
X305238095Y-130023809D01*
X305190476Y-130214285D01*
X305142857Y-130309523D01*
X305047619Y-130404761D01*
X304904761Y-130452380D01*
X304666666Y-130452380D01*
X305666666Y-130452380D02*
X305666666Y-129452380D01*
X305904761Y-129452380D01*
X306047619Y-129500000D01*
X306142857Y-129595238D01*
X306190476Y-129690476D01*
X306238095Y-129880952D01*
X306238095Y-130023809D01*
X306190476Y-130214285D01*
X306142857Y-130309523D01*
X306047619Y-130404761D01*
X305904761Y-130452380D01*
X305666666Y-130452380D01*
X304238095Y-139500000D02*
X304142857Y-139452380D01*
X304000000Y-139452380D01*
X303857142Y-139500000D01*
X303761904Y-139595238D01*
X303714285Y-139690476D01*
X303666666Y-139880952D01*
X303666666Y-140023809D01*
X303714285Y-140214285D01*
X303761904Y-140309523D01*
X303857142Y-140404761D01*
X304000000Y-140452380D01*
X304095238Y-140452380D01*
X304238095Y-140404761D01*
X304285714Y-140357142D01*
X304285714Y-140023809D01*
X304095238Y-140023809D01*
X304714285Y-140452380D02*
X304714285Y-139452380D01*
X305285714Y-140452380D01*
X305285714Y-139452380D01*
X305761904Y-140452380D02*
X305761904Y-139452380D01*
X306000000Y-139452380D01*
X306142857Y-139500000D01*
X306238095Y-139595238D01*
X306285714Y-139690476D01*
X306333333Y-139880952D01*
X306333333Y-140023809D01*
X306285714Y-140214285D01*
X306238095Y-140309523D01*
X306142857Y-140404761D01*
X306000000Y-140452380D01*
X305761904Y-140452380D01*
X377238095Y-163142857D02*
X378761904Y-163142857D01*
X378000000Y-163904761D02*
X378000000Y-162380952D01*
X309238095Y-155142857D02*
X310761904Y-155142857D01*
X309238095Y-115142857D02*
X310761904Y-115142857D01*
X310333333Y-130123571D02*
X310476190Y-130171190D01*
X310523809Y-130218809D01*
X310571428Y-130314047D01*
X310571428Y-130456904D01*
X310523809Y-130552142D01*
X310476190Y-130599761D01*
X310380952Y-130647380D01*
X310000000Y-130647380D01*
X310000000Y-129647380D01*
X310333333Y-129647380D01*
X310428571Y-129695000D01*
X310476190Y-129742619D01*
X310523809Y-129837857D01*
X310523809Y-129933095D01*
X310476190Y-130028333D01*
X310428571Y-130075952D01*
X310333333Y-130123571D01*
X310000000Y-130123571D01*
X311428571Y-130647380D02*
X311428571Y-130123571D01*
X311380952Y-130028333D01*
X311285714Y-129980714D01*
X311095238Y-129980714D01*
X311000000Y-130028333D01*
X311428571Y-130599761D02*
X311333333Y-130647380D01*
X311095238Y-130647380D01*
X311000000Y-130599761D01*
X310952380Y-130504523D01*
X310952380Y-130409285D01*
X311000000Y-130314047D01*
X311095238Y-130266428D01*
X311333333Y-130266428D01*
X311428571Y-130218809D01*
X311761904Y-129980714D02*
X312142857Y-129980714D01*
X311904761Y-129647380D02*
X311904761Y-130504523D01*
X311952380Y-130599761D01*
X312047619Y-130647380D01*
X312142857Y-130647380D01*
X312333333Y-129980714D02*
X312714285Y-129980714D01*
X312476190Y-129647380D02*
X312476190Y-130504523D01*
X312523809Y-130599761D01*
X312619047Y-130647380D01*
X312714285Y-130647380D01*
X313428571Y-130599761D02*
X313333333Y-130647380D01*
X313142857Y-130647380D01*
X313047619Y-130599761D01*
X313000000Y-130504523D01*
X313000000Y-130123571D01*
X313047619Y-130028333D01*
X313142857Y-129980714D01*
X313333333Y-129980714D01*
X313428571Y-130028333D01*
X313476190Y-130123571D01*
X313476190Y-130218809D01*
X313000000Y-130314047D01*
X313904761Y-130647380D02*
X313904761Y-129980714D01*
X313904761Y-130171190D02*
X313952380Y-130075952D01*
X314000000Y-130028333D01*
X314095238Y-129980714D01*
X314190476Y-129980714D01*
X314428571Y-129980714D02*
X314666666Y-130647380D01*
X314904761Y-129980714D02*
X314666666Y-130647380D01*
X314571428Y-130885476D01*
X314523809Y-130933095D01*
X314428571Y-130980714D01*
X316047619Y-130647380D02*
X316047619Y-129647380D01*
X316380952Y-130361666D01*
X316714285Y-129647380D01*
X316714285Y-130647380D01*
X317333333Y-130647380D02*
X317238095Y-130599761D01*
X317190476Y-130552142D01*
X317142857Y-130456904D01*
X317142857Y-130171190D01*
X317190476Y-130075952D01*
X317238095Y-130028333D01*
X317333333Y-129980714D01*
X317476190Y-129980714D01*
X317571428Y-130028333D01*
X317619047Y-130075952D01*
X317666666Y-130171190D01*
X317666666Y-130456904D01*
X317619047Y-130552142D01*
X317571428Y-130599761D01*
X317476190Y-130647380D01*
X317333333Y-130647380D01*
X318095238Y-129980714D02*
X318095238Y-130647380D01*
X318095238Y-130075952D02*
X318142857Y-130028333D01*
X318238095Y-129980714D01*
X318380952Y-129980714D01*
X318476190Y-130028333D01*
X318523809Y-130123571D01*
X318523809Y-130647380D01*
X319000000Y-130647380D02*
X319000000Y-129980714D01*
X319000000Y-129647380D02*
X318952380Y-129695000D01*
X319000000Y-129742619D01*
X319047619Y-129695000D01*
X319000000Y-129647380D01*
X319000000Y-129742619D01*
X319333333Y-129980714D02*
X319714285Y-129980714D01*
X319476190Y-129647380D02*
X319476190Y-130504523D01*
X319523809Y-130599761D01*
X319619047Y-130647380D01*
X319714285Y-130647380D01*
X320190476Y-130647380D02*
X320095238Y-130599761D01*
X320047619Y-130552142D01*
X320000000Y-130456904D01*
X320000000Y-130171190D01*
X320047619Y-130075952D01*
X320095238Y-130028333D01*
X320190476Y-129980714D01*
X320333333Y-129980714D01*
X320428571Y-130028333D01*
X320476190Y-130075952D01*
X320523809Y-130171190D01*
X320523809Y-130456904D01*
X320476190Y-130552142D01*
X320428571Y-130599761D01*
X320333333Y-130647380D01*
X320190476Y-130647380D01*
X320952380Y-130647380D02*
X320952380Y-129980714D01*
X320952380Y-130171190D02*
X321000000Y-130075952D01*
X321047619Y-130028333D01*
X321142857Y-129980714D01*
X321238095Y-129980714D01*
X321571428Y-130647380D02*
X321571428Y-129980714D01*
X321571428Y-129647380D02*
X321523809Y-129695000D01*
X321571428Y-129742619D01*
X321619047Y-129695000D01*
X321571428Y-129647380D01*
X321571428Y-129742619D01*
X322047619Y-129980714D02*
X322047619Y-130647380D01*
X322047619Y-130075952D02*
X322095238Y-130028333D01*
X322190476Y-129980714D01*
X322333333Y-129980714D01*
X322428571Y-130028333D01*
X322476190Y-130123571D01*
X322476190Y-130647380D01*
X323380952Y-129980714D02*
X323380952Y-130790238D01*
X323333333Y-130885476D01*
X323285714Y-130933095D01*
X323190476Y-130980714D01*
X323047619Y-130980714D01*
X322952380Y-130933095D01*
X323380952Y-130599761D02*
X323285714Y-130647380D01*
X323095238Y-130647380D01*
X323000000Y-130599761D01*
X322952380Y-130552142D01*
X322904761Y-130456904D01*
X322904761Y-130171190D01*
X322952380Y-130075952D01*
X323000000Y-130028333D01*
X323095238Y-129980714D01*
X323285714Y-129980714D01*
X323380952Y-130028333D01*
X324571428Y-130599761D02*
X324714285Y-130647380D01*
X324952380Y-130647380D01*
X325047619Y-130599761D01*
X325095238Y-130552142D01*
X325142857Y-130456904D01*
X325142857Y-130361666D01*
X325095238Y-130266428D01*
X325047619Y-130218809D01*
X324952380Y-130171190D01*
X324761904Y-130123571D01*
X324666666Y-130075952D01*
X324619047Y-130028333D01*
X324571428Y-129933095D01*
X324571428Y-129837857D01*
X324619047Y-129742619D01*
X324666666Y-129695000D01*
X324761904Y-129647380D01*
X325000000Y-129647380D01*
X325142857Y-129695000D01*
X325476190Y-129980714D02*
X325714285Y-130647380D01*
X325952380Y-129980714D02*
X325714285Y-130647380D01*
X325619047Y-130885476D01*
X325571428Y-130933095D01*
X325476190Y-130980714D01*
X326285714Y-130599761D02*
X326380952Y-130647380D01*
X326571428Y-130647380D01*
X326666666Y-130599761D01*
X326714285Y-130504523D01*
X326714285Y-130456904D01*
X326666666Y-130361666D01*
X326571428Y-130314047D01*
X326428571Y-130314047D01*
X326333333Y-130266428D01*
X326285714Y-130171190D01*
X326285714Y-130123571D01*
X326333333Y-130028333D01*
X326428571Y-129980714D01*
X326571428Y-129980714D01*
X326666666Y-130028333D01*
X327000000Y-129980714D02*
X327380952Y-129980714D01*
X327142857Y-129647380D02*
X327142857Y-130504523D01*
X327190476Y-130599761D01*
X327285714Y-130647380D01*
X327380952Y-130647380D01*
X328095238Y-130599761D02*
X328000000Y-130647380D01*
X327809523Y-130647380D01*
X327714285Y-130599761D01*
X327666666Y-130504523D01*
X327666666Y-130123571D01*
X327714285Y-130028333D01*
X327809523Y-129980714D01*
X328000000Y-129980714D01*
X328095238Y-130028333D01*
X328142857Y-130123571D01*
X328142857Y-130218809D01*
X327666666Y-130314047D01*
X328571428Y-130647380D02*
X328571428Y-129980714D01*
X328571428Y-130075952D02*
X328619047Y-130028333D01*
X328714285Y-129980714D01*
X328857142Y-129980714D01*
X328952380Y-130028333D01*
X329000000Y-130123571D01*
X329000000Y-130647380D01*
X329000000Y-130123571D02*
X329047619Y-130028333D01*
X329142857Y-129980714D01*
X329285714Y-129980714D01*
X329380952Y-130028333D01*
X329428571Y-130123571D01*
X329428571Y-130647380D01*
X330523809Y-129647380D02*
X330857142Y-130647380D01*
X331190476Y-129647380D01*
X332047619Y-130647380D02*
X331476190Y-130647380D01*
X331761904Y-130647380D02*
X331761904Y-129647380D01*
X331666666Y-129790238D01*
X331571428Y-129885476D01*
X331476190Y-129933095D01*
X309976190Y-131733571D02*
X309642857Y-131733571D01*
X309642857Y-132257380D02*
X309642857Y-131257380D01*
X310119047Y-131257380D01*
X310500000Y-132257380D02*
X310500000Y-131257380D01*
X310500000Y-131733571D02*
X311071428Y-131733571D01*
X311071428Y-132257380D02*
X311071428Y-131257380D01*
X311547619Y-131733571D02*
X311880952Y-131733571D01*
X312023809Y-132257380D02*
X311547619Y-132257380D01*
X311547619Y-131257380D01*
X312023809Y-131257380D01*
X312452380Y-132257380D02*
X312452380Y-131257380D01*
X313023809Y-132257380D01*
X313023809Y-131257380D01*
X314023809Y-131305000D02*
X313928571Y-131257380D01*
X313785714Y-131257380D01*
X313642857Y-131305000D01*
X313547619Y-131400238D01*
X313500000Y-131495476D01*
X313452380Y-131685952D01*
X313452380Y-131828809D01*
X313500000Y-132019285D01*
X313547619Y-132114523D01*
X313642857Y-132209761D01*
X313785714Y-132257380D01*
X313880952Y-132257380D01*
X314023809Y-132209761D01*
X314071428Y-132162142D01*
X314071428Y-131828809D01*
X313880952Y-131828809D01*
X315214285Y-132209761D02*
X315357142Y-132257380D01*
X315595238Y-132257380D01*
X315690476Y-132209761D01*
X315738095Y-132162142D01*
X315785714Y-132066904D01*
X315785714Y-131971666D01*
X315738095Y-131876428D01*
X315690476Y-131828809D01*
X315595238Y-131781190D01*
X315404761Y-131733571D01*
X315309523Y-131685952D01*
X315261904Y-131638333D01*
X315214285Y-131543095D01*
X315214285Y-131447857D01*
X315261904Y-131352619D01*
X315309523Y-131305000D01*
X315404761Y-131257380D01*
X315642857Y-131257380D01*
X315785714Y-131305000D01*
X316119047Y-131257380D02*
X316785714Y-131257380D01*
X316357142Y-132257380D01*
X317928571Y-132257380D02*
X317928571Y-131257380D01*
X318309523Y-131257380D01*
X318404761Y-131305000D01*
X318452380Y-131352619D01*
X318500000Y-131447857D01*
X318500000Y-131590714D01*
X318452380Y-131685952D01*
X318404761Y-131733571D01*
X318309523Y-131781190D01*
X317928571Y-131781190D01*
X318928571Y-132257380D02*
X318928571Y-131590714D01*
X318928571Y-131781190D02*
X318976190Y-131685952D01*
X319023809Y-131638333D01*
X319119047Y-131590714D01*
X319214285Y-131590714D01*
X319690476Y-132257380D02*
X319595238Y-132209761D01*
X319547619Y-132162142D01*
X319500000Y-132066904D01*
X319500000Y-131781190D01*
X319547619Y-131685952D01*
X319595238Y-131638333D01*
X319690476Y-131590714D01*
X319833333Y-131590714D01*
X319928571Y-131638333D01*
X319976190Y-131685952D01*
X320023809Y-131781190D01*
X320023809Y-132066904D01*
X319976190Y-132162142D01*
X319928571Y-132209761D01*
X319833333Y-132257380D01*
X319690476Y-132257380D01*
X320452380Y-131590714D02*
X320452380Y-132447857D01*
X320404761Y-132543095D01*
X320309523Y-132590714D01*
X320261904Y-132590714D01*
X320452380Y-131257380D02*
X320404761Y-131305000D01*
X320452380Y-131352619D01*
X320500000Y-131305000D01*
X320452380Y-131257380D01*
X320452380Y-131352619D01*
X321309523Y-132209761D02*
X321214285Y-132257380D01*
X321023809Y-132257380D01*
X320928571Y-132209761D01*
X320880952Y-132114523D01*
X320880952Y-131733571D01*
X320928571Y-131638333D01*
X321023809Y-131590714D01*
X321214285Y-131590714D01*
X321309523Y-131638333D01*
X321357142Y-131733571D01*
X321357142Y-131828809D01*
X320880952Y-131924047D01*
X322214285Y-132209761D02*
X322119047Y-132257380D01*
X321928571Y-132257380D01*
X321833333Y-132209761D01*
X321785714Y-132162142D01*
X321738095Y-132066904D01*
X321738095Y-131781190D01*
X321785714Y-131685952D01*
X321833333Y-131638333D01*
X321928571Y-131590714D01*
X322119047Y-131590714D01*
X322214285Y-131638333D01*
X322500000Y-131590714D02*
X322880952Y-131590714D01*
X322642857Y-131257380D02*
X322642857Y-132114523D01*
X322690476Y-132209761D01*
X322785714Y-132257380D01*
X322880952Y-132257380D01*
X323928571Y-131352619D02*
X323976190Y-131305000D01*
X324071428Y-131257380D01*
X324309523Y-131257380D01*
X324404761Y-131305000D01*
X324452380Y-131352619D01*
X324500000Y-131447857D01*
X324500000Y-131543095D01*
X324452380Y-131685952D01*
X323880952Y-132257380D01*
X324500000Y-132257380D01*
X325119047Y-131257380D02*
X325214285Y-131257380D01*
X325309523Y-131305000D01*
X325357142Y-131352619D01*
X325404761Y-131447857D01*
X325452380Y-131638333D01*
X325452380Y-131876428D01*
X325404761Y-132066904D01*
X325357142Y-132162142D01*
X325309523Y-132209761D01*
X325214285Y-132257380D01*
X325119047Y-132257380D01*
X325023809Y-132209761D01*
X324976190Y-132162142D01*
X324928571Y-132066904D01*
X324880952Y-131876428D01*
X324880952Y-131638333D01*
X324928571Y-131447857D01*
X324976190Y-131352619D01*
X325023809Y-131305000D01*
X325119047Y-131257380D01*
X325833333Y-131352619D02*
X325880952Y-131305000D01*
X325976190Y-131257380D01*
X326214285Y-131257380D01*
X326309523Y-131305000D01*
X326357142Y-131352619D01*
X326404761Y-131447857D01*
X326404761Y-131543095D01*
X326357142Y-131685952D01*
X325785714Y-132257380D01*
X326404761Y-132257380D01*
X326785714Y-131352619D02*
X326833333Y-131305000D01*
X326928571Y-131257380D01*
X327166666Y-131257380D01*
X327261904Y-131305000D01*
X327309523Y-131352619D01*
X327357142Y-131447857D01*
X327357142Y-131543095D01*
X327309523Y-131685952D01*
X326738095Y-132257380D01*
X327357142Y-132257380D01*
X327785714Y-131876428D02*
X328547619Y-131876428D01*
X328976190Y-131352619D02*
X329023809Y-131305000D01*
X329119047Y-131257380D01*
X329357142Y-131257380D01*
X329452380Y-131305000D01*
X329500000Y-131352619D01*
X329547619Y-131447857D01*
X329547619Y-131543095D01*
X329500000Y-131685952D01*
X328928571Y-132257380D01*
X329547619Y-132257380D01*
X330166666Y-131257380D02*
X330261904Y-131257380D01*
X330357142Y-131305000D01*
X330404761Y-131352619D01*
X330452380Y-131447857D01*
X330500000Y-131638333D01*
X330500000Y-131876428D01*
X330452380Y-132066904D01*
X330404761Y-132162142D01*
X330357142Y-132209761D01*
X330261904Y-132257380D01*
X330166666Y-132257380D01*
X330071428Y-132209761D01*
X330023809Y-132162142D01*
X329976190Y-132066904D01*
X329928571Y-131876428D01*
X329928571Y-131638333D01*
X329976190Y-131447857D01*
X330023809Y-131352619D01*
X330071428Y-131305000D01*
X330166666Y-131257380D01*
X330880952Y-131352619D02*
X330928571Y-131305000D01*
X331023809Y-131257380D01*
X331261904Y-131257380D01*
X331357142Y-131305000D01*
X331404761Y-131352619D01*
X331452380Y-131447857D01*
X331452380Y-131543095D01*
X331404761Y-131685952D01*
X330833333Y-132257380D01*
X331452380Y-132257380D01*
X331785714Y-131257380D02*
X332404761Y-131257380D01*
X332071428Y-131638333D01*
X332214285Y-131638333D01*
X332309523Y-131685952D01*
X332357142Y-131733571D01*
X332404761Y-131828809D01*
X332404761Y-132066904D01*
X332357142Y-132162142D01*
X332309523Y-132209761D01*
X332214285Y-132257380D01*
X331928571Y-132257380D01*
X331833333Y-132209761D01*
X331785714Y-132162142D01*
X292142857Y-163761904D02*
X292142857Y-162238095D01*
X364163095Y-129500000D02*
X364067857Y-129452380D01*
X363925000Y-129452380D01*
X363782142Y-129500000D01*
X363686904Y-129595238D01*
X363639285Y-129690476D01*
X363591666Y-129880952D01*
X363591666Y-130023809D01*
X363639285Y-130214285D01*
X363686904Y-130309523D01*
X363782142Y-130404761D01*
X363925000Y-130452380D01*
X364020238Y-130452380D01*
X364163095Y-130404761D01*
X364210714Y-130357142D01*
X364210714Y-130023809D01*
X364020238Y-130023809D01*
X364639285Y-130452380D02*
X364639285Y-129452380D01*
X365210714Y-130452380D01*
X365210714Y-129452380D01*
X365686904Y-130452380D02*
X365686904Y-129452380D01*
X365925000Y-129452380D01*
X366067857Y-129500000D01*
X366163095Y-129595238D01*
X366210714Y-129690476D01*
X366258333Y-129880952D01*
X366258333Y-130023809D01*
X366210714Y-130214285D01*
X366163095Y-130309523D01*
X366067857Y-130404761D01*
X365925000Y-130452380D01*
X365686904Y-130452380D01*
X292142857Y-107761904D02*
X292142857Y-106238095D01*
X359238095Y-115142857D02*
X360761904Y-115142857D01*
X360000000Y-115904761D02*
X360000000Y-114380952D01*
X341380952Y-138647380D02*
X340809523Y-138647380D01*
X341095238Y-138647380D02*
X341095238Y-137647380D01*
X341000000Y-137790238D01*
X340904761Y-137885476D01*
X340809523Y-137933095D01*
X341952380Y-138075952D02*
X341857142Y-138028333D01*
X341809523Y-137980714D01*
X341761904Y-137885476D01*
X341761904Y-137837857D01*
X341809523Y-137742619D01*
X341857142Y-137695000D01*
X341952380Y-137647380D01*
X342142857Y-137647380D01*
X342238095Y-137695000D01*
X342285714Y-137742619D01*
X342333333Y-137837857D01*
X342333333Y-137885476D01*
X342285714Y-137980714D01*
X342238095Y-138028333D01*
X342142857Y-138075952D01*
X341952380Y-138075952D01*
X341857142Y-138123571D01*
X341809523Y-138171190D01*
X341761904Y-138266428D01*
X341761904Y-138456904D01*
X341809523Y-138552142D01*
X341857142Y-138599761D01*
X341952380Y-138647380D01*
X342142857Y-138647380D01*
X342238095Y-138599761D01*
X342285714Y-138552142D01*
X342333333Y-138456904D01*
X342333333Y-138266428D01*
X342285714Y-138171190D01*
X342238095Y-138123571D01*
X342142857Y-138075952D01*
X343190476Y-137647380D02*
X343000000Y-137647380D01*
X342904761Y-137695000D01*
X342857142Y-137742619D01*
X342761904Y-137885476D01*
X342714285Y-138075952D01*
X342714285Y-138456904D01*
X342761904Y-138552142D01*
X342809523Y-138599761D01*
X342904761Y-138647380D01*
X343095238Y-138647380D01*
X343190476Y-138599761D01*
X343238095Y-138552142D01*
X343285714Y-138456904D01*
X343285714Y-138218809D01*
X343238095Y-138123571D01*
X343190476Y-138075952D01*
X343095238Y-138028333D01*
X342904761Y-138028333D01*
X342809523Y-138075952D01*
X342761904Y-138123571D01*
X342714285Y-138218809D01*
X344190476Y-137647380D02*
X343714285Y-137647380D01*
X343666666Y-138123571D01*
X343714285Y-138075952D01*
X343809523Y-138028333D01*
X344047619Y-138028333D01*
X344142857Y-138075952D01*
X344190476Y-138123571D01*
X344238095Y-138218809D01*
X344238095Y-138456904D01*
X344190476Y-138552142D01*
X344142857Y-138599761D01*
X344047619Y-138647380D01*
X343809523Y-138647380D01*
X343714285Y-138599761D01*
X343666666Y-138552142D01*
X344857142Y-137647380D02*
X344952380Y-137647380D01*
X345047619Y-137695000D01*
X345095238Y-137742619D01*
X345142857Y-137837857D01*
X345190476Y-138028333D01*
X345190476Y-138266428D01*
X345142857Y-138456904D01*
X345095238Y-138552142D01*
X345047619Y-138599761D01*
X344952380Y-138647380D01*
X344857142Y-138647380D01*
X344761904Y-138599761D01*
X344714285Y-138552142D01*
X344666666Y-138456904D01*
X344619047Y-138266428D01*
X344619047Y-138028333D01*
X344666666Y-137837857D01*
X344714285Y-137742619D01*
X344761904Y-137695000D01*
X344857142Y-137647380D01*
X346952380Y-138552142D02*
X346904761Y-138599761D01*
X346761904Y-138647380D01*
X346666666Y-138647380D01*
X346523809Y-138599761D01*
X346428571Y-138504523D01*
X346380952Y-138409285D01*
X346333333Y-138218809D01*
X346333333Y-138075952D01*
X346380952Y-137885476D01*
X346428571Y-137790238D01*
X346523809Y-137695000D01*
X346666666Y-137647380D01*
X346761904Y-137647380D01*
X346904761Y-137695000D01*
X346952380Y-137742619D01*
X347761904Y-138599761D02*
X347666666Y-138647380D01*
X347476190Y-138647380D01*
X347380952Y-138599761D01*
X347333333Y-138504523D01*
X347333333Y-138123571D01*
X347380952Y-138028333D01*
X347476190Y-137980714D01*
X347666666Y-137980714D01*
X347761904Y-138028333D01*
X347809523Y-138123571D01*
X347809523Y-138218809D01*
X347333333Y-138314047D01*
X348380952Y-138647380D02*
X348285714Y-138599761D01*
X348238095Y-138504523D01*
X348238095Y-137647380D01*
X348904761Y-138647380D02*
X348809523Y-138599761D01*
X348761904Y-138504523D01*
X348761904Y-137647380D01*
X350000000Y-138599761D02*
X350142857Y-138647380D01*
X350380952Y-138647380D01*
X350476190Y-138599761D01*
X350523809Y-138552142D01*
X350571428Y-138456904D01*
X350571428Y-138361666D01*
X350523809Y-138266428D01*
X350476190Y-138218809D01*
X350380952Y-138171190D01*
X350190476Y-138123571D01*
X350095238Y-138075952D01*
X350047619Y-138028333D01*
X350000000Y-137933095D01*
X350000000Y-137837857D01*
X350047619Y-137742619D01*
X350095238Y-137695000D01*
X350190476Y-137647380D01*
X350428571Y-137647380D01*
X350571428Y-137695000D01*
X351142857Y-138647380D02*
X351047619Y-138599761D01*
X351000000Y-138552142D01*
X350952380Y-138456904D01*
X350952380Y-138171190D01*
X351000000Y-138075952D01*
X351047619Y-138028333D01*
X351142857Y-137980714D01*
X351285714Y-137980714D01*
X351380952Y-138028333D01*
X351428571Y-138075952D01*
X351476190Y-138171190D01*
X351476190Y-138456904D01*
X351428571Y-138552142D01*
X351380952Y-138599761D01*
X351285714Y-138647380D01*
X351142857Y-138647380D01*
X352333333Y-138599761D02*
X352238095Y-138647380D01*
X352047619Y-138647380D01*
X351952380Y-138599761D01*
X351904761Y-138552142D01*
X351857142Y-138456904D01*
X351857142Y-138171190D01*
X351904761Y-138075952D01*
X351952380Y-138028333D01*
X352047619Y-137980714D01*
X352238095Y-137980714D01*
X352333333Y-138028333D01*
X352761904Y-138647380D02*
X352761904Y-137647380D01*
X352857142Y-138266428D02*
X353142857Y-138647380D01*
X353142857Y-137980714D02*
X352761904Y-138361666D01*
X353952380Y-138599761D02*
X353857142Y-138647380D01*
X353666666Y-138647380D01*
X353571428Y-138599761D01*
X353523809Y-138504523D01*
X353523809Y-138123571D01*
X353571428Y-138028333D01*
X353666666Y-137980714D01*
X353857142Y-137980714D01*
X353952380Y-138028333D01*
X354000000Y-138123571D01*
X354000000Y-138218809D01*
X353523809Y-138314047D01*
X354285714Y-137980714D02*
X354666666Y-137980714D01*
X354428571Y-137647380D02*
X354428571Y-138504523D01*
X354476190Y-138599761D01*
X354571428Y-138647380D01*
X354666666Y-138647380D01*
X356285714Y-138647380D02*
X355714285Y-138647380D01*
X356000000Y-138647380D02*
X356000000Y-137647380D01*
X355904761Y-137790238D01*
X355809523Y-137885476D01*
X355714285Y-137933095D01*
X356666666Y-138599761D02*
X356809523Y-138647380D01*
X357047619Y-138647380D01*
X357142857Y-138599761D01*
X357190476Y-138552142D01*
X357238095Y-138456904D01*
X357238095Y-138361666D01*
X357190476Y-138266428D01*
X357142857Y-138218809D01*
X357047619Y-138171190D01*
X356857142Y-138123571D01*
X356761904Y-138075952D01*
X356714285Y-138028333D01*
X356666666Y-137933095D01*
X356666666Y-137837857D01*
X356714285Y-137742619D01*
X356761904Y-137695000D01*
X356857142Y-137647380D01*
X357095238Y-137647380D01*
X357238095Y-137695000D01*
X357619047Y-137742619D02*
X357666666Y-137695000D01*
X357761904Y-137647380D01*
X358000000Y-137647380D01*
X358095238Y-137695000D01*
X358142857Y-137742619D01*
X358190476Y-137837857D01*
X358190476Y-137933095D01*
X358142857Y-138075952D01*
X357571428Y-138647380D01*
X358190476Y-138647380D01*
X358619047Y-138647380D02*
X358619047Y-137647380D01*
X359000000Y-137647380D01*
X359095238Y-137695000D01*
X359142857Y-137742619D01*
X359190476Y-137837857D01*
X359190476Y-137980714D01*
X359142857Y-138075952D01*
X359095238Y-138123571D01*
X359000000Y-138171190D01*
X358619047Y-138171190D01*
X341761904Y-139590714D02*
X341952380Y-140257380D01*
X342142857Y-139781190D01*
X342333333Y-140257380D01*
X342523809Y-139590714D01*
X342904761Y-140257380D02*
X342904761Y-139590714D01*
X342904761Y-139257380D02*
X342857142Y-139305000D01*
X342904761Y-139352619D01*
X342952380Y-139305000D01*
X342904761Y-139257380D01*
X342904761Y-139352619D01*
X343238095Y-139590714D02*
X343619047Y-139590714D01*
X343380952Y-139257380D02*
X343380952Y-140114523D01*
X343428571Y-140209761D01*
X343523809Y-140257380D01*
X343619047Y-140257380D01*
X343952380Y-140257380D02*
X343952380Y-139257380D01*
X344380952Y-140257380D02*
X344380952Y-139733571D01*
X344333333Y-139638333D01*
X344238095Y-139590714D01*
X344095238Y-139590714D01*
X344000000Y-139638333D01*
X343952380Y-139685952D01*
X345476190Y-139257380D02*
X346047619Y-139257380D01*
X345761904Y-140257380D02*
X345761904Y-139257380D01*
X346761904Y-140209761D02*
X346666666Y-140257380D01*
X346476190Y-140257380D01*
X346380952Y-140209761D01*
X346333333Y-140114523D01*
X346333333Y-139733571D01*
X346380952Y-139638333D01*
X346476190Y-139590714D01*
X346666666Y-139590714D01*
X346761904Y-139638333D01*
X346809523Y-139733571D01*
X346809523Y-139828809D01*
X346333333Y-139924047D01*
X347238095Y-140257380D02*
X347238095Y-139590714D01*
X347238095Y-139685952D02*
X347285714Y-139638333D01*
X347380952Y-139590714D01*
X347523809Y-139590714D01*
X347619047Y-139638333D01*
X347666666Y-139733571D01*
X347666666Y-140257380D01*
X347666666Y-139733571D02*
X347714285Y-139638333D01*
X347809523Y-139590714D01*
X347952380Y-139590714D01*
X348047619Y-139638333D01*
X348095238Y-139733571D01*
X348095238Y-140257380D01*
X348571428Y-139590714D02*
X348571428Y-140590714D01*
X348571428Y-139638333D02*
X348666666Y-139590714D01*
X348857142Y-139590714D01*
X348952380Y-139638333D01*
X349000000Y-139685952D01*
X349047619Y-139781190D01*
X349047619Y-140066904D01*
X349000000Y-140162142D01*
X348952380Y-140209761D01*
X348857142Y-140257380D01*
X348666666Y-140257380D01*
X348571428Y-140209761D01*
X350190476Y-140209761D02*
X350333333Y-140257380D01*
X350571428Y-140257380D01*
X350666666Y-140209761D01*
X350714285Y-140162142D01*
X350761904Y-140066904D01*
X350761904Y-139971666D01*
X350714285Y-139876428D01*
X350666666Y-139828809D01*
X350571428Y-139781190D01*
X350380952Y-139733571D01*
X350285714Y-139685952D01*
X350238095Y-139638333D01*
X350190476Y-139543095D01*
X350190476Y-139447857D01*
X350238095Y-139352619D01*
X350285714Y-139305000D01*
X350380952Y-139257380D01*
X350619047Y-139257380D01*
X350761904Y-139305000D01*
X351571428Y-140209761D02*
X351476190Y-140257380D01*
X351285714Y-140257380D01*
X351190476Y-140209761D01*
X351142857Y-140114523D01*
X351142857Y-139733571D01*
X351190476Y-139638333D01*
X351285714Y-139590714D01*
X351476190Y-139590714D01*
X351571428Y-139638333D01*
X351619047Y-139733571D01*
X351619047Y-139828809D01*
X351142857Y-139924047D01*
X352047619Y-139590714D02*
X352047619Y-140257380D01*
X352047619Y-139685952D02*
X352095238Y-139638333D01*
X352190476Y-139590714D01*
X352333333Y-139590714D01*
X352428571Y-139638333D01*
X352476190Y-139733571D01*
X352476190Y-140257380D01*
X352904761Y-140209761D02*
X353000000Y-140257380D01*
X353190476Y-140257380D01*
X353285714Y-140209761D01*
X353333333Y-140114523D01*
X353333333Y-140066904D01*
X353285714Y-139971666D01*
X353190476Y-139924047D01*
X353047619Y-139924047D01*
X352952380Y-139876428D01*
X352904761Y-139781190D01*
X352904761Y-139733571D01*
X352952380Y-139638333D01*
X353047619Y-139590714D01*
X353190476Y-139590714D01*
X353285714Y-139638333D01*
X354142857Y-140209761D02*
X354047619Y-140257380D01*
X353857142Y-140257380D01*
X353761904Y-140209761D01*
X353714285Y-140114523D01*
X353714285Y-139733571D01*
X353761904Y-139638333D01*
X353857142Y-139590714D01*
X354047619Y-139590714D01*
X354142857Y-139638333D01*
X354190476Y-139733571D01*
X354190476Y-139828809D01*
X353714285Y-139924047D01*
X355238095Y-139257380D02*
X355571428Y-140257380D01*
X355904761Y-139257380D01*
X356761904Y-140257380D02*
X356190476Y-140257380D01*
X356476190Y-140257380D02*
X356476190Y-139257380D01*
X356380952Y-139400238D01*
X356285714Y-139495476D01*
X356190476Y-139543095D01*
X357190476Y-140162142D02*
X357238095Y-140209761D01*
X357190476Y-140257380D01*
X357142857Y-140209761D01*
X357190476Y-140162142D01*
X357190476Y-140257380D01*
X358190476Y-140257380D02*
X357619047Y-140257380D01*
X357904761Y-140257380D02*
X357904761Y-139257380D01*
X357809523Y-139400238D01*
X357714285Y-139495476D01*
X357619047Y-139543095D01*
D11*
X369576666Y-134304523D02*
X369576666Y-135211666D01*
X369516190Y-135393095D01*
X369395238Y-135514047D01*
X369213809Y-135574523D01*
X369092857Y-135574523D01*
X370120952Y-134425476D02*
X370181428Y-134365000D01*
X370302380Y-134304523D01*
X370604761Y-134304523D01*
X370725714Y-134365000D01*
X370786190Y-134425476D01*
X370846666Y-134546428D01*
X370846666Y-134667380D01*
X370786190Y-134848809D01*
X370060476Y-135574523D01*
X370846666Y-135574523D01*
D10*
X319214285Y-154928571D02*
X319357142Y-154976190D01*
X319404761Y-155023809D01*
X319452380Y-155119047D01*
X319452380Y-155261904D01*
X319404761Y-155357142D01*
X319357142Y-155404761D01*
X319261904Y-155452380D01*
X318880952Y-155452380D01*
X318880952Y-154452380D01*
X319214285Y-154452380D01*
X319309523Y-154500000D01*
X319357142Y-154547619D01*
X319404761Y-154642857D01*
X319404761Y-154738095D01*
X319357142Y-154833333D01*
X319309523Y-154880952D01*
X319214285Y-154928571D01*
X318880952Y-154928571D01*
X319738095Y-154452380D02*
X320309523Y-154452380D01*
X320023809Y-155452380D02*
X320023809Y-154452380D01*
X321166666Y-155452380D02*
X320595238Y-155452380D01*
X320880952Y-155452380D02*
X320880952Y-154452380D01*
X320785714Y-154595238D01*
X320690476Y-154690476D01*
X320595238Y-154738095D01*
X319214285Y-114928571D02*
X319357142Y-114976190D01*
X319404761Y-115023809D01*
X319452380Y-115119047D01*
X319452380Y-115261904D01*
X319404761Y-115357142D01*
X319357142Y-115404761D01*
X319261904Y-115452380D01*
X318880952Y-115452380D01*
X318880952Y-114452380D01*
X319214285Y-114452380D01*
X319309523Y-114500000D01*
X319357142Y-114547619D01*
X319404761Y-114642857D01*
X319404761Y-114738095D01*
X319357142Y-114833333D01*
X319309523Y-114880952D01*
X319214285Y-114928571D01*
X318880952Y-114928571D01*
X319738095Y-114452380D02*
X320309523Y-114452380D01*
X320023809Y-115452380D02*
X320023809Y-114452380D01*
X320595238Y-114547619D02*
X320642857Y-114500000D01*
X320738095Y-114452380D01*
X320976190Y-114452380D01*
X321071428Y-114500000D01*
X321119047Y-114547619D01*
X321166666Y-114642857D01*
X321166666Y-114738095D01*
X321119047Y-114880952D01*
X320547619Y-115452380D01*
X321166666Y-115452380D01*
D11*
X299576666Y-134304523D02*
X299576666Y-135211666D01*
X299516190Y-135393095D01*
X299395238Y-135514047D01*
X299213809Y-135574523D01*
X299092857Y-135574523D01*
X300846666Y-135574523D02*
X300120952Y-135574523D01*
X300483809Y-135574523D02*
X300483809Y-134304523D01*
X300362857Y-134485952D01*
X300241904Y-134606904D01*
X300120952Y-134667380D01*
D12*
X308175000Y-131265000D02*
X301825000Y-131265000D01*
X301825000Y-131265000D02*
X301825000Y-138735000D01*
X301825000Y-138735000D02*
X305075000Y-138735000D01*
X308175000Y-137545000D02*
X308175000Y-131265000D01*
D13*
X300000000Y-144500000D02*
X370000000Y-144500000D01*
X370000000Y-165500000D02*
X300000000Y-165500000D01*
X300000000Y-104500000D02*
X370000000Y-104500000D01*
X370000000Y-125500000D02*
X300000000Y-125500000D01*
D12*
X361825000Y-138735000D02*
X368175000Y-138735000D01*
X361825000Y-132455000D02*
X361825000Y-138735000D01*
X368175000Y-138735000D02*
X368175000Y-131265000D01*
X368175000Y-131265000D02*
X364925000Y-131265000D01*
%LPC*%
D14*
X290000000Y-115000000D03*
D15*
X290000000Y-115000000D03*
D16*
X372000000Y-163000000D03*
D17*
X305075000Y-137545000D03*
D18*
X305075000Y-135005000D03*
X305075000Y-132465000D03*
D19*
X294000000Y-155000000D03*
X376000000Y-155000000D03*
D20*
X335000000Y-155000000D03*
D19*
X294000000Y-115000000D03*
X376000000Y-115000000D03*
D15*
X380000000Y-155000000D03*
D14*
X380000000Y-155000000D03*
D20*
X335000000Y-115000000D03*
D14*
X290000000Y-155000000D03*
D15*
X290000000Y-155000000D03*
D16*
X372000000Y-123000000D03*
D14*
X380000000Y-115000000D03*
D15*
X380000000Y-115000000D03*
D17*
X364925000Y-132455000D03*
D18*
X364925000Y-134995000D03*
X364925000Y-137535000D03*
D21*
X294000000Y-135000000D03*
X376000000Y-135000000D03*
D22*
X333730000Y-127500000D03*
D23*
X335000000Y-127500000D03*
X336270000Y-127500000D03*
D22*
X336250000Y-142500000D03*
D23*
X334980000Y-142500000D03*
X333710000Y-142500000D03*
M02*
