%TF.GenerationSoftware,KiCad,Pcbnew,(6.0.8)*%
%TF.CreationDate,2023-02-04T19:59:28+01:00*%
%TF.ProjectId,Research Prototype,52657365-6172-4636-9820-50726f746f74,rev?*%
%TF.SameCoordinates,Original*%
%TF.FileFunction,Legend,Bot*%
%TF.FilePolarity,Positive*%
%FSLAX46Y46*%
G04 Gerber Fmt 4.6, Leading zero omitted, Abs format (unit mm)*
G04 Created by KiCad (PCBNEW (6.0.8)) date 2023-02-04 19:59:28*
%MOMM*%
%LPD*%
G01*
G04 APERTURE LIST*
%ADD10C,0.300000*%
%ADD11C,3.200000*%
%ADD12R,1.700000X1.700000*%
%ADD13O,1.700000X1.700000*%
%ADD14R,1.600000X1.600000*%
%ADD15O,1.600000X1.600000*%
%ADD16R,1.500000X1.500000*%
%ADD17C,1.500000*%
%ADD18R,1.350000X1.350000*%
%ADD19C,1.350000*%
%ADD20R,3.000000X3.000000*%
%ADD21C,3.000000*%
%ADD22C,1.600000*%
%ADD23C,1.381000*%
%ADD24R,1.100000X1.100000*%
%ADD25C,1.100000*%
G04 APERTURE END LIST*
D10*
X206245333Y-75463142D02*
X205959619Y-75558380D01*
X205864380Y-75653619D01*
X205769142Y-75844095D01*
X205769142Y-76129809D01*
X205864380Y-76320285D01*
X205959619Y-76415523D01*
X206150095Y-76510761D01*
X206912000Y-76510761D01*
X206912000Y-74510761D01*
X206245333Y-74510761D01*
X206054857Y-74606000D01*
X205959619Y-74701238D01*
X205864380Y-74891714D01*
X205864380Y-75082190D01*
X205959619Y-75272666D01*
X206054857Y-75367904D01*
X206245333Y-75463142D01*
X206912000Y-75463142D01*
X204054857Y-76510761D02*
X204054857Y-75463142D01*
X204150095Y-75272666D01*
X204340571Y-75177428D01*
X204721523Y-75177428D01*
X204912000Y-75272666D01*
X204054857Y-76415523D02*
X204245333Y-76510761D01*
X204721523Y-76510761D01*
X204912000Y-76415523D01*
X205007238Y-76225047D01*
X205007238Y-76034571D01*
X204912000Y-75844095D01*
X204721523Y-75748857D01*
X204245333Y-75748857D01*
X204054857Y-75653619D01*
X203388190Y-75177428D02*
X202626285Y-75177428D01*
X203102476Y-74510761D02*
X203102476Y-76225047D01*
X203007238Y-76415523D01*
X202816761Y-76510761D01*
X202626285Y-76510761D01*
X202245333Y-75177428D02*
X201483428Y-75177428D01*
X201959619Y-74510761D02*
X201959619Y-76225047D01*
X201864380Y-76415523D01*
X201673904Y-76510761D01*
X201483428Y-76510761D01*
X200054857Y-76415523D02*
X200245333Y-76510761D01*
X200626285Y-76510761D01*
X200816761Y-76415523D01*
X200912000Y-76225047D01*
X200912000Y-75463142D01*
X200816761Y-75272666D01*
X200626285Y-75177428D01*
X200245333Y-75177428D01*
X200054857Y-75272666D01*
X199959619Y-75463142D01*
X199959619Y-75653619D01*
X200912000Y-75844095D01*
X199102476Y-76510761D02*
X199102476Y-75177428D01*
X199102476Y-75558380D02*
X199007238Y-75367904D01*
X198912000Y-75272666D01*
X198721523Y-75177428D01*
X198531047Y-75177428D01*
X198054857Y-75177428D02*
X197578666Y-76510761D01*
X197102476Y-75177428D02*
X197578666Y-76510761D01*
X197769142Y-76986952D01*
X197864380Y-77082190D01*
X198054857Y-77177428D01*
X194816761Y-76510761D02*
X194816761Y-74510761D01*
X194150095Y-75939333D01*
X193483428Y-74510761D01*
X193483428Y-76510761D01*
X192245333Y-76510761D02*
X192435809Y-76415523D01*
X192531047Y-76320285D01*
X192626285Y-76129809D01*
X192626285Y-75558380D01*
X192531047Y-75367904D01*
X192435809Y-75272666D01*
X192245333Y-75177428D01*
X191959619Y-75177428D01*
X191769142Y-75272666D01*
X191673904Y-75367904D01*
X191578666Y-75558380D01*
X191578666Y-76129809D01*
X191673904Y-76320285D01*
X191769142Y-76415523D01*
X191959619Y-76510761D01*
X192245333Y-76510761D01*
X190721523Y-75177428D02*
X190721523Y-76510761D01*
X190721523Y-75367904D02*
X190626285Y-75272666D01*
X190435809Y-75177428D01*
X190150095Y-75177428D01*
X189959619Y-75272666D01*
X189864380Y-75463142D01*
X189864380Y-76510761D01*
X188912000Y-76510761D02*
X188912000Y-75177428D01*
X188912000Y-74510761D02*
X189007238Y-74606000D01*
X188912000Y-74701238D01*
X188816761Y-74606000D01*
X188912000Y-74510761D01*
X188912000Y-74701238D01*
X188245333Y-75177428D02*
X187483428Y-75177428D01*
X187959619Y-74510761D02*
X187959619Y-76225047D01*
X187864380Y-76415523D01*
X187673904Y-76510761D01*
X187483428Y-76510761D01*
X186531047Y-76510761D02*
X186721523Y-76415523D01*
X186816761Y-76320285D01*
X186912000Y-76129809D01*
X186912000Y-75558380D01*
X186816761Y-75367904D01*
X186721523Y-75272666D01*
X186531047Y-75177428D01*
X186245333Y-75177428D01*
X186054857Y-75272666D01*
X185959619Y-75367904D01*
X185864380Y-75558380D01*
X185864380Y-76129809D01*
X185959619Y-76320285D01*
X186054857Y-76415523D01*
X186245333Y-76510761D01*
X186531047Y-76510761D01*
X185007238Y-76510761D02*
X185007238Y-75177428D01*
X185007238Y-75558380D02*
X184912000Y-75367904D01*
X184816761Y-75272666D01*
X184626285Y-75177428D01*
X184435809Y-75177428D01*
X183769142Y-76510761D02*
X183769142Y-75177428D01*
X183769142Y-74510761D02*
X183864380Y-74606000D01*
X183769142Y-74701238D01*
X183673904Y-74606000D01*
X183769142Y-74510761D01*
X183769142Y-74701238D01*
X182816761Y-75177428D02*
X182816761Y-76510761D01*
X182816761Y-75367904D02*
X182721523Y-75272666D01*
X182531047Y-75177428D01*
X182245333Y-75177428D01*
X182054857Y-75272666D01*
X181959619Y-75463142D01*
X181959619Y-76510761D01*
X180150095Y-75177428D02*
X180150095Y-76796476D01*
X180245333Y-76986952D01*
X180340571Y-77082190D01*
X180531047Y-77177428D01*
X180816761Y-77177428D01*
X181007238Y-77082190D01*
X180150095Y-76415523D02*
X180340571Y-76510761D01*
X180721523Y-76510761D01*
X180912000Y-76415523D01*
X181007238Y-76320285D01*
X181102476Y-76129809D01*
X181102476Y-75558380D01*
X181007238Y-75367904D01*
X180912000Y-75272666D01*
X180721523Y-75177428D01*
X180340571Y-75177428D01*
X180150095Y-75272666D01*
X177769142Y-76415523D02*
X177483428Y-76510761D01*
X177007238Y-76510761D01*
X176816761Y-76415523D01*
X176721523Y-76320285D01*
X176626285Y-76129809D01*
X176626285Y-75939333D01*
X176721523Y-75748857D01*
X176816761Y-75653619D01*
X177007238Y-75558380D01*
X177388190Y-75463142D01*
X177578666Y-75367904D01*
X177673904Y-75272666D01*
X177769142Y-75082190D01*
X177769142Y-74891714D01*
X177673904Y-74701238D01*
X177578666Y-74606000D01*
X177388190Y-74510761D01*
X176912000Y-74510761D01*
X176626285Y-74606000D01*
X175959619Y-75177428D02*
X175483428Y-76510761D01*
X175007238Y-75177428D02*
X175483428Y-76510761D01*
X175673904Y-76986952D01*
X175769142Y-77082190D01*
X175959619Y-77177428D01*
X174340571Y-76415523D02*
X174150095Y-76510761D01*
X173769142Y-76510761D01*
X173578666Y-76415523D01*
X173483428Y-76225047D01*
X173483428Y-76129809D01*
X173578666Y-75939333D01*
X173769142Y-75844095D01*
X174054857Y-75844095D01*
X174245333Y-75748857D01*
X174340571Y-75558380D01*
X174340571Y-75463142D01*
X174245333Y-75272666D01*
X174054857Y-75177428D01*
X173769142Y-75177428D01*
X173578666Y-75272666D01*
X172912000Y-75177428D02*
X172150095Y-75177428D01*
X172626285Y-74510761D02*
X172626285Y-76225047D01*
X172531047Y-76415523D01*
X172340571Y-76510761D01*
X172150095Y-76510761D01*
X170721523Y-76415523D02*
X170912000Y-76510761D01*
X171292952Y-76510761D01*
X171483428Y-76415523D01*
X171578666Y-76225047D01*
X171578666Y-75463142D01*
X171483428Y-75272666D01*
X171292952Y-75177428D01*
X170912000Y-75177428D01*
X170721523Y-75272666D01*
X170626285Y-75463142D01*
X170626285Y-75653619D01*
X171578666Y-75844095D01*
X169769142Y-76510761D02*
X169769142Y-75177428D01*
X169769142Y-75367904D02*
X169673904Y-75272666D01*
X169483428Y-75177428D01*
X169197714Y-75177428D01*
X169007238Y-75272666D01*
X168912000Y-75463142D01*
X168912000Y-76510761D01*
X168912000Y-75463142D02*
X168816761Y-75272666D01*
X168626285Y-75177428D01*
X168340571Y-75177428D01*
X168150095Y-75272666D01*
X168054857Y-75463142D01*
X168054857Y-76510761D01*
X165864380Y-74510761D02*
X165197714Y-76510761D01*
X164531047Y-74510761D01*
X162816761Y-76510761D02*
X163959619Y-76510761D01*
X163388190Y-76510761D02*
X163388190Y-74510761D01*
X163578666Y-74796476D01*
X163769142Y-74986952D01*
X163959619Y-75082190D01*
X206959619Y-78683142D02*
X207626285Y-78683142D01*
X207626285Y-79730761D02*
X207626285Y-77730761D01*
X206673904Y-77730761D01*
X205912000Y-79730761D02*
X205912000Y-77730761D01*
X205912000Y-78683142D02*
X204769142Y-78683142D01*
X204769142Y-79730761D02*
X204769142Y-77730761D01*
X203816761Y-78683142D02*
X203150095Y-78683142D01*
X202864380Y-79730761D02*
X203816761Y-79730761D01*
X203816761Y-77730761D01*
X202864380Y-77730761D01*
X202007238Y-79730761D02*
X202007238Y-77730761D01*
X200864380Y-79730761D01*
X200864380Y-77730761D01*
X198864380Y-77826000D02*
X199054857Y-77730761D01*
X199340571Y-77730761D01*
X199626285Y-77826000D01*
X199816761Y-78016476D01*
X199912000Y-78206952D01*
X200007238Y-78587904D01*
X200007238Y-78873619D01*
X199912000Y-79254571D01*
X199816761Y-79445047D01*
X199626285Y-79635523D01*
X199340571Y-79730761D01*
X199150095Y-79730761D01*
X198864380Y-79635523D01*
X198769142Y-79540285D01*
X198769142Y-78873619D01*
X199150095Y-78873619D01*
X196483428Y-79635523D02*
X196197714Y-79730761D01*
X195721523Y-79730761D01*
X195531047Y-79635523D01*
X195435809Y-79540285D01*
X195340571Y-79349809D01*
X195340571Y-79159333D01*
X195435809Y-78968857D01*
X195531047Y-78873619D01*
X195721523Y-78778380D01*
X196102476Y-78683142D01*
X196292952Y-78587904D01*
X196388190Y-78492666D01*
X196483428Y-78302190D01*
X196483428Y-78111714D01*
X196388190Y-77921238D01*
X196292952Y-77826000D01*
X196102476Y-77730761D01*
X195626285Y-77730761D01*
X195340571Y-77826000D01*
X194673904Y-77730761D02*
X193340571Y-77730761D01*
X194197714Y-79730761D01*
X191054857Y-79730761D02*
X191054857Y-77730761D01*
X190292952Y-77730761D01*
X190102476Y-77826000D01*
X190007238Y-77921238D01*
X189912000Y-78111714D01*
X189912000Y-78397428D01*
X190007238Y-78587904D01*
X190102476Y-78683142D01*
X190292952Y-78778380D01*
X191054857Y-78778380D01*
X189054857Y-79730761D02*
X189054857Y-78397428D01*
X189054857Y-78778380D02*
X188959619Y-78587904D01*
X188864380Y-78492666D01*
X188673904Y-78397428D01*
X188483428Y-78397428D01*
X187531047Y-79730761D02*
X187721523Y-79635523D01*
X187816761Y-79540285D01*
X187912000Y-79349809D01*
X187912000Y-78778380D01*
X187816761Y-78587904D01*
X187721523Y-78492666D01*
X187531047Y-78397428D01*
X187245333Y-78397428D01*
X187054857Y-78492666D01*
X186959619Y-78587904D01*
X186864380Y-78778380D01*
X186864380Y-79349809D01*
X186959619Y-79540285D01*
X187054857Y-79635523D01*
X187245333Y-79730761D01*
X187531047Y-79730761D01*
X186007238Y-78397428D02*
X186007238Y-80111714D01*
X186102476Y-80302190D01*
X186292952Y-80397428D01*
X186388190Y-80397428D01*
X186007238Y-77730761D02*
X186102476Y-77826000D01*
X186007238Y-77921238D01*
X185912000Y-77826000D01*
X186007238Y-77730761D01*
X186007238Y-77921238D01*
X184292952Y-79635523D02*
X184483428Y-79730761D01*
X184864380Y-79730761D01*
X185054857Y-79635523D01*
X185150095Y-79445047D01*
X185150095Y-78683142D01*
X185054857Y-78492666D01*
X184864380Y-78397428D01*
X184483428Y-78397428D01*
X184292952Y-78492666D01*
X184197714Y-78683142D01*
X184197714Y-78873619D01*
X185150095Y-79064095D01*
X182483428Y-79635523D02*
X182673904Y-79730761D01*
X183054857Y-79730761D01*
X183245333Y-79635523D01*
X183340571Y-79540285D01*
X183435809Y-79349809D01*
X183435809Y-78778380D01*
X183340571Y-78587904D01*
X183245333Y-78492666D01*
X183054857Y-78397428D01*
X182673904Y-78397428D01*
X182483428Y-78492666D01*
X181912000Y-78397428D02*
X181150095Y-78397428D01*
X181626285Y-77730761D02*
X181626285Y-79445047D01*
X181531047Y-79635523D01*
X181340571Y-79730761D01*
X181150095Y-79730761D01*
X179054857Y-77921238D02*
X178959619Y-77826000D01*
X178769142Y-77730761D01*
X178292952Y-77730761D01*
X178102476Y-77826000D01*
X178007238Y-77921238D01*
X177912000Y-78111714D01*
X177912000Y-78302190D01*
X178007238Y-78587904D01*
X179150095Y-79730761D01*
X177912000Y-79730761D01*
X176673904Y-77730761D02*
X176483428Y-77730761D01*
X176292952Y-77826000D01*
X176197714Y-77921238D01*
X176102476Y-78111714D01*
X176007238Y-78492666D01*
X176007238Y-78968857D01*
X176102476Y-79349809D01*
X176197714Y-79540285D01*
X176292952Y-79635523D01*
X176483428Y-79730761D01*
X176673904Y-79730761D01*
X176864380Y-79635523D01*
X176959619Y-79540285D01*
X177054857Y-79349809D01*
X177150095Y-78968857D01*
X177150095Y-78492666D01*
X177054857Y-78111714D01*
X176959619Y-77921238D01*
X176864380Y-77826000D01*
X176673904Y-77730761D01*
X175245333Y-77921238D02*
X175150095Y-77826000D01*
X174959619Y-77730761D01*
X174483428Y-77730761D01*
X174292952Y-77826000D01*
X174197714Y-77921238D01*
X174102476Y-78111714D01*
X174102476Y-78302190D01*
X174197714Y-78587904D01*
X175340571Y-79730761D01*
X174102476Y-79730761D01*
X173340571Y-77921238D02*
X173245333Y-77826000D01*
X173054857Y-77730761D01*
X172578666Y-77730761D01*
X172388190Y-77826000D01*
X172292952Y-77921238D01*
X172197714Y-78111714D01*
X172197714Y-78302190D01*
X172292952Y-78587904D01*
X173435809Y-79730761D01*
X172197714Y-79730761D01*
X171340571Y-78968857D02*
X169816761Y-78968857D01*
X168959619Y-77921238D02*
X168864380Y-77826000D01*
X168673904Y-77730761D01*
X168197714Y-77730761D01*
X168007238Y-77826000D01*
X167912000Y-77921238D01*
X167816761Y-78111714D01*
X167816761Y-78302190D01*
X167912000Y-78587904D01*
X169054857Y-79730761D01*
X167816761Y-79730761D01*
X166578666Y-77730761D02*
X166388190Y-77730761D01*
X166197714Y-77826000D01*
X166102476Y-77921238D01*
X166007238Y-78111714D01*
X165912000Y-78492666D01*
X165912000Y-78968857D01*
X166007238Y-79349809D01*
X166102476Y-79540285D01*
X166197714Y-79635523D01*
X166388190Y-79730761D01*
X166578666Y-79730761D01*
X166769142Y-79635523D01*
X166864380Y-79540285D01*
X166959619Y-79349809D01*
X167054857Y-78968857D01*
X167054857Y-78492666D01*
X166959619Y-78111714D01*
X166864380Y-77921238D01*
X166769142Y-77826000D01*
X166578666Y-77730761D01*
X165150095Y-77921238D02*
X165054857Y-77826000D01*
X164864380Y-77730761D01*
X164388190Y-77730761D01*
X164197714Y-77826000D01*
X164102476Y-77921238D01*
X164007238Y-78111714D01*
X164007238Y-78302190D01*
X164102476Y-78587904D01*
X165245333Y-79730761D01*
X164007238Y-79730761D01*
X163340571Y-77730761D02*
X162102476Y-77730761D01*
X162769142Y-78492666D01*
X162483428Y-78492666D01*
X162292952Y-78587904D01*
X162197714Y-78683142D01*
X162102476Y-78873619D01*
X162102476Y-79349809D01*
X162197714Y-79540285D01*
X162292952Y-79635523D01*
X162483428Y-79730761D01*
X163054857Y-79730761D01*
X163245333Y-79635523D01*
X163340571Y-79540285D01*
%LPC*%
D11*
X120650000Y-49530000D03*
D12*
X120650000Y-87630000D03*
D13*
X120650000Y-85090000D03*
D14*
X143500000Y-88900000D03*
D15*
X143500000Y-86360000D03*
X143500000Y-83820000D03*
X143500000Y-81280000D03*
X143500000Y-78740000D03*
X143500000Y-76200000D03*
X143500000Y-73660000D03*
X143500000Y-71120000D03*
X143500000Y-68580000D03*
X143500000Y-66040000D03*
X143500000Y-63500000D03*
X143500000Y-60960000D03*
X143500000Y-58420000D03*
X143500000Y-55880000D03*
X143500000Y-53340000D03*
X128260000Y-53340000D03*
X128260000Y-55880000D03*
X128260000Y-58420000D03*
X128260000Y-60960000D03*
X128260000Y-63500000D03*
X128260000Y-66040000D03*
X128260000Y-68580000D03*
X128260000Y-71120000D03*
X128260000Y-73660000D03*
X128260000Y-76200000D03*
X128260000Y-78740000D03*
X128260000Y-81280000D03*
X128260000Y-83820000D03*
X128260000Y-86360000D03*
X128260000Y-88900000D03*
D16*
X143510000Y-97461000D03*
D17*
X140970000Y-97461000D03*
X138430000Y-97461000D03*
D12*
X151130000Y-80010000D03*
D13*
X151130000Y-77470000D03*
X151130000Y-74930000D03*
X151130000Y-72390000D03*
X151130000Y-69850000D03*
X151130000Y-67310000D03*
D12*
X120650000Y-57150000D03*
D13*
X120650000Y-59690000D03*
X120650000Y-62230000D03*
X120650000Y-64770000D03*
X120650000Y-67310000D03*
X120650000Y-69850000D03*
X120650000Y-72390000D03*
D18*
X170520000Y-98098000D03*
D19*
X168520000Y-98098000D03*
X166520000Y-98098000D03*
X164520000Y-98098000D03*
X162520000Y-98098000D03*
D20*
X149860000Y-97282000D03*
D21*
X154940000Y-97282000D03*
D22*
X135890000Y-87630000D03*
D15*
X135890000Y-74930000D03*
D11*
X207010000Y-49530000D03*
D23*
X200152000Y-98244000D03*
X198152000Y-98244000D03*
X196152000Y-98244000D03*
X194152000Y-98244000D03*
X192152000Y-98244000D03*
X190152000Y-98244000D03*
X188152000Y-98244000D03*
X186152000Y-98244000D03*
X184152000Y-98244000D03*
X182152000Y-98244000D03*
X180152000Y-98244000D03*
X178152000Y-98244000D03*
D24*
X154940000Y-86400000D03*
D25*
X154940000Y-88900000D03*
D12*
X120650000Y-80010000D03*
D13*
X120650000Y-77470000D03*
D16*
X133350000Y-97461000D03*
D17*
X130810000Y-97461000D03*
X128270000Y-97461000D03*
D11*
X120650000Y-97790000D03*
X207010000Y-97790000D03*
M02*
