%TF.GenerationSoftware,KiCad,Pcbnew,(6.0.8)*%
%TF.CreationDate,2023-02-04T19:59:28+01:00*%
%TF.ProjectId,Research Prototype,52657365-6172-4636-9820-50726f746f74,rev?*%
%TF.SameCoordinates,Original*%
%TF.FileFunction,Soldermask,Bot*%
%TF.FilePolarity,Negative*%
%FSLAX46Y46*%
G04 Gerber Fmt 4.6, Leading zero omitted, Abs format (unit mm)*
G04 Created by KiCad (PCBNEW (6.0.8)) date 2023-02-04 19:59:28*
%MOMM*%
%LPD*%
G01*
G04 APERTURE LIST*
%ADD10C,3.200000*%
%ADD11R,1.700000X1.700000*%
%ADD12O,1.700000X1.700000*%
%ADD13R,1.600000X1.600000*%
%ADD14O,1.600000X1.600000*%
%ADD15R,1.500000X1.500000*%
%ADD16C,1.500000*%
%ADD17R,1.350000X1.350000*%
%ADD18C,1.350000*%
%ADD19R,3.000000X3.000000*%
%ADD20C,3.000000*%
%ADD21C,1.600000*%
%ADD22C,1.381000*%
%ADD23R,1.100000X1.100000*%
%ADD24C,1.100000*%
G04 APERTURE END LIST*
D10*
X120650000Y-49530000D03*
D11*
X120650000Y-87630000D03*
D12*
X120650000Y-85090000D03*
D13*
X143500000Y-88900000D03*
D14*
X143500000Y-86360000D03*
X143500000Y-83820000D03*
X143500000Y-81280000D03*
X143500000Y-78740000D03*
X143500000Y-76200000D03*
X143500000Y-73660000D03*
X143500000Y-71120000D03*
X143500000Y-68580000D03*
X143500000Y-66040000D03*
X143500000Y-63500000D03*
X143500000Y-60960000D03*
X143500000Y-58420000D03*
X143500000Y-55880000D03*
X143500000Y-53340000D03*
X128260000Y-53340000D03*
X128260000Y-55880000D03*
X128260000Y-58420000D03*
X128260000Y-60960000D03*
X128260000Y-63500000D03*
X128260000Y-66040000D03*
X128260000Y-68580000D03*
X128260000Y-71120000D03*
X128260000Y-73660000D03*
X128260000Y-76200000D03*
X128260000Y-78740000D03*
X128260000Y-81280000D03*
X128260000Y-83820000D03*
X128260000Y-86360000D03*
X128260000Y-88900000D03*
D15*
X143510000Y-97461000D03*
D16*
X140970000Y-97461000D03*
X138430000Y-97461000D03*
D11*
X151130000Y-80010000D03*
D12*
X151130000Y-77470000D03*
X151130000Y-74930000D03*
X151130000Y-72390000D03*
X151130000Y-69850000D03*
X151130000Y-67310000D03*
D11*
X120650000Y-57150000D03*
D12*
X120650000Y-59690000D03*
X120650000Y-62230000D03*
X120650000Y-64770000D03*
X120650000Y-67310000D03*
X120650000Y-69850000D03*
X120650000Y-72390000D03*
D17*
X170520000Y-98098000D03*
D18*
X168520000Y-98098000D03*
X166520000Y-98098000D03*
X164520000Y-98098000D03*
X162520000Y-98098000D03*
D19*
X149860000Y-97282000D03*
D20*
X154940000Y-97282000D03*
D21*
X135890000Y-87630000D03*
D14*
X135890000Y-74930000D03*
D10*
X207010000Y-49530000D03*
D22*
X200152000Y-98244000D03*
X198152000Y-98244000D03*
X196152000Y-98244000D03*
X194152000Y-98244000D03*
X192152000Y-98244000D03*
X190152000Y-98244000D03*
X188152000Y-98244000D03*
X186152000Y-98244000D03*
X184152000Y-98244000D03*
X182152000Y-98244000D03*
X180152000Y-98244000D03*
X178152000Y-98244000D03*
D23*
X154940000Y-86400000D03*
D24*
X154940000Y-88900000D03*
D11*
X120650000Y-80010000D03*
D12*
X120650000Y-77470000D03*
D15*
X133350000Y-97461000D03*
D16*
X130810000Y-97461000D03*
X128270000Y-97461000D03*
D10*
X120650000Y-97790000D03*
X207010000Y-97790000D03*
M02*
