%TF.GenerationSoftware,KiCad,Pcbnew,(6.0.8)*%
%TF.CreationDate,2023-02-04T19:59:28+01:00*%
%TF.ProjectId,Research Prototype,52657365-6172-4636-9820-50726f746f74,rev?*%
%TF.SameCoordinates,Original*%
%TF.FileFunction,Legend,Top*%
%TF.FilePolarity,Positive*%
%FSLAX46Y46*%
G04 Gerber Fmt 4.6, Leading zero omitted, Abs format (unit mm)*
G04 Created by KiCad (PCBNEW (6.0.8)) date 2023-02-04 19:59:28*
%MOMM*%
%LPD*%
G01*
G04 APERTURE LIST*
%ADD10C,0.250000*%
%ADD11C,0.254000*%
%ADD12C,0.150000*%
%ADD13C,0.200000*%
%ADD14C,0.120000*%
%ADD15C,0.100000*%
%ADD16R,1.820000X1.050000*%
%ADD17R,1.050000X1.820000*%
%ADD18R,0.900000X0.650000*%
%ADD19C,3.200000*%
%ADD20R,1.700000X1.700000*%
%ADD21O,1.700000X1.700000*%
%ADD22R,1.600000X1.600000*%
%ADD23O,1.600000X1.600000*%
%ADD24R,1.500000X1.500000*%
%ADD25C,1.500000*%
%ADD26R,1.430000X0.940000*%
%ADD27R,1.350000X1.350000*%
%ADD28C,1.350000*%
%ADD29R,3.000000X3.000000*%
%ADD30C,3.000000*%
%ADD31C,1.600000*%
%ADD32R,1.400000X0.300000*%
%ADD33R,0.500000X1.250000*%
%ADD34R,0.940000X0.750000*%
%ADD35R,1.475000X0.300000*%
%ADD36R,0.300000X1.475000*%
%ADD37C,1.381000*%
%ADD38R,1.250000X0.500000*%
%ADD39R,1.100000X1.100000*%
%ADD40C,1.100000*%
%ADD41R,0.620000X0.600000*%
G04 APERTURE END LIST*
D10*
X168521142Y-63603142D02*
X168473523Y-63650761D01*
X168330666Y-63698380D01*
X168235428Y-63698380D01*
X168092571Y-63650761D01*
X167997333Y-63555523D01*
X167949714Y-63460285D01*
X167902095Y-63269809D01*
X167902095Y-63126952D01*
X167949714Y-62936476D01*
X167997333Y-62841238D01*
X168092571Y-62746000D01*
X168235428Y-62698380D01*
X168330666Y-62698380D01*
X168473523Y-62746000D01*
X168521142Y-62793619D01*
X168902095Y-62793619D02*
X168949714Y-62746000D01*
X169044952Y-62698380D01*
X169283047Y-62698380D01*
X169378285Y-62746000D01*
X169425904Y-62793619D01*
X169473523Y-62888857D01*
X169473523Y-62984095D01*
X169425904Y-63126952D01*
X168854476Y-63698380D01*
X169473523Y-63698380D01*
X169854476Y-62793619D02*
X169902095Y-62746000D01*
X169997333Y-62698380D01*
X170235428Y-62698380D01*
X170330666Y-62746000D01*
X170378285Y-62793619D01*
X170425904Y-62888857D01*
X170425904Y-62984095D01*
X170378285Y-63126952D01*
X169806857Y-63698380D01*
X170425904Y-63698380D01*
D11*
X189683571Y-77415571D02*
X189623095Y-77476047D01*
X189441666Y-77536523D01*
X189320714Y-77536523D01*
X189139285Y-77476047D01*
X189018333Y-77355095D01*
X188957857Y-77234142D01*
X188897380Y-76992238D01*
X188897380Y-76810809D01*
X188957857Y-76568904D01*
X189018333Y-76447952D01*
X189139285Y-76327000D01*
X189320714Y-76266523D01*
X189441666Y-76266523D01*
X189623095Y-76327000D01*
X189683571Y-76387476D01*
X190893095Y-77536523D02*
X190167380Y-77536523D01*
X190530238Y-77536523D02*
X190530238Y-76266523D01*
X190409285Y-76447952D01*
X190288333Y-76568904D01*
X190167380Y-76629380D01*
X191376904Y-76387476D02*
X191437380Y-76327000D01*
X191558333Y-76266523D01*
X191860714Y-76266523D01*
X191981666Y-76327000D01*
X192042142Y-76387476D01*
X192102619Y-76508428D01*
X192102619Y-76629380D01*
X192042142Y-76810809D01*
X191316428Y-77536523D01*
X192102619Y-77536523D01*
X193844333Y-85664523D02*
X193421000Y-85059761D01*
X193118619Y-85664523D02*
X193118619Y-84394523D01*
X193602428Y-84394523D01*
X193723380Y-84455000D01*
X193783857Y-84515476D01*
X193844333Y-84636428D01*
X193844333Y-84817857D01*
X193783857Y-84938809D01*
X193723380Y-84999285D01*
X193602428Y-85059761D01*
X193118619Y-85059761D01*
X194932904Y-84817857D02*
X194932904Y-85664523D01*
X194630523Y-84334047D02*
X194328142Y-85241190D01*
X195114333Y-85241190D01*
D12*
X119840476Y-89412380D02*
X119840476Y-90126666D01*
X119792857Y-90269523D01*
X119697619Y-90364761D01*
X119554761Y-90412380D01*
X119459523Y-90412380D01*
X120840476Y-90412380D02*
X120269047Y-90412380D01*
X120554761Y-90412380D02*
X120554761Y-89412380D01*
X120459523Y-89555238D01*
X120364285Y-89650476D01*
X120269047Y-89698095D01*
X121173809Y-89412380D02*
X121840476Y-89412380D01*
X121411904Y-90412380D01*
D11*
X167839571Y-85664523D02*
X167416238Y-85059761D01*
X167113857Y-85664523D02*
X167113857Y-84394523D01*
X167597666Y-84394523D01*
X167718619Y-84455000D01*
X167779095Y-84515476D01*
X167839571Y-84636428D01*
X167839571Y-84817857D01*
X167779095Y-84938809D01*
X167718619Y-84999285D01*
X167597666Y-85059761D01*
X167113857Y-85059761D01*
X169049095Y-85664523D02*
X168323380Y-85664523D01*
X168686238Y-85664523D02*
X168686238Y-84394523D01*
X168565285Y-84575952D01*
X168444333Y-84696904D01*
X168323380Y-84757380D01*
X169472428Y-84394523D02*
X170258619Y-84394523D01*
X169835285Y-84878333D01*
X170016714Y-84878333D01*
X170137666Y-84938809D01*
X170198142Y-84999285D01*
X170258619Y-85120238D01*
X170258619Y-85422619D01*
X170198142Y-85543571D01*
X170137666Y-85604047D01*
X170016714Y-85664523D01*
X169653857Y-85664523D01*
X169532904Y-85604047D01*
X169472428Y-85543571D01*
X184603571Y-77415571D02*
X184543095Y-77476047D01*
X184361666Y-77536523D01*
X184240714Y-77536523D01*
X184059285Y-77476047D01*
X183938333Y-77355095D01*
X183877857Y-77234142D01*
X183817380Y-76992238D01*
X183817380Y-76810809D01*
X183877857Y-76568904D01*
X183938333Y-76447952D01*
X184059285Y-76327000D01*
X184240714Y-76266523D01*
X184361666Y-76266523D01*
X184543095Y-76327000D01*
X184603571Y-76387476D01*
X185813095Y-77536523D02*
X185087380Y-77536523D01*
X185450238Y-77536523D02*
X185450238Y-76266523D01*
X185329285Y-76447952D01*
X185208333Y-76568904D01*
X185087380Y-76629380D01*
X186236428Y-76266523D02*
X187022619Y-76266523D01*
X186599285Y-76750333D01*
X186780714Y-76750333D01*
X186901666Y-76810809D01*
X186962142Y-76871285D01*
X187022619Y-76992238D01*
X187022619Y-77294619D01*
X186962142Y-77415571D01*
X186901666Y-77476047D01*
X186780714Y-77536523D01*
X186417857Y-77536523D01*
X186296904Y-77476047D01*
X186236428Y-77415571D01*
D12*
X135165714Y-94146666D02*
X135641904Y-94146666D01*
X135070476Y-94432380D02*
X135403809Y-93432380D01*
X135737142Y-94432380D01*
X136594285Y-94432380D02*
X136022857Y-94432380D01*
X136308571Y-94432380D02*
X136308571Y-93432380D01*
X136213333Y-93575238D01*
X136118095Y-93670476D01*
X136022857Y-93718095D01*
X137141904Y-53887619D02*
X137141904Y-53078095D01*
X137094285Y-52982857D01*
X137046666Y-52935238D01*
X136951428Y-52887619D01*
X136760952Y-52887619D01*
X136665714Y-52935238D01*
X136618095Y-52982857D01*
X136570476Y-53078095D01*
X136570476Y-53887619D01*
X136141904Y-52935238D02*
X135999047Y-52887619D01*
X135760952Y-52887619D01*
X135665714Y-52935238D01*
X135618095Y-52982857D01*
X135570476Y-53078095D01*
X135570476Y-53173333D01*
X135618095Y-53268571D01*
X135665714Y-53316190D01*
X135760952Y-53363809D01*
X135951428Y-53411428D01*
X136046666Y-53459047D01*
X136094285Y-53506666D01*
X136141904Y-53601904D01*
X136141904Y-53697142D01*
X136094285Y-53792380D01*
X136046666Y-53840000D01*
X135951428Y-53887619D01*
X135713333Y-53887619D01*
X135570476Y-53840000D01*
X134808571Y-53411428D02*
X134665714Y-53363809D01*
X134618095Y-53316190D01*
X134570476Y-53220952D01*
X134570476Y-53078095D01*
X134618095Y-52982857D01*
X134665714Y-52935238D01*
X134760952Y-52887619D01*
X135141904Y-52887619D01*
X135141904Y-53887619D01*
X134808571Y-53887619D01*
X134713333Y-53840000D01*
X134665714Y-53792380D01*
X134618095Y-53697142D01*
X134618095Y-53601904D01*
X134665714Y-53506666D01*
X134713333Y-53459047D01*
X134808571Y-53411428D01*
X135141904Y-53411428D01*
D11*
X139941904Y-98872523D02*
X139941904Y-99779666D01*
X139881428Y-99961095D01*
X139760476Y-100082047D01*
X139579047Y-100142523D01*
X139458095Y-100142523D01*
X141211904Y-100142523D02*
X140486190Y-100142523D01*
X140849047Y-100142523D02*
X140849047Y-98872523D01*
X140728095Y-99053952D01*
X140607142Y-99174904D01*
X140486190Y-99235380D01*
X142360952Y-98872523D02*
X141756190Y-98872523D01*
X141695714Y-99477285D01*
X141756190Y-99416809D01*
X141877142Y-99356333D01*
X142179523Y-99356333D01*
X142300476Y-99416809D01*
X142360952Y-99477285D01*
X142421428Y-99598238D01*
X142421428Y-99900619D01*
X142360952Y-100021571D01*
X142300476Y-100082047D01*
X142179523Y-100142523D01*
X141877142Y-100142523D01*
X141756190Y-100082047D01*
X141695714Y-100021571D01*
X177999571Y-85664523D02*
X177576238Y-85059761D01*
X177273857Y-85664523D02*
X177273857Y-84394523D01*
X177757666Y-84394523D01*
X177878619Y-84455000D01*
X177939095Y-84515476D01*
X177999571Y-84636428D01*
X177999571Y-84817857D01*
X177939095Y-84938809D01*
X177878619Y-84999285D01*
X177757666Y-85059761D01*
X177273857Y-85059761D01*
X179209095Y-85664523D02*
X178483380Y-85664523D01*
X178846238Y-85664523D02*
X178846238Y-84394523D01*
X178725285Y-84575952D01*
X178604333Y-84696904D01*
X178483380Y-84757380D01*
X179995285Y-84394523D02*
X180116238Y-84394523D01*
X180237190Y-84455000D01*
X180297666Y-84515476D01*
X180358142Y-84636428D01*
X180418619Y-84878333D01*
X180418619Y-85180714D01*
X180358142Y-85422619D01*
X180297666Y-85543571D01*
X180237190Y-85604047D01*
X180116238Y-85664523D01*
X179995285Y-85664523D01*
X179874333Y-85604047D01*
X179813857Y-85543571D01*
X179753380Y-85422619D01*
X179692904Y-85180714D01*
X179692904Y-84878333D01*
X179753380Y-84636428D01*
X179813857Y-84515476D01*
X179874333Y-84455000D01*
X179995285Y-84394523D01*
X183684333Y-85664523D02*
X183261000Y-85059761D01*
X182958619Y-85664523D02*
X182958619Y-84394523D01*
X183442428Y-84394523D01*
X183563380Y-84455000D01*
X183623857Y-84515476D01*
X183684333Y-84636428D01*
X183684333Y-84817857D01*
X183623857Y-84938809D01*
X183563380Y-84999285D01*
X183442428Y-85059761D01*
X182958619Y-85059761D01*
X184410047Y-84938809D02*
X184289095Y-84878333D01*
X184228619Y-84817857D01*
X184168142Y-84696904D01*
X184168142Y-84636428D01*
X184228619Y-84515476D01*
X184289095Y-84455000D01*
X184410047Y-84394523D01*
X184651952Y-84394523D01*
X184772904Y-84455000D01*
X184833380Y-84515476D01*
X184893857Y-84636428D01*
X184893857Y-84696904D01*
X184833380Y-84817857D01*
X184772904Y-84878333D01*
X184651952Y-84938809D01*
X184410047Y-84938809D01*
X184289095Y-84999285D01*
X184228619Y-85059761D01*
X184168142Y-85180714D01*
X184168142Y-85422619D01*
X184228619Y-85543571D01*
X184289095Y-85604047D01*
X184410047Y-85664523D01*
X184651952Y-85664523D01*
X184772904Y-85604047D01*
X184833380Y-85543571D01*
X184893857Y-85422619D01*
X184893857Y-85180714D01*
X184833380Y-85059761D01*
X184772904Y-84999285D01*
X184651952Y-84938809D01*
D12*
X150320476Y-81792380D02*
X150320476Y-82506666D01*
X150272857Y-82649523D01*
X150177619Y-82744761D01*
X150034761Y-82792380D01*
X149939523Y-82792380D01*
X151320476Y-82792380D02*
X150749047Y-82792380D01*
X151034761Y-82792380D02*
X151034761Y-81792380D01*
X150939523Y-81935238D01*
X150844285Y-82030476D01*
X150749047Y-82078095D01*
X152177619Y-82125714D02*
X152177619Y-82792380D01*
X151939523Y-81744761D02*
X151701428Y-82459047D01*
X152320476Y-82459047D01*
D11*
X186224333Y-90744523D02*
X185801000Y-90139761D01*
X185498619Y-90744523D02*
X185498619Y-89474523D01*
X185982428Y-89474523D01*
X186103380Y-89535000D01*
X186163857Y-89595476D01*
X186224333Y-89716428D01*
X186224333Y-89897857D01*
X186163857Y-90018809D01*
X186103380Y-90079285D01*
X185982428Y-90139761D01*
X185498619Y-90139761D01*
X186647666Y-89474523D02*
X187494333Y-89474523D01*
X186950047Y-90744523D01*
D10*
X166997142Y-68683142D02*
X166949523Y-68730761D01*
X166806666Y-68778380D01*
X166711428Y-68778380D01*
X166568571Y-68730761D01*
X166473333Y-68635523D01*
X166425714Y-68540285D01*
X166378095Y-68349809D01*
X166378095Y-68206952D01*
X166425714Y-68016476D01*
X166473333Y-67921238D01*
X166568571Y-67826000D01*
X166711428Y-67778380D01*
X166806666Y-67778380D01*
X166949523Y-67826000D01*
X166997142Y-67873619D01*
X167378095Y-67873619D02*
X167425714Y-67826000D01*
X167520952Y-67778380D01*
X167759047Y-67778380D01*
X167854285Y-67826000D01*
X167901904Y-67873619D01*
X167949523Y-67968857D01*
X167949523Y-68064095D01*
X167901904Y-68206952D01*
X167330476Y-68778380D01*
X167949523Y-68778380D01*
X168282857Y-67778380D02*
X168901904Y-67778380D01*
X168568571Y-68159333D01*
X168711428Y-68159333D01*
X168806666Y-68206952D01*
X168854285Y-68254571D01*
X168901904Y-68349809D01*
X168901904Y-68587904D01*
X168854285Y-68683142D01*
X168806666Y-68730761D01*
X168711428Y-68778380D01*
X168425714Y-68778380D01*
X168330476Y-68730761D01*
X168282857Y-68683142D01*
D11*
X198924333Y-85664523D02*
X198501000Y-85059761D01*
X198198619Y-85664523D02*
X198198619Y-84394523D01*
X198682428Y-84394523D01*
X198803380Y-84455000D01*
X198863857Y-84515476D01*
X198924333Y-84636428D01*
X198924333Y-84817857D01*
X198863857Y-84938809D01*
X198803380Y-84999285D01*
X198682428Y-85059761D01*
X198198619Y-85059761D01*
X199408142Y-84515476D02*
X199468619Y-84455000D01*
X199589571Y-84394523D01*
X199891952Y-84394523D01*
X200012904Y-84455000D01*
X200073380Y-84515476D01*
X200133857Y-84636428D01*
X200133857Y-84757380D01*
X200073380Y-84938809D01*
X199347666Y-85664523D01*
X200133857Y-85664523D01*
D12*
X119840476Y-54272380D02*
X119840476Y-54986666D01*
X119792857Y-55129523D01*
X119697619Y-55224761D01*
X119554761Y-55272380D01*
X119459523Y-55272380D01*
X120840476Y-55272380D02*
X120269047Y-55272380D01*
X120554761Y-55272380D02*
X120554761Y-54272380D01*
X120459523Y-54415238D01*
X120364285Y-54510476D01*
X120269047Y-54558095D01*
X121173809Y-54272380D02*
X121792857Y-54272380D01*
X121459523Y-54653333D01*
X121602380Y-54653333D01*
X121697619Y-54700952D01*
X121745238Y-54748571D01*
X121792857Y-54843809D01*
X121792857Y-55081904D01*
X121745238Y-55177142D01*
X121697619Y-55224761D01*
X121602380Y-55272380D01*
X121316666Y-55272380D01*
X121221428Y-55224761D01*
X121173809Y-55177142D01*
D11*
X170167904Y-93792523D02*
X170167904Y-94699666D01*
X170107428Y-94881095D01*
X169986476Y-95002047D01*
X169805047Y-95062523D01*
X169684095Y-95062523D01*
X171437904Y-95062523D02*
X170712190Y-95062523D01*
X171075047Y-95062523D02*
X171075047Y-93792523D01*
X170954095Y-93973952D01*
X170833142Y-94094904D01*
X170712190Y-94155380D01*
X172647428Y-95062523D02*
X171921714Y-95062523D01*
X172284571Y-95062523D02*
X172284571Y-93792523D01*
X172163619Y-93973952D01*
X172042666Y-94094904D01*
X171921714Y-94155380D01*
X175459571Y-90744523D02*
X175036238Y-90139761D01*
X174733857Y-90744523D02*
X174733857Y-89474523D01*
X175217666Y-89474523D01*
X175338619Y-89535000D01*
X175399095Y-89595476D01*
X175459571Y-89716428D01*
X175459571Y-89897857D01*
X175399095Y-90018809D01*
X175338619Y-90079285D01*
X175217666Y-90139761D01*
X174733857Y-90139761D01*
X176669095Y-90744523D02*
X175943380Y-90744523D01*
X176306238Y-90744523D02*
X176306238Y-89474523D01*
X176185285Y-89655952D01*
X176064333Y-89776904D01*
X175943380Y-89837380D01*
X177878619Y-90744523D02*
X177152904Y-90744523D01*
X177515761Y-90744523D02*
X177515761Y-89474523D01*
X177394809Y-89655952D01*
X177273857Y-89776904D01*
X177152904Y-89837380D01*
X196892333Y-50237571D02*
X196831857Y-50298047D01*
X196650428Y-50358523D01*
X196529476Y-50358523D01*
X196348047Y-50298047D01*
X196227095Y-50177095D01*
X196166619Y-50056142D01*
X196106142Y-49814238D01*
X196106142Y-49632809D01*
X196166619Y-49390904D01*
X196227095Y-49269952D01*
X196348047Y-49149000D01*
X196529476Y-49088523D01*
X196650428Y-49088523D01*
X196831857Y-49149000D01*
X196892333Y-49209476D01*
X197980904Y-49511857D02*
X197980904Y-50358523D01*
X197678523Y-49028047D02*
X197376142Y-49935190D01*
X198162333Y-49935190D01*
X191304333Y-90744523D02*
X190881000Y-90139761D01*
X190578619Y-90744523D02*
X190578619Y-89474523D01*
X191062428Y-89474523D01*
X191183380Y-89535000D01*
X191243857Y-89595476D01*
X191304333Y-89716428D01*
X191304333Y-89897857D01*
X191243857Y-90018809D01*
X191183380Y-90079285D01*
X191062428Y-90139761D01*
X190578619Y-90139761D01*
X192453380Y-89474523D02*
X191848619Y-89474523D01*
X191788142Y-90079285D01*
X191848619Y-90018809D01*
X191969571Y-89958333D01*
X192271952Y-89958333D01*
X192392904Y-90018809D01*
X192453380Y-90079285D01*
X192513857Y-90200238D01*
X192513857Y-90502619D01*
X192453380Y-90623571D01*
X192392904Y-90684047D01*
X192271952Y-90744523D01*
X191969571Y-90744523D01*
X191848619Y-90684047D01*
X191788142Y-90623571D01*
D12*
X155400476Y-92162380D02*
X155400476Y-92876666D01*
X155352857Y-93019523D01*
X155257619Y-93114761D01*
X155114761Y-93162380D01*
X155019523Y-93162380D01*
X156400476Y-93162380D02*
X155829047Y-93162380D01*
X156114761Y-93162380D02*
X156114761Y-92162380D01*
X156019523Y-92305238D01*
X155924285Y-92400476D01*
X155829047Y-92448095D01*
X157019523Y-92162380D02*
X157114761Y-92162380D01*
X157210000Y-92210000D01*
X157257619Y-92257619D01*
X157305238Y-92352857D01*
X157352857Y-92543333D01*
X157352857Y-92781428D01*
X157305238Y-92971904D01*
X157257619Y-93067142D01*
X157210000Y-93114761D01*
X157114761Y-93162380D01*
X157019523Y-93162380D01*
X156924285Y-93114761D01*
X156876666Y-93067142D01*
X156829047Y-92971904D01*
X156781428Y-92781428D01*
X156781428Y-92543333D01*
X156829047Y-92352857D01*
X156876666Y-92257619D01*
X156924285Y-92210000D01*
X157019523Y-92162380D01*
D11*
X196384333Y-90744523D02*
X195961000Y-90139761D01*
X195658619Y-90744523D02*
X195658619Y-89474523D01*
X196142428Y-89474523D01*
X196263380Y-89535000D01*
X196323857Y-89595476D01*
X196384333Y-89716428D01*
X196384333Y-89897857D01*
X196323857Y-90018809D01*
X196263380Y-90079285D01*
X196142428Y-90139761D01*
X195658619Y-90139761D01*
X196807666Y-89474523D02*
X197593857Y-89474523D01*
X197170523Y-89958333D01*
X197351952Y-89958333D01*
X197472904Y-90018809D01*
X197533380Y-90079285D01*
X197593857Y-90200238D01*
X197593857Y-90502619D01*
X197533380Y-90623571D01*
X197472904Y-90684047D01*
X197351952Y-90744523D01*
X196989095Y-90744523D01*
X196868142Y-90684047D01*
X196807666Y-90623571D01*
D12*
X133622380Y-81922857D02*
X133146190Y-82256190D01*
X133622380Y-82494285D02*
X132622380Y-82494285D01*
X132622380Y-82113333D01*
X132670000Y-82018095D01*
X132717619Y-81970476D01*
X132812857Y-81922857D01*
X132955714Y-81922857D01*
X133050952Y-81970476D01*
X133098571Y-82018095D01*
X133146190Y-82113333D01*
X133146190Y-82494285D01*
X133622380Y-80970476D02*
X133622380Y-81541904D01*
X133622380Y-81256190D02*
X132622380Y-81256190D01*
X132765238Y-81351428D01*
X132860476Y-81446666D01*
X132908095Y-81541904D01*
X132622380Y-80637142D02*
X132622380Y-79970476D01*
X133622380Y-80399047D01*
D11*
X162759571Y-85664523D02*
X162336238Y-85059761D01*
X162033857Y-85664523D02*
X162033857Y-84394523D01*
X162517666Y-84394523D01*
X162638619Y-84455000D01*
X162699095Y-84515476D01*
X162759571Y-84636428D01*
X162759571Y-84817857D01*
X162699095Y-84938809D01*
X162638619Y-84999285D01*
X162517666Y-85059761D01*
X162033857Y-85059761D01*
X163969095Y-85664523D02*
X163243380Y-85664523D01*
X163606238Y-85664523D02*
X163606238Y-84394523D01*
X163485285Y-84575952D01*
X163364333Y-84696904D01*
X163243380Y-84757380D01*
X165118142Y-84394523D02*
X164513380Y-84394523D01*
X164452904Y-84999285D01*
X164513380Y-84938809D01*
X164634333Y-84878333D01*
X164936714Y-84878333D01*
X165057666Y-84938809D01*
X165118142Y-84999285D01*
X165178619Y-85120238D01*
X165178619Y-85422619D01*
X165118142Y-85543571D01*
X165057666Y-85604047D01*
X164936714Y-85664523D01*
X164634333Y-85664523D01*
X164513380Y-85604047D01*
X164452904Y-85543571D01*
X159288238Y-62804523D02*
X159288238Y-61534523D01*
X160618714Y-62683571D02*
X160558238Y-62744047D01*
X160376809Y-62804523D01*
X160255857Y-62804523D01*
X160074428Y-62744047D01*
X159953476Y-62623095D01*
X159893000Y-62502142D01*
X159832523Y-62260238D01*
X159832523Y-62078809D01*
X159893000Y-61836904D01*
X159953476Y-61715952D01*
X160074428Y-61595000D01*
X160255857Y-61534523D01*
X160376809Y-61534523D01*
X160558238Y-61595000D01*
X160618714Y-61655476D01*
X161102523Y-61655476D02*
X161163000Y-61595000D01*
X161283952Y-61534523D01*
X161586333Y-61534523D01*
X161707285Y-61595000D01*
X161767761Y-61655476D01*
X161828238Y-61776428D01*
X161828238Y-61897380D01*
X161767761Y-62078809D01*
X161042047Y-62804523D01*
X161828238Y-62804523D01*
D10*
X146073904Y-88082380D02*
X146073904Y-87082380D01*
X146312000Y-87082380D01*
X146454857Y-87130000D01*
X146550095Y-87225238D01*
X146597714Y-87320476D01*
X146645333Y-87510952D01*
X146645333Y-87653809D01*
X146597714Y-87844285D01*
X146550095Y-87939523D01*
X146454857Y-88034761D01*
X146312000Y-88082380D01*
X146073904Y-88082380D01*
X147597714Y-88082380D02*
X147026285Y-88082380D01*
X147312000Y-88082380D02*
X147312000Y-87082380D01*
X147216761Y-87225238D01*
X147121523Y-87320476D01*
X147026285Y-87368095D01*
D11*
X181652333Y-55825571D02*
X181591857Y-55886047D01*
X181410428Y-55946523D01*
X181289476Y-55946523D01*
X181108047Y-55886047D01*
X180987095Y-55765095D01*
X180926619Y-55644142D01*
X180866142Y-55402238D01*
X180866142Y-55220809D01*
X180926619Y-54978904D01*
X180987095Y-54857952D01*
X181108047Y-54737000D01*
X181289476Y-54676523D01*
X181410428Y-54676523D01*
X181591857Y-54737000D01*
X181652333Y-54797476D01*
X182861857Y-55946523D02*
X182136142Y-55946523D01*
X182499000Y-55946523D02*
X182499000Y-54676523D01*
X182378047Y-54857952D01*
X182257095Y-54978904D01*
X182136142Y-55039380D01*
D10*
X175887142Y-70207142D02*
X175839523Y-70254761D01*
X175696666Y-70302380D01*
X175601428Y-70302380D01*
X175458571Y-70254761D01*
X175363333Y-70159523D01*
X175315714Y-70064285D01*
X175268095Y-69873809D01*
X175268095Y-69730952D01*
X175315714Y-69540476D01*
X175363333Y-69445238D01*
X175458571Y-69350000D01*
X175601428Y-69302380D01*
X175696666Y-69302380D01*
X175839523Y-69350000D01*
X175887142Y-69397619D01*
X176839523Y-70302380D02*
X176268095Y-70302380D01*
X176553809Y-70302380D02*
X176553809Y-69302380D01*
X176458571Y-69445238D01*
X176363333Y-69540476D01*
X176268095Y-69588095D01*
X177744285Y-69302380D02*
X177268095Y-69302380D01*
X177220476Y-69778571D01*
X177268095Y-69730952D01*
X177363333Y-69683333D01*
X177601428Y-69683333D01*
X177696666Y-69730952D01*
X177744285Y-69778571D01*
X177791904Y-69873809D01*
X177791904Y-70111904D01*
X177744285Y-70207142D01*
X177696666Y-70254761D01*
X177601428Y-70302380D01*
X177363333Y-70302380D01*
X177268095Y-70254761D01*
X177220476Y-70207142D01*
D11*
X160219571Y-90744523D02*
X159796238Y-90139761D01*
X159493857Y-90744523D02*
X159493857Y-89474523D01*
X159977666Y-89474523D01*
X160098619Y-89535000D01*
X160159095Y-89595476D01*
X160219571Y-89716428D01*
X160219571Y-89897857D01*
X160159095Y-90018809D01*
X160098619Y-90079285D01*
X159977666Y-90139761D01*
X159493857Y-90139761D01*
X161429095Y-90744523D02*
X160703380Y-90744523D01*
X161066238Y-90744523D02*
X161066238Y-89474523D01*
X160945285Y-89655952D01*
X160824333Y-89776904D01*
X160703380Y-89837380D01*
X162517666Y-89474523D02*
X162275761Y-89474523D01*
X162154809Y-89535000D01*
X162094333Y-89595476D01*
X161973380Y-89776904D01*
X161912904Y-90018809D01*
X161912904Y-90502619D01*
X161973380Y-90623571D01*
X162033857Y-90684047D01*
X162154809Y-90744523D01*
X162396714Y-90744523D01*
X162517666Y-90684047D01*
X162578142Y-90623571D01*
X162638619Y-90502619D01*
X162638619Y-90200238D01*
X162578142Y-90079285D01*
X162517666Y-90018809D01*
X162396714Y-89958333D01*
X162154809Y-89958333D01*
X162033857Y-90018809D01*
X161973380Y-90079285D01*
X161912904Y-90200238D01*
X181144333Y-90744523D02*
X180721000Y-90139761D01*
X180418619Y-90744523D02*
X180418619Y-89474523D01*
X180902428Y-89474523D01*
X181023380Y-89535000D01*
X181083857Y-89595476D01*
X181144333Y-89716428D01*
X181144333Y-89897857D01*
X181083857Y-90018809D01*
X181023380Y-90079285D01*
X180902428Y-90139761D01*
X180418619Y-90139761D01*
X181749095Y-90744523D02*
X181991000Y-90744523D01*
X182111952Y-90684047D01*
X182172428Y-90623571D01*
X182293380Y-90442142D01*
X182353857Y-90200238D01*
X182353857Y-89716428D01*
X182293380Y-89595476D01*
X182232904Y-89535000D01*
X182111952Y-89474523D01*
X181870047Y-89474523D01*
X181749095Y-89535000D01*
X181688619Y-89595476D01*
X181628142Y-89716428D01*
X181628142Y-90018809D01*
X181688619Y-90139761D01*
X181749095Y-90200238D01*
X181870047Y-90260714D01*
X182111952Y-90260714D01*
X182232904Y-90200238D01*
X182293380Y-90139761D01*
X182353857Y-90018809D01*
X189018333Y-50745571D02*
X188957857Y-50806047D01*
X188776428Y-50866523D01*
X188655476Y-50866523D01*
X188474047Y-50806047D01*
X188353095Y-50685095D01*
X188292619Y-50564142D01*
X188232142Y-50322238D01*
X188232142Y-50140809D01*
X188292619Y-49898904D01*
X188353095Y-49777952D01*
X188474047Y-49657000D01*
X188655476Y-49596523D01*
X188776428Y-49596523D01*
X188957857Y-49657000D01*
X189018333Y-49717476D01*
X189441666Y-49596523D02*
X190227857Y-49596523D01*
X189804523Y-50080333D01*
X189985952Y-50080333D01*
X190106904Y-50140809D01*
X190167380Y-50201285D01*
X190227857Y-50322238D01*
X190227857Y-50624619D01*
X190167380Y-50745571D01*
X190106904Y-50806047D01*
X189985952Y-50866523D01*
X189623095Y-50866523D01*
X189502142Y-50806047D01*
X189441666Y-50745571D01*
X188764333Y-85664523D02*
X188341000Y-85059761D01*
X188038619Y-85664523D02*
X188038619Y-84394523D01*
X188522428Y-84394523D01*
X188643380Y-84455000D01*
X188703857Y-84515476D01*
X188764333Y-84636428D01*
X188764333Y-84817857D01*
X188703857Y-84938809D01*
X188643380Y-84999285D01*
X188522428Y-85059761D01*
X188038619Y-85059761D01*
X189852904Y-84394523D02*
X189611000Y-84394523D01*
X189490047Y-84455000D01*
X189429571Y-84515476D01*
X189308619Y-84696904D01*
X189248142Y-84938809D01*
X189248142Y-85422619D01*
X189308619Y-85543571D01*
X189369095Y-85604047D01*
X189490047Y-85664523D01*
X189731952Y-85664523D01*
X189852904Y-85604047D01*
X189913380Y-85543571D01*
X189973857Y-85422619D01*
X189973857Y-85120238D01*
X189913380Y-84999285D01*
X189852904Y-84938809D01*
X189731952Y-84878333D01*
X189490047Y-84878333D01*
X189369095Y-84938809D01*
X189308619Y-84999285D01*
X189248142Y-85120238D01*
X194763571Y-77415571D02*
X194703095Y-77476047D01*
X194521666Y-77536523D01*
X194400714Y-77536523D01*
X194219285Y-77476047D01*
X194098333Y-77355095D01*
X194037857Y-77234142D01*
X193977380Y-76992238D01*
X193977380Y-76810809D01*
X194037857Y-76568904D01*
X194098333Y-76447952D01*
X194219285Y-76327000D01*
X194400714Y-76266523D01*
X194521666Y-76266523D01*
X194703095Y-76327000D01*
X194763571Y-76387476D01*
X195973095Y-77536523D02*
X195247380Y-77536523D01*
X195610238Y-77536523D02*
X195610238Y-76266523D01*
X195489285Y-76447952D01*
X195368333Y-76568904D01*
X195247380Y-76629380D01*
X197182619Y-77536523D02*
X196456904Y-77536523D01*
X196819761Y-77536523D02*
X196819761Y-76266523D01*
X196698809Y-76447952D01*
X196577857Y-76568904D01*
X196456904Y-76629380D01*
D10*
X171823142Y-60047142D02*
X171775523Y-60094761D01*
X171632666Y-60142380D01*
X171537428Y-60142380D01*
X171394571Y-60094761D01*
X171299333Y-59999523D01*
X171251714Y-59904285D01*
X171204095Y-59713809D01*
X171204095Y-59570952D01*
X171251714Y-59380476D01*
X171299333Y-59285238D01*
X171394571Y-59190000D01*
X171537428Y-59142380D01*
X171632666Y-59142380D01*
X171775523Y-59190000D01*
X171823142Y-59237619D01*
X172204095Y-59237619D02*
X172251714Y-59190000D01*
X172346952Y-59142380D01*
X172585047Y-59142380D01*
X172680285Y-59190000D01*
X172727904Y-59237619D01*
X172775523Y-59332857D01*
X172775523Y-59428095D01*
X172727904Y-59570952D01*
X172156476Y-60142380D01*
X172775523Y-60142380D01*
X173727904Y-60142380D02*
X173156476Y-60142380D01*
X173442190Y-60142380D02*
X173442190Y-59142380D01*
X173346952Y-59285238D01*
X173251714Y-59380476D01*
X173156476Y-59428095D01*
X161917142Y-69445142D02*
X161869523Y-69492761D01*
X161726666Y-69540380D01*
X161631428Y-69540380D01*
X161488571Y-69492761D01*
X161393333Y-69397523D01*
X161345714Y-69302285D01*
X161298095Y-69111809D01*
X161298095Y-68968952D01*
X161345714Y-68778476D01*
X161393333Y-68683238D01*
X161488571Y-68588000D01*
X161631428Y-68540380D01*
X161726666Y-68540380D01*
X161869523Y-68588000D01*
X161917142Y-68635619D01*
X162298095Y-68635619D02*
X162345714Y-68588000D01*
X162440952Y-68540380D01*
X162679047Y-68540380D01*
X162774285Y-68588000D01*
X162821904Y-68635619D01*
X162869523Y-68730857D01*
X162869523Y-68826095D01*
X162821904Y-68968952D01*
X162250476Y-69540380D01*
X162869523Y-69540380D01*
X163488571Y-68540380D02*
X163583809Y-68540380D01*
X163679047Y-68588000D01*
X163726666Y-68635619D01*
X163774285Y-68730857D01*
X163821904Y-68921333D01*
X163821904Y-69159428D01*
X163774285Y-69349904D01*
X163726666Y-69445142D01*
X163679047Y-69492761D01*
X163583809Y-69540380D01*
X163488571Y-69540380D01*
X163393333Y-69492761D01*
X163345714Y-69445142D01*
X163298095Y-69349904D01*
X163250476Y-69159428D01*
X163250476Y-68921333D01*
X163298095Y-68730857D01*
X163345714Y-68635619D01*
X163393333Y-68588000D01*
X163488571Y-68540380D01*
D11*
X201464333Y-90744523D02*
X201041000Y-90139761D01*
X200738619Y-90744523D02*
X200738619Y-89474523D01*
X201222428Y-89474523D01*
X201343380Y-89535000D01*
X201403857Y-89595476D01*
X201464333Y-89716428D01*
X201464333Y-89897857D01*
X201403857Y-90018809D01*
X201343380Y-90079285D01*
X201222428Y-90139761D01*
X200738619Y-90139761D01*
X202673857Y-90744523D02*
X201948142Y-90744523D01*
X202311000Y-90744523D02*
X202311000Y-89474523D01*
X202190047Y-89655952D01*
X202069095Y-89776904D01*
X201948142Y-89837380D01*
X202988333Y-72081571D02*
X202927857Y-72142047D01*
X202746428Y-72202523D01*
X202625476Y-72202523D01*
X202444047Y-72142047D01*
X202323095Y-72021095D01*
X202262619Y-71900142D01*
X202202142Y-71658238D01*
X202202142Y-71476809D01*
X202262619Y-71234904D01*
X202323095Y-71113952D01*
X202444047Y-70993000D01*
X202625476Y-70932523D01*
X202746428Y-70932523D01*
X202927857Y-70993000D01*
X202988333Y-71053476D01*
X203593095Y-72202523D02*
X203835000Y-72202523D01*
X203955952Y-72142047D01*
X204016428Y-72081571D01*
X204137380Y-71900142D01*
X204197857Y-71658238D01*
X204197857Y-71174428D01*
X204137380Y-71053476D01*
X204076904Y-70993000D01*
X203955952Y-70932523D01*
X203714047Y-70932523D01*
X203593095Y-70993000D01*
X203532619Y-71053476D01*
X203472142Y-71174428D01*
X203472142Y-71476809D01*
X203532619Y-71597761D01*
X203593095Y-71658238D01*
X203714047Y-71718714D01*
X203955952Y-71718714D01*
X204076904Y-71658238D01*
X204137380Y-71597761D01*
X204197857Y-71476809D01*
D10*
X172839142Y-63603142D02*
X172791523Y-63650761D01*
X172648666Y-63698380D01*
X172553428Y-63698380D01*
X172410571Y-63650761D01*
X172315333Y-63555523D01*
X172267714Y-63460285D01*
X172220095Y-63269809D01*
X172220095Y-63126952D01*
X172267714Y-62936476D01*
X172315333Y-62841238D01*
X172410571Y-62746000D01*
X172553428Y-62698380D01*
X172648666Y-62698380D01*
X172791523Y-62746000D01*
X172839142Y-62793619D01*
X173791523Y-63698380D02*
X173220095Y-63698380D01*
X173505809Y-63698380D02*
X173505809Y-62698380D01*
X173410571Y-62841238D01*
X173315333Y-62936476D01*
X173220095Y-62984095D01*
X174362952Y-63126952D02*
X174267714Y-63079333D01*
X174220095Y-63031714D01*
X174172476Y-62936476D01*
X174172476Y-62888857D01*
X174220095Y-62793619D01*
X174267714Y-62746000D01*
X174362952Y-62698380D01*
X174553428Y-62698380D01*
X174648666Y-62746000D01*
X174696285Y-62793619D01*
X174743904Y-62888857D01*
X174743904Y-62936476D01*
X174696285Y-63031714D01*
X174648666Y-63079333D01*
X174553428Y-63126952D01*
X174362952Y-63126952D01*
X174267714Y-63174571D01*
X174220095Y-63222190D01*
X174172476Y-63317428D01*
X174172476Y-63507904D01*
X174220095Y-63603142D01*
X174267714Y-63650761D01*
X174362952Y-63698380D01*
X174553428Y-63698380D01*
X174648666Y-63650761D01*
X174696285Y-63603142D01*
X174743904Y-63507904D01*
X174743904Y-63317428D01*
X174696285Y-63222190D01*
X174648666Y-63174571D01*
X174553428Y-63126952D01*
D11*
X195102238Y-56962523D02*
X195102238Y-55692523D01*
X196432714Y-56841571D02*
X196372238Y-56902047D01*
X196190809Y-56962523D01*
X196069857Y-56962523D01*
X195888428Y-56902047D01*
X195767476Y-56781095D01*
X195707000Y-56660142D01*
X195646523Y-56418238D01*
X195646523Y-56236809D01*
X195707000Y-55994904D01*
X195767476Y-55873952D01*
X195888428Y-55753000D01*
X196069857Y-55692523D01*
X196190809Y-55692523D01*
X196372238Y-55753000D01*
X196432714Y-55813476D01*
X197642238Y-56962523D02*
X196916523Y-56962523D01*
X197279380Y-56962523D02*
X197279380Y-55692523D01*
X197158428Y-55873952D01*
X197037476Y-55994904D01*
X196916523Y-56055380D01*
X199631904Y-93538523D02*
X199631904Y-94445666D01*
X199571428Y-94627095D01*
X199450476Y-94748047D01*
X199269047Y-94808523D01*
X199148095Y-94808523D01*
X200901904Y-94808523D02*
X200176190Y-94808523D01*
X200539047Y-94808523D02*
X200539047Y-93538523D01*
X200418095Y-93719952D01*
X200297142Y-93840904D01*
X200176190Y-93901380D01*
X201385714Y-93659476D02*
X201446190Y-93599000D01*
X201567142Y-93538523D01*
X201869523Y-93538523D01*
X201990476Y-93599000D01*
X202050952Y-93659476D01*
X202111428Y-93780428D01*
X202111428Y-93901380D01*
X202050952Y-94082809D01*
X201325238Y-94808523D01*
X202111428Y-94808523D01*
X199178333Y-60651571D02*
X199117857Y-60712047D01*
X198936428Y-60772523D01*
X198815476Y-60772523D01*
X198634047Y-60712047D01*
X198513095Y-60591095D01*
X198452619Y-60470142D01*
X198392142Y-60228238D01*
X198392142Y-60046809D01*
X198452619Y-59804904D01*
X198513095Y-59683952D01*
X198634047Y-59563000D01*
X198815476Y-59502523D01*
X198936428Y-59502523D01*
X199117857Y-59563000D01*
X199178333Y-59623476D01*
X200266904Y-59502523D02*
X200025000Y-59502523D01*
X199904047Y-59563000D01*
X199843571Y-59623476D01*
X199722619Y-59804904D01*
X199662142Y-60046809D01*
X199662142Y-60530619D01*
X199722619Y-60651571D01*
X199783095Y-60712047D01*
X199904047Y-60772523D01*
X200145952Y-60772523D01*
X200266904Y-60712047D01*
X200327380Y-60651571D01*
X200387857Y-60530619D01*
X200387857Y-60228238D01*
X200327380Y-60107285D01*
X200266904Y-60046809D01*
X200145952Y-59986333D01*
X199904047Y-59986333D01*
X199783095Y-60046809D01*
X199722619Y-60107285D01*
X199662142Y-60228238D01*
D10*
X168013142Y-56237142D02*
X167965523Y-56284761D01*
X167822666Y-56332380D01*
X167727428Y-56332380D01*
X167584571Y-56284761D01*
X167489333Y-56189523D01*
X167441714Y-56094285D01*
X167394095Y-55903809D01*
X167394095Y-55760952D01*
X167441714Y-55570476D01*
X167489333Y-55475238D01*
X167584571Y-55380000D01*
X167727428Y-55332380D01*
X167822666Y-55332380D01*
X167965523Y-55380000D01*
X168013142Y-55427619D01*
X168965523Y-56332380D02*
X168394095Y-56332380D01*
X168679809Y-56332380D02*
X168679809Y-55332380D01*
X168584571Y-55475238D01*
X168489333Y-55570476D01*
X168394095Y-55618095D01*
X169298857Y-55332380D02*
X169965523Y-55332380D01*
X169536952Y-56332380D01*
D11*
X179523571Y-77415571D02*
X179463095Y-77476047D01*
X179281666Y-77536523D01*
X179160714Y-77536523D01*
X178979285Y-77476047D01*
X178858333Y-77355095D01*
X178797857Y-77234142D01*
X178737380Y-76992238D01*
X178737380Y-76810809D01*
X178797857Y-76568904D01*
X178858333Y-76447952D01*
X178979285Y-76327000D01*
X179160714Y-76266523D01*
X179281666Y-76266523D01*
X179463095Y-76327000D01*
X179523571Y-76387476D01*
X180733095Y-77536523D02*
X180007380Y-77536523D01*
X180370238Y-77536523D02*
X180370238Y-76266523D01*
X180249285Y-76447952D01*
X180128333Y-76568904D01*
X180007380Y-76629380D01*
X181821666Y-76689857D02*
X181821666Y-77536523D01*
X181519285Y-76206047D02*
X181216904Y-77113190D01*
X182003095Y-77113190D01*
D10*
X122451904Y-91638380D02*
X122451904Y-90638380D01*
X122690000Y-90638380D01*
X122832857Y-90686000D01*
X122928095Y-90781238D01*
X122975714Y-90876476D01*
X123023333Y-91066952D01*
X123023333Y-91209809D01*
X122975714Y-91400285D01*
X122928095Y-91495523D01*
X122832857Y-91590761D01*
X122690000Y-91638380D01*
X122451904Y-91638380D01*
X123404285Y-90733619D02*
X123451904Y-90686000D01*
X123547142Y-90638380D01*
X123785238Y-90638380D01*
X123880476Y-90686000D01*
X123928095Y-90733619D01*
X123975714Y-90828857D01*
X123975714Y-90924095D01*
X123928095Y-91066952D01*
X123356666Y-91638380D01*
X123975714Y-91638380D01*
X177157142Y-63095142D02*
X177109523Y-63142761D01*
X176966666Y-63190380D01*
X176871428Y-63190380D01*
X176728571Y-63142761D01*
X176633333Y-63047523D01*
X176585714Y-62952285D01*
X176538095Y-62761809D01*
X176538095Y-62618952D01*
X176585714Y-62428476D01*
X176633333Y-62333238D01*
X176728571Y-62238000D01*
X176871428Y-62190380D01*
X176966666Y-62190380D01*
X177109523Y-62238000D01*
X177157142Y-62285619D01*
X178109523Y-63190380D02*
X177538095Y-63190380D01*
X177823809Y-63190380D02*
X177823809Y-62190380D01*
X177728571Y-62333238D01*
X177633333Y-62428476D01*
X177538095Y-62476095D01*
X178966666Y-62190380D02*
X178776190Y-62190380D01*
X178680952Y-62238000D01*
X178633333Y-62285619D01*
X178538095Y-62428476D01*
X178490476Y-62618952D01*
X178490476Y-62999904D01*
X178538095Y-63095142D01*
X178585714Y-63142761D01*
X178680952Y-63190380D01*
X178871428Y-63190380D01*
X178966666Y-63142761D01*
X179014285Y-63095142D01*
X179061904Y-62999904D01*
X179061904Y-62761809D01*
X179014285Y-62666571D01*
X178966666Y-62618952D01*
X178871428Y-62571333D01*
X178680952Y-62571333D01*
X178585714Y-62618952D01*
X178538095Y-62666571D01*
X178490476Y-62761809D01*
D11*
X165299571Y-90744523D02*
X164876238Y-90139761D01*
X164573857Y-90744523D02*
X164573857Y-89474523D01*
X165057666Y-89474523D01*
X165178619Y-89535000D01*
X165239095Y-89595476D01*
X165299571Y-89716428D01*
X165299571Y-89897857D01*
X165239095Y-90018809D01*
X165178619Y-90079285D01*
X165057666Y-90139761D01*
X164573857Y-90139761D01*
X166509095Y-90744523D02*
X165783380Y-90744523D01*
X166146238Y-90744523D02*
X166146238Y-89474523D01*
X166025285Y-89655952D01*
X165904333Y-89776904D01*
X165783380Y-89837380D01*
X167597666Y-89897857D02*
X167597666Y-90744523D01*
X167295285Y-89414047D02*
X166992904Y-90321190D01*
X167779095Y-90321190D01*
X198573571Y-73351571D02*
X198513095Y-73412047D01*
X198331666Y-73472523D01*
X198210714Y-73472523D01*
X198029285Y-73412047D01*
X197908333Y-73291095D01*
X197847857Y-73170142D01*
X197787380Y-72928238D01*
X197787380Y-72746809D01*
X197847857Y-72504904D01*
X197908333Y-72383952D01*
X198029285Y-72263000D01*
X198210714Y-72202523D01*
X198331666Y-72202523D01*
X198513095Y-72263000D01*
X198573571Y-72323476D01*
X199783095Y-73472523D02*
X199057380Y-73472523D01*
X199420238Y-73472523D02*
X199420238Y-72202523D01*
X199299285Y-72383952D01*
X199178333Y-72504904D01*
X199057380Y-72565380D01*
X200569285Y-72202523D02*
X200690238Y-72202523D01*
X200811190Y-72263000D01*
X200871666Y-72323476D01*
X200932142Y-72444428D01*
X200992619Y-72686333D01*
X200992619Y-72988714D01*
X200932142Y-73230619D01*
X200871666Y-73351571D01*
X200811190Y-73412047D01*
X200690238Y-73472523D01*
X200569285Y-73472523D01*
X200448333Y-73412047D01*
X200387857Y-73351571D01*
X200327380Y-73230619D01*
X200266904Y-72988714D01*
X200266904Y-72686333D01*
X200327380Y-72444428D01*
X200387857Y-72323476D01*
X200448333Y-72263000D01*
X200569285Y-72202523D01*
X198670333Y-53793571D02*
X198609857Y-53854047D01*
X198428428Y-53914523D01*
X198307476Y-53914523D01*
X198126047Y-53854047D01*
X198005095Y-53733095D01*
X197944619Y-53612142D01*
X197884142Y-53370238D01*
X197884142Y-53188809D01*
X197944619Y-52946904D01*
X198005095Y-52825952D01*
X198126047Y-52705000D01*
X198307476Y-52644523D01*
X198428428Y-52644523D01*
X198609857Y-52705000D01*
X198670333Y-52765476D01*
X199819380Y-52644523D02*
X199214619Y-52644523D01*
X199154142Y-53249285D01*
X199214619Y-53188809D01*
X199335571Y-53128333D01*
X199637952Y-53128333D01*
X199758904Y-53188809D01*
X199819380Y-53249285D01*
X199879857Y-53370238D01*
X199879857Y-53672619D01*
X199819380Y-53793571D01*
X199758904Y-53854047D01*
X199637952Y-53914523D01*
X199335571Y-53914523D01*
X199214619Y-53854047D01*
X199154142Y-53793571D01*
X170379571Y-90744523D02*
X169956238Y-90139761D01*
X169653857Y-90744523D02*
X169653857Y-89474523D01*
X170137666Y-89474523D01*
X170258619Y-89535000D01*
X170319095Y-89595476D01*
X170379571Y-89716428D01*
X170379571Y-89897857D01*
X170319095Y-90018809D01*
X170258619Y-90079285D01*
X170137666Y-90139761D01*
X169653857Y-90139761D01*
X171589095Y-90744523D02*
X170863380Y-90744523D01*
X171226238Y-90744523D02*
X171226238Y-89474523D01*
X171105285Y-89655952D01*
X170984333Y-89776904D01*
X170863380Y-89837380D01*
X172072904Y-89595476D02*
X172133380Y-89535000D01*
X172254333Y-89474523D01*
X172556714Y-89474523D01*
X172677666Y-89535000D01*
X172738142Y-89595476D01*
X172798619Y-89716428D01*
X172798619Y-89837380D01*
X172738142Y-90018809D01*
X172012428Y-90744523D01*
X172798619Y-90744523D01*
X202988333Y-61921571D02*
X202927857Y-61982047D01*
X202746428Y-62042523D01*
X202625476Y-62042523D01*
X202444047Y-61982047D01*
X202323095Y-61861095D01*
X202262619Y-61740142D01*
X202202142Y-61498238D01*
X202202142Y-61316809D01*
X202262619Y-61074904D01*
X202323095Y-60953952D01*
X202444047Y-60833000D01*
X202625476Y-60772523D01*
X202746428Y-60772523D01*
X202927857Y-60833000D01*
X202988333Y-60893476D01*
X203411666Y-60772523D02*
X204258333Y-60772523D01*
X203714047Y-62042523D01*
X156252333Y-83765571D02*
X156191857Y-83826047D01*
X156010428Y-83886523D01*
X155889476Y-83886523D01*
X155708047Y-83826047D01*
X155587095Y-83705095D01*
X155526619Y-83584142D01*
X155466142Y-83342238D01*
X155466142Y-83160809D01*
X155526619Y-82918904D01*
X155587095Y-82797952D01*
X155708047Y-82677000D01*
X155889476Y-82616523D01*
X156010428Y-82616523D01*
X156191857Y-82677000D01*
X156252333Y-82737476D01*
X157038523Y-82616523D02*
X157159476Y-82616523D01*
X157280428Y-82677000D01*
X157340904Y-82737476D01*
X157401380Y-82858428D01*
X157461857Y-83100333D01*
X157461857Y-83402714D01*
X157401380Y-83644619D01*
X157340904Y-83765571D01*
X157280428Y-83826047D01*
X157159476Y-83886523D01*
X157038523Y-83886523D01*
X156917571Y-83826047D01*
X156857095Y-83765571D01*
X156796619Y-83644619D01*
X156736142Y-83402714D01*
X156736142Y-83100333D01*
X156796619Y-82858428D01*
X156857095Y-82737476D01*
X156917571Y-82677000D01*
X157038523Y-82616523D01*
D10*
X172077142Y-71985142D02*
X172029523Y-72032761D01*
X171886666Y-72080380D01*
X171791428Y-72080380D01*
X171648571Y-72032761D01*
X171553333Y-71937523D01*
X171505714Y-71842285D01*
X171458095Y-71651809D01*
X171458095Y-71508952D01*
X171505714Y-71318476D01*
X171553333Y-71223238D01*
X171648571Y-71128000D01*
X171791428Y-71080380D01*
X171886666Y-71080380D01*
X172029523Y-71128000D01*
X172077142Y-71175619D01*
X173029523Y-72080380D02*
X172458095Y-72080380D01*
X172743809Y-72080380D02*
X172743809Y-71080380D01*
X172648571Y-71223238D01*
X172553333Y-71318476D01*
X172458095Y-71366095D01*
X173505714Y-72080380D02*
X173696190Y-72080380D01*
X173791428Y-72032761D01*
X173839047Y-71985142D01*
X173934285Y-71842285D01*
X173981904Y-71651809D01*
X173981904Y-71270857D01*
X173934285Y-71175619D01*
X173886666Y-71128000D01*
X173791428Y-71080380D01*
X173600952Y-71080380D01*
X173505714Y-71128000D01*
X173458095Y-71175619D01*
X173410476Y-71270857D01*
X173410476Y-71508952D01*
X173458095Y-71604190D01*
X173505714Y-71651809D01*
X173600952Y-71699428D01*
X173791428Y-71699428D01*
X173886666Y-71651809D01*
X173934285Y-71604190D01*
X173981904Y-71508952D01*
D12*
X119840476Y-81792380D02*
X119840476Y-82506666D01*
X119792857Y-82649523D01*
X119697619Y-82744761D01*
X119554761Y-82792380D01*
X119459523Y-82792380D01*
X120840476Y-82792380D02*
X120269047Y-82792380D01*
X120554761Y-82792380D02*
X120554761Y-81792380D01*
X120459523Y-81935238D01*
X120364285Y-82030476D01*
X120269047Y-82078095D01*
X121411904Y-82220952D02*
X121316666Y-82173333D01*
X121269047Y-82125714D01*
X121221428Y-82030476D01*
X121221428Y-81982857D01*
X121269047Y-81887619D01*
X121316666Y-81840000D01*
X121411904Y-81792380D01*
X121602380Y-81792380D01*
X121697619Y-81840000D01*
X121745238Y-81887619D01*
X121792857Y-81982857D01*
X121792857Y-82030476D01*
X121745238Y-82125714D01*
X121697619Y-82173333D01*
X121602380Y-82220952D01*
X121411904Y-82220952D01*
X121316666Y-82268571D01*
X121269047Y-82316190D01*
X121221428Y-82411428D01*
X121221428Y-82601904D01*
X121269047Y-82697142D01*
X121316666Y-82744761D01*
X121411904Y-82792380D01*
X121602380Y-82792380D01*
X121697619Y-82744761D01*
X121745238Y-82697142D01*
X121792857Y-82601904D01*
X121792857Y-82411428D01*
X121745238Y-82316190D01*
X121697619Y-82268571D01*
X121602380Y-82220952D01*
D11*
X200448333Y-67001571D02*
X200387857Y-67062047D01*
X200206428Y-67122523D01*
X200085476Y-67122523D01*
X199904047Y-67062047D01*
X199783095Y-66941095D01*
X199722619Y-66820142D01*
X199662142Y-66578238D01*
X199662142Y-66396809D01*
X199722619Y-66154904D01*
X199783095Y-66033952D01*
X199904047Y-65913000D01*
X200085476Y-65852523D01*
X200206428Y-65852523D01*
X200387857Y-65913000D01*
X200448333Y-65973476D01*
X201174047Y-66396809D02*
X201053095Y-66336333D01*
X200992619Y-66275857D01*
X200932142Y-66154904D01*
X200932142Y-66094428D01*
X200992619Y-65973476D01*
X201053095Y-65913000D01*
X201174047Y-65852523D01*
X201415952Y-65852523D01*
X201536904Y-65913000D01*
X201597380Y-65973476D01*
X201657857Y-66094428D01*
X201657857Y-66154904D01*
X201597380Y-66275857D01*
X201536904Y-66336333D01*
X201415952Y-66396809D01*
X201174047Y-66396809D01*
X201053095Y-66457285D01*
X200992619Y-66517761D01*
X200932142Y-66638714D01*
X200932142Y-66880619D01*
X200992619Y-67001571D01*
X201053095Y-67062047D01*
X201174047Y-67122523D01*
X201415952Y-67122523D01*
X201536904Y-67062047D01*
X201597380Y-67001571D01*
X201657857Y-66880619D01*
X201657857Y-66638714D01*
X201597380Y-66517761D01*
X201536904Y-66457285D01*
X201415952Y-66396809D01*
X129781904Y-98872523D02*
X129781904Y-99779666D01*
X129721428Y-99961095D01*
X129600476Y-100082047D01*
X129419047Y-100142523D01*
X129298095Y-100142523D01*
X131051904Y-100142523D02*
X130326190Y-100142523D01*
X130689047Y-100142523D02*
X130689047Y-98872523D01*
X130568095Y-99053952D01*
X130447142Y-99174904D01*
X130326190Y-99235380D01*
X132140476Y-98872523D02*
X131898571Y-98872523D01*
X131777619Y-98933000D01*
X131717142Y-98993476D01*
X131596190Y-99174904D01*
X131535714Y-99416809D01*
X131535714Y-99900619D01*
X131596190Y-100021571D01*
X131656666Y-100082047D01*
X131777619Y-100142523D01*
X132019523Y-100142523D01*
X132140476Y-100082047D01*
X132200952Y-100021571D01*
X132261428Y-99900619D01*
X132261428Y-99598238D01*
X132200952Y-99477285D01*
X132140476Y-99416809D01*
X132019523Y-99356333D01*
X131777619Y-99356333D01*
X131656666Y-99416809D01*
X131596190Y-99477285D01*
X131535714Y-99598238D01*
X181144333Y-50237571D02*
X181083857Y-50298047D01*
X180902428Y-50358523D01*
X180781476Y-50358523D01*
X180600047Y-50298047D01*
X180479095Y-50177095D01*
X180418619Y-50056142D01*
X180358142Y-49814238D01*
X180358142Y-49632809D01*
X180418619Y-49390904D01*
X180479095Y-49269952D01*
X180600047Y-49149000D01*
X180781476Y-49088523D01*
X180902428Y-49088523D01*
X181083857Y-49149000D01*
X181144333Y-49209476D01*
X181628142Y-49209476D02*
X181688619Y-49149000D01*
X181809571Y-49088523D01*
X182111952Y-49088523D01*
X182232904Y-49149000D01*
X182293380Y-49209476D01*
X182353857Y-49330428D01*
X182353857Y-49451380D01*
X182293380Y-49632809D01*
X181567666Y-50358523D01*
X182353857Y-50358523D01*
D13*
X170880000Y-66040000D02*
X169480000Y-66040000D01*
X190500000Y-75630000D02*
X190500000Y-74230000D01*
X194106000Y-81229000D02*
G75*
G03*
X194106000Y-81229000I-50000J0D01*
G01*
D14*
X121980000Y-88960000D02*
X120650000Y-88960000D01*
X121980000Y-83760000D02*
X119320000Y-83760000D01*
X121980000Y-86360000D02*
X119320000Y-86360000D01*
X121980000Y-87630000D02*
X121980000Y-88960000D01*
X121980000Y-86360000D02*
X121980000Y-83760000D01*
X119320000Y-86360000D02*
X119320000Y-83760000D01*
D13*
X168706000Y-81229000D02*
G75*
G03*
X168706000Y-81229000I-50000J0D01*
G01*
X185420000Y-75630000D02*
X185420000Y-74230000D01*
D14*
X131940000Y-46860000D02*
X139820000Y-46860000D01*
X142230000Y-87630000D02*
X142230000Y-52070000D01*
X129530000Y-52070000D02*
X126860000Y-52070000D01*
X126860000Y-92840000D02*
X144900000Y-92840000D01*
X129530000Y-90170000D02*
X126860000Y-90170000D01*
X142230000Y-87630000D02*
X142230000Y-90170000D01*
X126860000Y-49400000D02*
X126860000Y-92840000D01*
X142230000Y-87630000D02*
X144900000Y-87630000D01*
X139820000Y-46860000D02*
X139820000Y-57280000D01*
X131940000Y-57280000D02*
X131940000Y-46860000D01*
X139820000Y-57280000D02*
X131940000Y-57280000D01*
X144900000Y-92840000D02*
X144900000Y-90170000D01*
X129530000Y-90170000D02*
X129530000Y-52070000D01*
X144900000Y-49400000D02*
X139820000Y-49400000D01*
X144900000Y-87630000D02*
X144900000Y-49400000D01*
X126860000Y-49400000D02*
X131940000Y-49400000D01*
X142230000Y-90170000D02*
X144900000Y-90170000D01*
X142230000Y-52070000D02*
X144900000Y-52070000D01*
D13*
X137230000Y-100711000D02*
X144700000Y-100711000D01*
X143510000Y-94361000D02*
X137230000Y-94361000D01*
X137230000Y-94361000D02*
X137230000Y-100711000D01*
X144700000Y-100711000D02*
X144700000Y-97461000D01*
X178866000Y-81229000D02*
G75*
G03*
X178866000Y-81229000I-50000J0D01*
G01*
X183946000Y-81229000D02*
G75*
G03*
X183946000Y-81229000I-50000J0D01*
G01*
D14*
X152460000Y-65980000D02*
X149800000Y-65980000D01*
X152460000Y-81340000D02*
X151130000Y-81340000D01*
X152460000Y-78740000D02*
X152460000Y-65980000D01*
X149800000Y-78740000D02*
X149800000Y-65980000D01*
X152460000Y-80010000D02*
X152460000Y-81340000D01*
X152460000Y-78740000D02*
X149800000Y-78740000D01*
D13*
X186486000Y-86309000D02*
G75*
G03*
X186486000Y-86309000I-50000J0D01*
G01*
X168165000Y-66040000D02*
X167115000Y-66040000D01*
X199186000Y-81229000D02*
G75*
G03*
X199186000Y-81229000I-50000J0D01*
G01*
D14*
X119320000Y-57150000D02*
X119320000Y-55820000D01*
X121980000Y-58420000D02*
X121980000Y-73720000D01*
X119320000Y-73720000D02*
X121980000Y-73720000D01*
X119320000Y-58420000D02*
X119320000Y-73720000D01*
X119320000Y-58420000D02*
X121980000Y-58420000D01*
X119320000Y-55820000D02*
X120650000Y-55820000D01*
D13*
X172670000Y-95548000D02*
X172670000Y-98098000D01*
X160070000Y-101048000D02*
X160070000Y-95548000D01*
X170520000Y-101048000D02*
X160070000Y-101048000D01*
X160070000Y-95548000D02*
X172670000Y-95548000D01*
X176326000Y-86309000D02*
G75*
G03*
X176326000Y-86309000I-50000J0D01*
G01*
X193802000Y-50484000D02*
X193802000Y-49084000D01*
X191566000Y-86309000D02*
G75*
G03*
X191566000Y-86309000I-50000J0D01*
G01*
D14*
X147320000Y-101092000D02*
X157480000Y-101092000D01*
X157480000Y-93472000D02*
X147320000Y-93472000D01*
X147320000Y-93472000D02*
X147320000Y-101092000D01*
X157480000Y-99822000D02*
X147320000Y-99822000D01*
X157480000Y-101092000D02*
X157480000Y-93472000D01*
D13*
X196646000Y-86309000D02*
G75*
G03*
X196646000Y-86309000I-50000J0D01*
G01*
D14*
X135890000Y-86590000D02*
X135890000Y-85900000D01*
X135890000Y-75970000D02*
X135890000Y-76660000D01*
X134170000Y-76660000D02*
X134170000Y-85900000D01*
X137610000Y-76660000D02*
X134170000Y-76660000D01*
X134170000Y-85900000D02*
X137610000Y-85900000D01*
X137610000Y-85900000D02*
X137610000Y-76660000D01*
D13*
X163626000Y-81229000D02*
G75*
G03*
X163626000Y-81229000I-50000J0D01*
G01*
X161156000Y-58190000D02*
X163456000Y-58190000D01*
X163456000Y-61190000D02*
X161156000Y-61190000D01*
X165206000Y-61190000D02*
X163806000Y-61190000D01*
X163456000Y-58190000D02*
X163456000Y-61190000D01*
X161156000Y-61190000D02*
X161156000Y-58190000D01*
X149215000Y-85905000D02*
X149215000Y-88480000D01*
X147965000Y-86780000D02*
X147965000Y-88480000D01*
X181864000Y-52640000D02*
X181864000Y-54040000D01*
X178370000Y-69850000D02*
X179770000Y-69850000D01*
X161086000Y-86309000D02*
G75*
G03*
X161086000Y-86309000I-50000J0D01*
G01*
X181406000Y-86309000D02*
G75*
G03*
X181406000Y-86309000I-50000J0D01*
G01*
X189230000Y-53024000D02*
X189230000Y-51624000D01*
X189026000Y-81229000D02*
G75*
G03*
X189026000Y-81229000I-50000J0D01*
G01*
X195580000Y-74230000D02*
X195580000Y-75630000D01*
X163260000Y-66040000D02*
X161860000Y-66040000D01*
X201726000Y-86309000D02*
G75*
G03*
X201726000Y-86309000I-50000J0D01*
G01*
X203900000Y-68580000D02*
X202500000Y-68580000D01*
X172020000Y-66040000D02*
X173420000Y-66040000D01*
X183580000Y-57596000D02*
X194880000Y-57596000D01*
X194880000Y-57596000D02*
X194880000Y-68896000D01*
X183580000Y-68896000D02*
X183580000Y-57596000D01*
X194880000Y-68896000D02*
X183580000Y-68896000D01*
D10*
X182130000Y-57746000D02*
G75*
G03*
X182130000Y-57746000I-125000J0D01*
G01*
D15*
X202302000Y-100794000D02*
X202302000Y-95294000D01*
X202302000Y-95294000D02*
X176002000Y-95294000D01*
X176002000Y-95294000D02*
X176002000Y-100794000D01*
X176002000Y-100794000D02*
X202302000Y-100794000D01*
X202652000Y-98244000D02*
X202652000Y-98244000D01*
X202552000Y-98244000D02*
X202552000Y-98244000D01*
X202652000Y-98244000D02*
G75*
G03*
X202552000Y-98244000I-50000J0D01*
G01*
X202552000Y-98244000D02*
G75*
G03*
X202652000Y-98244000I50000J0D01*
G01*
D13*
X200090000Y-57150000D02*
X198690000Y-57150000D01*
X170750000Y-55880000D02*
X172150000Y-55880000D01*
X180340000Y-75630000D02*
X180340000Y-74230000D01*
X122340000Y-93335000D02*
X124040000Y-93335000D01*
X121465000Y-92085000D02*
X124040000Y-92085000D01*
X177800000Y-65470000D02*
X177800000Y-64070000D01*
X166166000Y-86309000D02*
G75*
G03*
X166166000Y-86309000I-50000J0D01*
G01*
X200090000Y-69850000D02*
X198690000Y-69850000D01*
X195580000Y-54040000D02*
X195580000Y-52640000D01*
X171246000Y-86309000D02*
G75*
G03*
X171246000Y-86309000I-50000J0D01*
G01*
X203900000Y-58420000D02*
X202500000Y-58420000D01*
X158340000Y-87650000D02*
G75*
G03*
X158340000Y-87650000I-3400000J0D01*
G01*
D14*
X121980000Y-80010000D02*
X121980000Y-81340000D01*
X121980000Y-78740000D02*
X121980000Y-76140000D01*
X121980000Y-81340000D02*
X120650000Y-81340000D01*
X121980000Y-76140000D02*
X119320000Y-76140000D01*
X121980000Y-78740000D02*
X119320000Y-78740000D01*
X119320000Y-78740000D02*
X119320000Y-76140000D01*
D13*
X201360000Y-63500000D02*
X199960000Y-63500000D01*
X127070000Y-94361000D02*
X127070000Y-100711000D01*
X134540000Y-100711000D02*
X134540000Y-97461000D01*
X133350000Y-94361000D02*
X127070000Y-94361000D01*
X127070000Y-100711000D02*
X134540000Y-100711000D01*
X184792000Y-50484000D02*
X184792000Y-49084000D01*
%LPC*%
D16*
X170180000Y-64650000D03*
X170180000Y-67430000D03*
D17*
X189110000Y-74930000D03*
X191890000Y-74930000D03*
D18*
X194056000Y-83529000D03*
X194056000Y-82079000D03*
D19*
X120650000Y-49530000D03*
D20*
X120650000Y-87630000D03*
D21*
X120650000Y-85090000D03*
D18*
X168656000Y-83529000D03*
X168656000Y-82079000D03*
D17*
X184030000Y-74930000D03*
X186810000Y-74930000D03*
D22*
X143500000Y-88900000D03*
D23*
X143500000Y-86360000D03*
X143500000Y-83820000D03*
X143500000Y-81280000D03*
X143500000Y-78740000D03*
X143500000Y-76200000D03*
X143500000Y-73660000D03*
X143500000Y-71120000D03*
X143500000Y-68580000D03*
X143500000Y-66040000D03*
X143500000Y-63500000D03*
X143500000Y-60960000D03*
X143500000Y-58420000D03*
X143500000Y-55880000D03*
X143500000Y-53340000D03*
X128260000Y-53340000D03*
X128260000Y-55880000D03*
X128260000Y-58420000D03*
X128260000Y-60960000D03*
X128260000Y-63500000D03*
X128260000Y-66040000D03*
X128260000Y-68580000D03*
X128260000Y-71120000D03*
X128260000Y-73660000D03*
X128260000Y-76200000D03*
X128260000Y-78740000D03*
X128260000Y-81280000D03*
X128260000Y-83820000D03*
X128260000Y-86360000D03*
X128260000Y-88900000D03*
D24*
X143510000Y-97461000D03*
D25*
X140970000Y-97461000D03*
X138430000Y-97461000D03*
D18*
X178816000Y-83529000D03*
X178816000Y-82079000D03*
X183896000Y-83529000D03*
X183896000Y-82079000D03*
D20*
X151130000Y-80010000D03*
D21*
X151130000Y-77470000D03*
X151130000Y-74930000D03*
X151130000Y-72390000D03*
X151130000Y-69850000D03*
X151130000Y-67310000D03*
D18*
X186436000Y-88609000D03*
X186436000Y-87159000D03*
D26*
X167640000Y-65220000D03*
X167640000Y-66860000D03*
D18*
X199136000Y-83529000D03*
X199136000Y-82079000D03*
D20*
X120650000Y-57150000D03*
D21*
X120650000Y-59690000D03*
X120650000Y-62230000D03*
X120650000Y-64770000D03*
X120650000Y-67310000D03*
X120650000Y-69850000D03*
X120650000Y-72390000D03*
D27*
X170520000Y-98098000D03*
D28*
X168520000Y-98098000D03*
X166520000Y-98098000D03*
X164520000Y-98098000D03*
X162520000Y-98098000D03*
D18*
X176276000Y-88609000D03*
X176276000Y-87159000D03*
D17*
X195192000Y-49784000D03*
X192412000Y-49784000D03*
D18*
X191516000Y-88609000D03*
X191516000Y-87159000D03*
D29*
X149860000Y-97282000D03*
D30*
X154940000Y-97282000D03*
D18*
X196596000Y-88609000D03*
X196596000Y-87159000D03*
D31*
X135890000Y-87630000D03*
D23*
X135890000Y-74930000D03*
D18*
X163576000Y-83529000D03*
X163576000Y-82079000D03*
D32*
X164506000Y-60690000D03*
X164506000Y-60190000D03*
X164506000Y-59690000D03*
X164506000Y-59190000D03*
X164506000Y-58690000D03*
X160106000Y-58690000D03*
X160106000Y-59190000D03*
X160106000Y-59690000D03*
X160106000Y-60190000D03*
X160106000Y-60690000D03*
D33*
X148590000Y-86530000D03*
X148590000Y-88730000D03*
D17*
X180474000Y-53340000D03*
X183254000Y-53340000D03*
D16*
X179070000Y-71240000D03*
X179070000Y-68460000D03*
D18*
X161036000Y-88609000D03*
X161036000Y-87159000D03*
X181356000Y-88609000D03*
X181356000Y-87159000D03*
D17*
X190620000Y-52324000D03*
X187840000Y-52324000D03*
D18*
X188976000Y-83529000D03*
X188976000Y-82079000D03*
D17*
X196970000Y-74930000D03*
X194190000Y-74930000D03*
D34*
X170180000Y-60390000D03*
X170180000Y-58990000D03*
D16*
X162560000Y-64650000D03*
X162560000Y-67430000D03*
D18*
X201676000Y-88609000D03*
X201676000Y-87159000D03*
D16*
X203200000Y-67190000D03*
X203200000Y-69970000D03*
X172720000Y-67430000D03*
X172720000Y-64650000D03*
D35*
X182492000Y-58496000D03*
X182492000Y-58996000D03*
X182492000Y-59496000D03*
X182492000Y-59996000D03*
X182492000Y-60496000D03*
X182492000Y-60996000D03*
X182492000Y-61496000D03*
X182492000Y-61996000D03*
X182492000Y-62496000D03*
X182492000Y-62996000D03*
X182492000Y-63496000D03*
X182492000Y-63996000D03*
X182492000Y-64496000D03*
X182492000Y-64996000D03*
X182492000Y-65496000D03*
X182492000Y-65996000D03*
X182492000Y-66496000D03*
X182492000Y-66996000D03*
X182492000Y-67496000D03*
X182492000Y-67996000D03*
D36*
X184480000Y-69984000D03*
X184980000Y-69984000D03*
X185480000Y-69984000D03*
X185980000Y-69984000D03*
X186480000Y-69984000D03*
X186980000Y-69984000D03*
X187480000Y-69984000D03*
X187980000Y-69984000D03*
X188480000Y-69984000D03*
X188980000Y-69984000D03*
X189480000Y-69984000D03*
X189980000Y-69984000D03*
X190480000Y-69984000D03*
X190980000Y-69984000D03*
X191480000Y-69984000D03*
X191980000Y-69984000D03*
X192480000Y-69984000D03*
X192980000Y-69984000D03*
X193480000Y-69984000D03*
X193980000Y-69984000D03*
D35*
X195968000Y-67996000D03*
X195968000Y-67496000D03*
X195968000Y-66996000D03*
X195968000Y-66496000D03*
X195968000Y-65996000D03*
X195968000Y-65496000D03*
X195968000Y-64996000D03*
X195968000Y-64496000D03*
X195968000Y-63996000D03*
X195968000Y-63496000D03*
X195968000Y-62996000D03*
X195968000Y-62496000D03*
X195968000Y-61996000D03*
X195968000Y-61496000D03*
X195968000Y-60996000D03*
X195968000Y-60496000D03*
X195968000Y-59996000D03*
X195968000Y-59496000D03*
X195968000Y-58996000D03*
X195968000Y-58496000D03*
D36*
X193980000Y-56508000D03*
X193480000Y-56508000D03*
X192980000Y-56508000D03*
X192480000Y-56508000D03*
X191980000Y-56508000D03*
X191480000Y-56508000D03*
X190980000Y-56508000D03*
X190480000Y-56508000D03*
X189980000Y-56508000D03*
X189480000Y-56508000D03*
X188980000Y-56508000D03*
X188480000Y-56508000D03*
X187980000Y-56508000D03*
X187480000Y-56508000D03*
X186980000Y-56508000D03*
X186480000Y-56508000D03*
X185980000Y-56508000D03*
X185480000Y-56508000D03*
X184980000Y-56508000D03*
X184480000Y-56508000D03*
D19*
X207010000Y-49530000D03*
D37*
X200152000Y-98244000D03*
X198152000Y-98244000D03*
X196152000Y-98244000D03*
X194152000Y-98244000D03*
X192152000Y-98244000D03*
X190152000Y-98244000D03*
X188152000Y-98244000D03*
X186152000Y-98244000D03*
X184152000Y-98244000D03*
X182152000Y-98244000D03*
X180152000Y-98244000D03*
X178152000Y-98244000D03*
D16*
X199390000Y-55760000D03*
X199390000Y-58540000D03*
X171450000Y-57270000D03*
X171450000Y-54490000D03*
D17*
X178950000Y-74930000D03*
X181730000Y-74930000D03*
D38*
X122090000Y-92710000D03*
X124290000Y-92710000D03*
D17*
X179190000Y-64770000D03*
X176410000Y-64770000D03*
D18*
X166116000Y-88609000D03*
X166116000Y-87159000D03*
D16*
X199390000Y-68460000D03*
X199390000Y-71240000D03*
D17*
X196970000Y-53340000D03*
X194190000Y-53340000D03*
D18*
X171196000Y-88609000D03*
X171196000Y-87159000D03*
D16*
X203200000Y-57030000D03*
X203200000Y-59810000D03*
D39*
X154940000Y-86400000D03*
D40*
X154940000Y-88900000D03*
D41*
X172720000Y-69342000D03*
X172720000Y-70262000D03*
D20*
X120650000Y-80010000D03*
D21*
X120650000Y-77470000D03*
D16*
X200660000Y-62110000D03*
X200660000Y-64890000D03*
D24*
X133350000Y-97461000D03*
D25*
X130810000Y-97461000D03*
X128270000Y-97461000D03*
D19*
X120650000Y-97790000D03*
D17*
X186182000Y-49784000D03*
X183402000Y-49784000D03*
D19*
X207010000Y-97790000D03*
M02*
