%TF.GenerationSoftware,KiCad,Pcbnew,(6.0.8)*%
%TF.CreationDate,2023-02-04T19:59:28+01:00*%
%TF.ProjectId,Research Prototype,52657365-6172-4636-9820-50726f746f74,rev?*%
%TF.SameCoordinates,Original*%
%TF.FileFunction,Paste,Top*%
%TF.FilePolarity,Positive*%
%FSLAX46Y46*%
G04 Gerber Fmt 4.6, Leading zero omitted, Abs format (unit mm)*
G04 Created by KiCad (PCBNEW (6.0.8)) date 2023-02-04 19:59:28*
%MOMM*%
%LPD*%
G01*
G04 APERTURE LIST*
%ADD10R,1.820000X1.050000*%
%ADD11R,1.050000X1.820000*%
%ADD12R,0.900000X0.650000*%
%ADD13R,1.430000X0.940000*%
%ADD14R,1.400000X0.300000*%
%ADD15R,0.500000X1.250000*%
%ADD16R,0.940000X0.750000*%
%ADD17R,1.475000X0.300000*%
%ADD18R,0.300000X1.475000*%
%ADD19R,1.250000X0.500000*%
%ADD20R,0.620000X0.600000*%
G04 APERTURE END LIST*
D10*
X170180000Y-64650000D03*
X170180000Y-67430000D03*
D11*
X189110000Y-74930000D03*
X191890000Y-74930000D03*
D12*
X194056000Y-83529000D03*
X194056000Y-82079000D03*
X168656000Y-83529000D03*
X168656000Y-82079000D03*
D11*
X184030000Y-74930000D03*
X186810000Y-74930000D03*
D12*
X178816000Y-83529000D03*
X178816000Y-82079000D03*
X183896000Y-83529000D03*
X183896000Y-82079000D03*
X186436000Y-88609000D03*
X186436000Y-87159000D03*
D13*
X167640000Y-65220000D03*
X167640000Y-66860000D03*
D12*
X199136000Y-83529000D03*
X199136000Y-82079000D03*
X176276000Y-88609000D03*
X176276000Y-87159000D03*
D11*
X195192000Y-49784000D03*
X192412000Y-49784000D03*
D12*
X191516000Y-88609000D03*
X191516000Y-87159000D03*
X196596000Y-88609000D03*
X196596000Y-87159000D03*
X163576000Y-83529000D03*
X163576000Y-82079000D03*
D14*
X164506000Y-60690000D03*
X164506000Y-60190000D03*
X164506000Y-59690000D03*
X164506000Y-59190000D03*
X164506000Y-58690000D03*
X160106000Y-58690000D03*
X160106000Y-59190000D03*
X160106000Y-59690000D03*
X160106000Y-60190000D03*
X160106000Y-60690000D03*
D15*
X148590000Y-86530000D03*
X148590000Y-88730000D03*
D11*
X180474000Y-53340000D03*
X183254000Y-53340000D03*
D10*
X179070000Y-71240000D03*
X179070000Y-68460000D03*
D12*
X161036000Y-88609000D03*
X161036000Y-87159000D03*
X181356000Y-88609000D03*
X181356000Y-87159000D03*
D11*
X190620000Y-52324000D03*
X187840000Y-52324000D03*
D12*
X188976000Y-83529000D03*
X188976000Y-82079000D03*
D11*
X196970000Y-74930000D03*
X194190000Y-74930000D03*
D16*
X170180000Y-60390000D03*
X170180000Y-58990000D03*
D10*
X162560000Y-64650000D03*
X162560000Y-67430000D03*
D12*
X201676000Y-88609000D03*
X201676000Y-87159000D03*
D10*
X203200000Y-67190000D03*
X203200000Y-69970000D03*
X172720000Y-67430000D03*
X172720000Y-64650000D03*
D17*
X182492000Y-58496000D03*
X182492000Y-58996000D03*
X182492000Y-59496000D03*
X182492000Y-59996000D03*
X182492000Y-60496000D03*
X182492000Y-60996000D03*
X182492000Y-61496000D03*
X182492000Y-61996000D03*
X182492000Y-62496000D03*
X182492000Y-62996000D03*
X182492000Y-63496000D03*
X182492000Y-63996000D03*
X182492000Y-64496000D03*
X182492000Y-64996000D03*
X182492000Y-65496000D03*
X182492000Y-65996000D03*
X182492000Y-66496000D03*
X182492000Y-66996000D03*
X182492000Y-67496000D03*
X182492000Y-67996000D03*
D18*
X184480000Y-69984000D03*
X184980000Y-69984000D03*
X185480000Y-69984000D03*
X185980000Y-69984000D03*
X186480000Y-69984000D03*
X186980000Y-69984000D03*
X187480000Y-69984000D03*
X187980000Y-69984000D03*
X188480000Y-69984000D03*
X188980000Y-69984000D03*
X189480000Y-69984000D03*
X189980000Y-69984000D03*
X190480000Y-69984000D03*
X190980000Y-69984000D03*
X191480000Y-69984000D03*
X191980000Y-69984000D03*
X192480000Y-69984000D03*
X192980000Y-69984000D03*
X193480000Y-69984000D03*
X193980000Y-69984000D03*
D17*
X195968000Y-67996000D03*
X195968000Y-67496000D03*
X195968000Y-66996000D03*
X195968000Y-66496000D03*
X195968000Y-65996000D03*
X195968000Y-65496000D03*
X195968000Y-64996000D03*
X195968000Y-64496000D03*
X195968000Y-63996000D03*
X195968000Y-63496000D03*
X195968000Y-62996000D03*
X195968000Y-62496000D03*
X195968000Y-61996000D03*
X195968000Y-61496000D03*
X195968000Y-60996000D03*
X195968000Y-60496000D03*
X195968000Y-59996000D03*
X195968000Y-59496000D03*
X195968000Y-58996000D03*
X195968000Y-58496000D03*
D18*
X193980000Y-56508000D03*
X193480000Y-56508000D03*
X192980000Y-56508000D03*
X192480000Y-56508000D03*
X191980000Y-56508000D03*
X191480000Y-56508000D03*
X190980000Y-56508000D03*
X190480000Y-56508000D03*
X189980000Y-56508000D03*
X189480000Y-56508000D03*
X188980000Y-56508000D03*
X188480000Y-56508000D03*
X187980000Y-56508000D03*
X187480000Y-56508000D03*
X186980000Y-56508000D03*
X186480000Y-56508000D03*
X185980000Y-56508000D03*
X185480000Y-56508000D03*
X184980000Y-56508000D03*
X184480000Y-56508000D03*
D10*
X199390000Y-55760000D03*
X199390000Y-58540000D03*
X171450000Y-57270000D03*
X171450000Y-54490000D03*
D11*
X178950000Y-74930000D03*
X181730000Y-74930000D03*
D19*
X122090000Y-92710000D03*
X124290000Y-92710000D03*
D11*
X179190000Y-64770000D03*
X176410000Y-64770000D03*
D12*
X166116000Y-88609000D03*
X166116000Y-87159000D03*
D10*
X199390000Y-68460000D03*
X199390000Y-71240000D03*
D11*
X196970000Y-53340000D03*
X194190000Y-53340000D03*
D12*
X171196000Y-88609000D03*
X171196000Y-87159000D03*
D10*
X203200000Y-57030000D03*
X203200000Y-59810000D03*
D20*
X172720000Y-69342000D03*
X172720000Y-70262000D03*
D10*
X200660000Y-62110000D03*
X200660000Y-64890000D03*
D11*
X186182000Y-49784000D03*
X183402000Y-49784000D03*
M02*
