%TF.GenerationSoftware,KiCad,Pcbnew,(6.0.8)*%
%TF.CreationDate,2023-02-04T19:59:25+01:00*%
%TF.ProjectId,Research Prototype,52657365-6172-4636-9820-50726f746f74,rev?*%
%TF.SameCoordinates,Original*%
%TF.FileFunction,Drillmap*%
%TF.FilePolarity,Positive*%
%FSLAX45Y45*%
G04 Gerber Fmt 4.5, Leading zero omitted, Abs format (unit mm)*
G04 Created by KiCad (PCBNEW (6.0.8)) date 2023-02-04 19:59:25*
%MOMM*%
%LPD*%
G01*
G04 APERTURE LIST*
%ADD10C,0.100000*%
%ADD11C,0.200000*%
%ADD12C,0.320000*%
G04 APERTURE END LIST*
D10*
X21082000Y-10160000D02*
X11684000Y-10160000D01*
X11684000Y-10160000D02*
X11684000Y-4572000D01*
X21082000Y-4572000D02*
X21082000Y-10160000D01*
X11684000Y-4572000D02*
X21082000Y-4572000D01*
D11*
D12*
X11905000Y-4793000D02*
X12225000Y-5113000D01*
X12225000Y-4793000D02*
X11905000Y-5113000D01*
X11905000Y-9619000D02*
X12225000Y-9939000D01*
X12225000Y-9619000D02*
X11905000Y-9939000D01*
X20541000Y-4793000D02*
X20861000Y-5113000D01*
X20861000Y-4793000D02*
X20541000Y-5113000D01*
X20541000Y-9619000D02*
X20861000Y-9939000D01*
X20861000Y-9619000D02*
X20541000Y-9939000D01*
D11*
X11936619Y-10475476D02*
X11936619Y-10275476D01*
X11984238Y-10275476D01*
X12012809Y-10285000D01*
X12031857Y-10304048D01*
X12041381Y-10323095D01*
X12050905Y-10361190D01*
X12050905Y-10389762D01*
X12041381Y-10427857D01*
X12031857Y-10446905D01*
X12012809Y-10465952D01*
X11984238Y-10475476D01*
X11936619Y-10475476D01*
X12136619Y-10475476D02*
X12136619Y-10342143D01*
X12136619Y-10380238D02*
X12146143Y-10361190D01*
X12155667Y-10351667D01*
X12174714Y-10342143D01*
X12193762Y-10342143D01*
X12260428Y-10475476D02*
X12260428Y-10342143D01*
X12260428Y-10275476D02*
X12250905Y-10285000D01*
X12260428Y-10294524D01*
X12269952Y-10285000D01*
X12260428Y-10275476D01*
X12260428Y-10294524D01*
X12384238Y-10475476D02*
X12365190Y-10465952D01*
X12355667Y-10446905D01*
X12355667Y-10275476D01*
X12489000Y-10475476D02*
X12469952Y-10465952D01*
X12460428Y-10446905D01*
X12460428Y-10275476D01*
X12717571Y-10475476D02*
X12717571Y-10275476D01*
X12784238Y-10418333D01*
X12850905Y-10275476D01*
X12850905Y-10475476D01*
X13031857Y-10475476D02*
X13031857Y-10370714D01*
X13022333Y-10351667D01*
X13003286Y-10342143D01*
X12965190Y-10342143D01*
X12946143Y-10351667D01*
X13031857Y-10465952D02*
X13012809Y-10475476D01*
X12965190Y-10475476D01*
X12946143Y-10465952D01*
X12936619Y-10446905D01*
X12936619Y-10427857D01*
X12946143Y-10408810D01*
X12965190Y-10399286D01*
X13012809Y-10399286D01*
X13031857Y-10389762D01*
X13127095Y-10342143D02*
X13127095Y-10542143D01*
X13127095Y-10351667D02*
X13146143Y-10342143D01*
X13184238Y-10342143D01*
X13203286Y-10351667D01*
X13212809Y-10361190D01*
X13222333Y-10380238D01*
X13222333Y-10437381D01*
X13212809Y-10456429D01*
X13203286Y-10465952D01*
X13184238Y-10475476D01*
X13146143Y-10475476D01*
X13127095Y-10465952D01*
X13308048Y-10456429D02*
X13317571Y-10465952D01*
X13308048Y-10475476D01*
X13298524Y-10465952D01*
X13308048Y-10456429D01*
X13308048Y-10475476D01*
X13308048Y-10351667D02*
X13317571Y-10361190D01*
X13308048Y-10370714D01*
X13298524Y-10361190D01*
X13308048Y-10351667D01*
X13308048Y-10370714D01*
X11479000Y-10705000D02*
X11679000Y-10905000D01*
X11679000Y-10705000D02*
X11479000Y-10905000D01*
X11917571Y-10695476D02*
X12041381Y-10695476D01*
X11974714Y-10771667D01*
X12003286Y-10771667D01*
X12022333Y-10781190D01*
X12031857Y-10790714D01*
X12041381Y-10809762D01*
X12041381Y-10857381D01*
X12031857Y-10876429D01*
X12022333Y-10885952D01*
X12003286Y-10895476D01*
X11946143Y-10895476D01*
X11927095Y-10885952D01*
X11917571Y-10876429D01*
X12127095Y-10876429D02*
X12136619Y-10885952D01*
X12127095Y-10895476D01*
X12117571Y-10885952D01*
X12127095Y-10876429D01*
X12127095Y-10895476D01*
X12212809Y-10714524D02*
X12222333Y-10705000D01*
X12241381Y-10695476D01*
X12289000Y-10695476D01*
X12308048Y-10705000D01*
X12317571Y-10714524D01*
X12327095Y-10733571D01*
X12327095Y-10752619D01*
X12317571Y-10781190D01*
X12203286Y-10895476D01*
X12327095Y-10895476D01*
X12450905Y-10695476D02*
X12469952Y-10695476D01*
X12489000Y-10705000D01*
X12498524Y-10714524D01*
X12508048Y-10733571D01*
X12517571Y-10771667D01*
X12517571Y-10819286D01*
X12508048Y-10857381D01*
X12498524Y-10876429D01*
X12489000Y-10885952D01*
X12469952Y-10895476D01*
X12450905Y-10895476D01*
X12431857Y-10885952D01*
X12422333Y-10876429D01*
X12412809Y-10857381D01*
X12403286Y-10819286D01*
X12403286Y-10771667D01*
X12412809Y-10733571D01*
X12422333Y-10714524D01*
X12431857Y-10705000D01*
X12450905Y-10695476D01*
X12641381Y-10695476D02*
X12660428Y-10695476D01*
X12679476Y-10705000D01*
X12689000Y-10714524D01*
X12698524Y-10733571D01*
X12708048Y-10771667D01*
X12708048Y-10819286D01*
X12698524Y-10857381D01*
X12689000Y-10876429D01*
X12679476Y-10885952D01*
X12660428Y-10895476D01*
X12641381Y-10895476D01*
X12622333Y-10885952D01*
X12612809Y-10876429D01*
X12603286Y-10857381D01*
X12593762Y-10819286D01*
X12593762Y-10771667D01*
X12603286Y-10733571D01*
X12612809Y-10714524D01*
X12622333Y-10705000D01*
X12641381Y-10695476D01*
X12793762Y-10895476D02*
X12793762Y-10762143D01*
X12793762Y-10781190D02*
X12803286Y-10771667D01*
X12822333Y-10762143D01*
X12850905Y-10762143D01*
X12869952Y-10771667D01*
X12879476Y-10790714D01*
X12879476Y-10895476D01*
X12879476Y-10790714D02*
X12889000Y-10771667D01*
X12908048Y-10762143D01*
X12936619Y-10762143D01*
X12955667Y-10771667D01*
X12965190Y-10790714D01*
X12965190Y-10895476D01*
X13060428Y-10895476D02*
X13060428Y-10762143D01*
X13060428Y-10781190D02*
X13069952Y-10771667D01*
X13089000Y-10762143D01*
X13117571Y-10762143D01*
X13136619Y-10771667D01*
X13146143Y-10790714D01*
X13146143Y-10895476D01*
X13146143Y-10790714D02*
X13155667Y-10771667D01*
X13174714Y-10762143D01*
X13203286Y-10762143D01*
X13222333Y-10771667D01*
X13231857Y-10790714D01*
X13231857Y-10895476D01*
X13622333Y-10685952D02*
X13450905Y-10943095D01*
X13879476Y-10695476D02*
X13898524Y-10695476D01*
X13917571Y-10705000D01*
X13927095Y-10714524D01*
X13936619Y-10733571D01*
X13946143Y-10771667D01*
X13946143Y-10819286D01*
X13936619Y-10857381D01*
X13927095Y-10876429D01*
X13917571Y-10885952D01*
X13898524Y-10895476D01*
X13879476Y-10895476D01*
X13860428Y-10885952D01*
X13850905Y-10876429D01*
X13841381Y-10857381D01*
X13831857Y-10819286D01*
X13831857Y-10771667D01*
X13841381Y-10733571D01*
X13850905Y-10714524D01*
X13860428Y-10705000D01*
X13879476Y-10695476D01*
X14031857Y-10876429D02*
X14041381Y-10885952D01*
X14031857Y-10895476D01*
X14022333Y-10885952D01*
X14031857Y-10876429D01*
X14031857Y-10895476D01*
X14231857Y-10895476D02*
X14117571Y-10895476D01*
X14174714Y-10895476D02*
X14174714Y-10695476D01*
X14155667Y-10724048D01*
X14136619Y-10743095D01*
X14117571Y-10752619D01*
X14308048Y-10714524D02*
X14317571Y-10705000D01*
X14336619Y-10695476D01*
X14384238Y-10695476D01*
X14403286Y-10705000D01*
X14412809Y-10714524D01*
X14422333Y-10733571D01*
X14422333Y-10752619D01*
X14412809Y-10781190D01*
X14298524Y-10895476D01*
X14422333Y-10895476D01*
X14593762Y-10695476D02*
X14555667Y-10695476D01*
X14536619Y-10705000D01*
X14527095Y-10714524D01*
X14508048Y-10743095D01*
X14498524Y-10781190D01*
X14498524Y-10857381D01*
X14508048Y-10876429D01*
X14517571Y-10885952D01*
X14536619Y-10895476D01*
X14574714Y-10895476D01*
X14593762Y-10885952D01*
X14603286Y-10876429D01*
X14612809Y-10857381D01*
X14612809Y-10809762D01*
X14603286Y-10790714D01*
X14593762Y-10781190D01*
X14574714Y-10771667D01*
X14536619Y-10771667D01*
X14517571Y-10781190D01*
X14508048Y-10790714D01*
X14498524Y-10809762D01*
X14736619Y-10695476D02*
X14755667Y-10695476D01*
X14774714Y-10705000D01*
X14784238Y-10714524D01*
X14793762Y-10733571D01*
X14803286Y-10771667D01*
X14803286Y-10819286D01*
X14793762Y-10857381D01*
X14784238Y-10876429D01*
X14774714Y-10885952D01*
X14755667Y-10895476D01*
X14736619Y-10895476D01*
X14717571Y-10885952D01*
X14708048Y-10876429D01*
X14698524Y-10857381D01*
X14689000Y-10819286D01*
X14689000Y-10771667D01*
X14698524Y-10733571D01*
X14708048Y-10714524D01*
X14717571Y-10705000D01*
X14736619Y-10695476D01*
X14879476Y-10695476D02*
X14879476Y-10733571D01*
X14955667Y-10695476D02*
X14955667Y-10733571D01*
X15250905Y-10971667D02*
X15241381Y-10962143D01*
X15222333Y-10933571D01*
X15212809Y-10914524D01*
X15203286Y-10885952D01*
X15193762Y-10838333D01*
X15193762Y-10800238D01*
X15203286Y-10752619D01*
X15212809Y-10724048D01*
X15222333Y-10705000D01*
X15241381Y-10676429D01*
X15250905Y-10666905D01*
X15412809Y-10762143D02*
X15412809Y-10895476D01*
X15365190Y-10685952D02*
X15317571Y-10828810D01*
X15441381Y-10828810D01*
X15669952Y-10895476D02*
X15669952Y-10695476D01*
X15755667Y-10895476D02*
X15755667Y-10790714D01*
X15746143Y-10771667D01*
X15727095Y-10762143D01*
X15698524Y-10762143D01*
X15679476Y-10771667D01*
X15669952Y-10781190D01*
X15879476Y-10895476D02*
X15860428Y-10885952D01*
X15850905Y-10876429D01*
X15841381Y-10857381D01*
X15841381Y-10800238D01*
X15850905Y-10781190D01*
X15860428Y-10771667D01*
X15879476Y-10762143D01*
X15908048Y-10762143D01*
X15927095Y-10771667D01*
X15936619Y-10781190D01*
X15946143Y-10800238D01*
X15946143Y-10857381D01*
X15936619Y-10876429D01*
X15927095Y-10885952D01*
X15908048Y-10895476D01*
X15879476Y-10895476D01*
X16060428Y-10895476D02*
X16041381Y-10885952D01*
X16031857Y-10866905D01*
X16031857Y-10695476D01*
X16212809Y-10885952D02*
X16193762Y-10895476D01*
X16155667Y-10895476D01*
X16136619Y-10885952D01*
X16127095Y-10866905D01*
X16127095Y-10790714D01*
X16136619Y-10771667D01*
X16155667Y-10762143D01*
X16193762Y-10762143D01*
X16212809Y-10771667D01*
X16222333Y-10790714D01*
X16222333Y-10809762D01*
X16127095Y-10828810D01*
X16298524Y-10885952D02*
X16317571Y-10895476D01*
X16355667Y-10895476D01*
X16374714Y-10885952D01*
X16384238Y-10866905D01*
X16384238Y-10857381D01*
X16374714Y-10838333D01*
X16355667Y-10828810D01*
X16327095Y-10828810D01*
X16308048Y-10819286D01*
X16298524Y-10800238D01*
X16298524Y-10790714D01*
X16308048Y-10771667D01*
X16327095Y-10762143D01*
X16355667Y-10762143D01*
X16374714Y-10771667D01*
X16450905Y-10971667D02*
X16460428Y-10962143D01*
X16479476Y-10933571D01*
X16489000Y-10914524D01*
X16498524Y-10885952D01*
X16508048Y-10838333D01*
X16508048Y-10800238D01*
X16498524Y-10752619D01*
X16489000Y-10724048D01*
X16479476Y-10705000D01*
X16460428Y-10676429D01*
X16450905Y-10666905D01*
X16812810Y-10971667D02*
X16803286Y-10962143D01*
X16784238Y-10933571D01*
X16774714Y-10914524D01*
X16765190Y-10885952D01*
X16755667Y-10838333D01*
X16755667Y-10800238D01*
X16765190Y-10752619D01*
X16774714Y-10724048D01*
X16784238Y-10705000D01*
X16803286Y-10676429D01*
X16812810Y-10666905D01*
X16889000Y-10762143D02*
X16889000Y-10895476D01*
X16889000Y-10781190D02*
X16898524Y-10771667D01*
X16917571Y-10762143D01*
X16946143Y-10762143D01*
X16965190Y-10771667D01*
X16974714Y-10790714D01*
X16974714Y-10895476D01*
X17098524Y-10895476D02*
X17079476Y-10885952D01*
X17069952Y-10876429D01*
X17060429Y-10857381D01*
X17060429Y-10800238D01*
X17069952Y-10781190D01*
X17079476Y-10771667D01*
X17098524Y-10762143D01*
X17127095Y-10762143D01*
X17146143Y-10771667D01*
X17155667Y-10781190D01*
X17165190Y-10800238D01*
X17165190Y-10857381D01*
X17155667Y-10876429D01*
X17146143Y-10885952D01*
X17127095Y-10895476D01*
X17098524Y-10895476D01*
X17222333Y-10762143D02*
X17298524Y-10762143D01*
X17250905Y-10695476D02*
X17250905Y-10866905D01*
X17260429Y-10885952D01*
X17279476Y-10895476D01*
X17298524Y-10895476D01*
X17517571Y-10762143D02*
X17517571Y-10962143D01*
X17517571Y-10771667D02*
X17536619Y-10762143D01*
X17574714Y-10762143D01*
X17593762Y-10771667D01*
X17603286Y-10781190D01*
X17612810Y-10800238D01*
X17612810Y-10857381D01*
X17603286Y-10876429D01*
X17593762Y-10885952D01*
X17574714Y-10895476D01*
X17536619Y-10895476D01*
X17517571Y-10885952D01*
X17727095Y-10895476D02*
X17708048Y-10885952D01*
X17698524Y-10866905D01*
X17698524Y-10695476D01*
X17889000Y-10895476D02*
X17889000Y-10790714D01*
X17879476Y-10771667D01*
X17860429Y-10762143D01*
X17822333Y-10762143D01*
X17803286Y-10771667D01*
X17889000Y-10885952D02*
X17869952Y-10895476D01*
X17822333Y-10895476D01*
X17803286Y-10885952D01*
X17793762Y-10866905D01*
X17793762Y-10847857D01*
X17803286Y-10828810D01*
X17822333Y-10819286D01*
X17869952Y-10819286D01*
X17889000Y-10809762D01*
X17955667Y-10762143D02*
X18031857Y-10762143D01*
X17984238Y-10695476D02*
X17984238Y-10866905D01*
X17993762Y-10885952D01*
X18012810Y-10895476D01*
X18031857Y-10895476D01*
X18174714Y-10885952D02*
X18155667Y-10895476D01*
X18117571Y-10895476D01*
X18098524Y-10885952D01*
X18089000Y-10866905D01*
X18089000Y-10790714D01*
X18098524Y-10771667D01*
X18117571Y-10762143D01*
X18155667Y-10762143D01*
X18174714Y-10771667D01*
X18184238Y-10790714D01*
X18184238Y-10809762D01*
X18089000Y-10828810D01*
X18355667Y-10895476D02*
X18355667Y-10695476D01*
X18355667Y-10885952D02*
X18336619Y-10895476D01*
X18298524Y-10895476D01*
X18279476Y-10885952D01*
X18269952Y-10876429D01*
X18260429Y-10857381D01*
X18260429Y-10800238D01*
X18269952Y-10781190D01*
X18279476Y-10771667D01*
X18298524Y-10762143D01*
X18336619Y-10762143D01*
X18355667Y-10771667D01*
X18431857Y-10971667D02*
X18441381Y-10962143D01*
X18460429Y-10933571D01*
X18469952Y-10914524D01*
X18479476Y-10885952D01*
X18489000Y-10838333D01*
X18489000Y-10800238D01*
X18479476Y-10752619D01*
X18469952Y-10724048D01*
X18460429Y-10705000D01*
X18441381Y-10676429D01*
X18431857Y-10666905D01*
M02*
