M48
; DRILL file {KiCad (6.0.8)} date Sat Feb  4 19:59:24 2023
; FORMAT={-:-/ absolute / metric / decimal}
; #@! TF.CreationDate,2023-02-04T19:59:24+01:00
; #@! TF.GenerationSoftware,Kicad,Pcbnew,(6.0.8)
; #@! TF.FileFunction,Plated,1,2,PTH
FMAT,2
METRIC
; #@! TA.AperFunction,Plated,PTH,ViaDrill
T1C0.400
; #@! TA.AperFunction,Plated,PTH,ComponentDrill
T2C0.700
; #@! TA.AperFunction,Plated,PTH,ComponentDrill
T3C0.800
; #@! TA.AperFunction,Plated,PTH,ComponentDrill
T4C0.850
; #@! TA.AperFunction,Plated,PTH,ComponentDrill
T5C0.900
; #@! TA.AperFunction,Plated,PTH,ComponentDrill
T6C1.000
; #@! TA.AperFunction,Plated,PTH,ComponentDrill
T7C1.520
%
G90
G05
T1
X165.1Y-53.34
X165.1Y-68.58
X170.18Y-71.12
X175.26Y-54.61
X175.26Y-58.42
X177.8Y-54.61
X177.8Y-58.42
X179.07Y-53.34
X180.34Y-55.88
X180.34Y-58.42
T2
X154.94Y-86.4
X154.94Y-88.9
T3
X135.89Y-74.93
X135.89Y-87.63
T4
X178.152Y-98.244
X180.152Y-98.244
X182.152Y-98.244
X184.152Y-98.244
X186.152Y-98.244
X188.152Y-98.244
X190.152Y-98.244
X192.152Y-98.244
X194.152Y-98.244
X196.152Y-98.244
X198.152Y-98.244
X200.152Y-98.244
T5
X162.52Y-98.098
X164.52Y-98.098
X166.52Y-98.098
X168.52Y-98.098
X170.52Y-98.098
T6
X120.65Y-57.15
X120.65Y-59.69
X120.65Y-62.23
X120.65Y-64.77
X120.65Y-67.31
X120.65Y-69.85
X120.65Y-72.39
X120.65Y-77.47
X120.65Y-80.01
X120.65Y-85.09
X120.65Y-87.63
X128.26Y-53.34
X128.26Y-55.88
X128.26Y-58.42
X128.26Y-60.96
X128.26Y-63.5
X128.26Y-66.04
X128.26Y-68.58
X128.26Y-71.12
X128.26Y-73.66
X128.26Y-76.2
X128.26Y-78.74
X128.26Y-81.28
X128.26Y-83.82
X128.26Y-86.36
X128.26Y-88.9
X128.27Y-97.461
X130.81Y-97.461
X133.35Y-97.461
X138.43Y-97.461
X140.97Y-97.461
X143.5Y-53.34
X143.5Y-55.88
X143.5Y-58.42
X143.5Y-60.96
X143.5Y-63.5
X143.5Y-66.04
X143.5Y-68.58
X143.5Y-71.12
X143.5Y-73.66
X143.5Y-76.2
X143.5Y-78.74
X143.5Y-81.28
X143.5Y-83.82
X143.5Y-86.36
X143.5Y-88.9
X143.51Y-97.461
X151.13Y-67.31
X151.13Y-69.85
X151.13Y-72.39
X151.13Y-74.93
X151.13Y-77.47
X151.13Y-80.01
T7
X149.86Y-97.282
X154.94Y-97.282
T0
M30
