%TF.GenerationSoftware,KiCad,Pcbnew,(6.0.8)*%
%TF.CreationDate,2023-02-04T19:59:25+01:00*%
%TF.ProjectId,Research Prototype,52657365-6172-4636-9820-50726f746f74,rev?*%
%TF.SameCoordinates,Original*%
%TF.FileFunction,Drillmap*%
%TF.FilePolarity,Positive*%
%FSLAX45Y45*%
G04 Gerber Fmt 4.5, Leading zero omitted, Abs format (unit mm)*
G04 Created by KiCad (PCBNEW (6.0.8)) date 2023-02-04 19:59:25*
%MOMM*%
%LPD*%
G01*
G04 APERTURE LIST*
%ADD10C,0.100000*%
%ADD11C,0.200000*%
%ADD12C,0.040000*%
%ADD13C,0.070000*%
%ADD14C,0.080000*%
%ADD15C,0.085000*%
%ADD16C,0.090000*%
%ADD17C,0.152000*%
G04 APERTURE END LIST*
D10*
X21082000Y-10160000D02*
X11684000Y-10160000D01*
X11684000Y-10160000D02*
X11684000Y-4572000D01*
X21082000Y-4572000D02*
X21082000Y-10160000D01*
X11684000Y-4572000D02*
X21082000Y-4572000D01*
D11*
D12*
X16490000Y-5314000D02*
X16530000Y-5354000D01*
X16530000Y-5314000D02*
X16490000Y-5354000D01*
X16490000Y-6838000D02*
X16530000Y-6878000D01*
X16530000Y-6838000D02*
X16490000Y-6878000D01*
X16998000Y-7092000D02*
X17038000Y-7132000D01*
X17038000Y-7092000D02*
X16998000Y-7132000D01*
X17506000Y-5441000D02*
X17546000Y-5481000D01*
X17546000Y-5441000D02*
X17506000Y-5481000D01*
X17506000Y-5822000D02*
X17546000Y-5862000D01*
X17546000Y-5822000D02*
X17506000Y-5862000D01*
X17760000Y-5441000D02*
X17800000Y-5481000D01*
X17800000Y-5441000D02*
X17760000Y-5481000D01*
X17760000Y-5822000D02*
X17800000Y-5862000D01*
X17800000Y-5822000D02*
X17760000Y-5862000D01*
X17887000Y-5314000D02*
X17927000Y-5354000D01*
X17927000Y-5314000D02*
X17887000Y-5354000D01*
X18014000Y-5568000D02*
X18054000Y-5608000D01*
X18054000Y-5568000D02*
X18014000Y-5608000D01*
X18014000Y-5822000D02*
X18054000Y-5862000D01*
X18054000Y-5822000D02*
X18014000Y-5862000D01*
D13*
X15529000Y-8640000D02*
G75*
G03*
X15529000Y-8640000I-35000J0D01*
G01*
X15529000Y-8890000D02*
G75*
G03*
X15529000Y-8890000I-35000J0D01*
G01*
D14*
X13589000Y-7453000D02*
X13589000Y-7533000D01*
X13549000Y-7493000D02*
X13629000Y-7493000D01*
X13589000Y-8723000D02*
X13589000Y-8803000D01*
X13549000Y-8763000D02*
X13629000Y-8763000D01*
D15*
X17845252Y-9854452D02*
X17845252Y-9794348D01*
X17785148Y-9794348D01*
X17785148Y-9854452D01*
X17845252Y-9854452D01*
X18045252Y-9854452D02*
X18045252Y-9794348D01*
X17985148Y-9794348D01*
X17985148Y-9854452D01*
X18045252Y-9854452D01*
X18245252Y-9854452D02*
X18245252Y-9794348D01*
X18185148Y-9794348D01*
X18185148Y-9854452D01*
X18245252Y-9854452D01*
X18445252Y-9854452D02*
X18445252Y-9794348D01*
X18385148Y-9794348D01*
X18385148Y-9854452D01*
X18445252Y-9854452D01*
X18645252Y-9854452D02*
X18645252Y-9794348D01*
X18585148Y-9794348D01*
X18585148Y-9854452D01*
X18645252Y-9854452D01*
X18845252Y-9854452D02*
X18845252Y-9794348D01*
X18785148Y-9794348D01*
X18785148Y-9854452D01*
X18845252Y-9854452D01*
X19045252Y-9854452D02*
X19045252Y-9794348D01*
X18985148Y-9794348D01*
X18985148Y-9854452D01*
X19045252Y-9854452D01*
X19245252Y-9854452D02*
X19245252Y-9794348D01*
X19185148Y-9794348D01*
X19185148Y-9854452D01*
X19245252Y-9854452D01*
X19445252Y-9854452D02*
X19445252Y-9794348D01*
X19385148Y-9794348D01*
X19385148Y-9854452D01*
X19445252Y-9854452D01*
X19645252Y-9854452D02*
X19645252Y-9794348D01*
X19585148Y-9794348D01*
X19585148Y-9854452D01*
X19645252Y-9854452D01*
X19845252Y-9854452D02*
X19845252Y-9794348D01*
X19785148Y-9794348D01*
X19785148Y-9854452D01*
X19845252Y-9854452D01*
X20045252Y-9854452D02*
X20045252Y-9794348D01*
X19985148Y-9794348D01*
X19985148Y-9854452D01*
X20045252Y-9854452D01*
D16*
X16252000Y-9854800D02*
X16297000Y-9809800D01*
X16252000Y-9764800D01*
X16207000Y-9809800D01*
X16252000Y-9854800D01*
X16452000Y-9854800D02*
X16497000Y-9809800D01*
X16452000Y-9764800D01*
X16407000Y-9809800D01*
X16452000Y-9854800D01*
X16652000Y-9854800D02*
X16697000Y-9809800D01*
X16652000Y-9764800D01*
X16607000Y-9809800D01*
X16652000Y-9854800D01*
X16852000Y-9854800D02*
X16897000Y-9809800D01*
X16852000Y-9764800D01*
X16807000Y-9809800D01*
X16852000Y-9854800D01*
X17052000Y-9854800D02*
X17097000Y-9809800D01*
X17052000Y-9764800D01*
X17007000Y-9809800D01*
X17052000Y-9854800D01*
D10*
X12015000Y-5665000D02*
X12115000Y-5765000D01*
X12115000Y-5665000D02*
X12015000Y-5765000D01*
X12115000Y-5715000D02*
G75*
G03*
X12115000Y-5715000I-50000J0D01*
G01*
X12015000Y-5919000D02*
X12115000Y-6019000D01*
X12115000Y-5919000D02*
X12015000Y-6019000D01*
X12115000Y-5969000D02*
G75*
G03*
X12115000Y-5969000I-50000J0D01*
G01*
X12015000Y-6173000D02*
X12115000Y-6273000D01*
X12115000Y-6173000D02*
X12015000Y-6273000D01*
X12115000Y-6223000D02*
G75*
G03*
X12115000Y-6223000I-50000J0D01*
G01*
X12015000Y-6427000D02*
X12115000Y-6527000D01*
X12115000Y-6427000D02*
X12015000Y-6527000D01*
X12115000Y-6477000D02*
G75*
G03*
X12115000Y-6477000I-50000J0D01*
G01*
X12015000Y-6681000D02*
X12115000Y-6781000D01*
X12115000Y-6681000D02*
X12015000Y-6781000D01*
X12115000Y-6731000D02*
G75*
G03*
X12115000Y-6731000I-50000J0D01*
G01*
X12015000Y-6935000D02*
X12115000Y-7035000D01*
X12115000Y-6935000D02*
X12015000Y-7035000D01*
X12115000Y-6985000D02*
G75*
G03*
X12115000Y-6985000I-50000J0D01*
G01*
X12015000Y-7189000D02*
X12115000Y-7289000D01*
X12115000Y-7189000D02*
X12015000Y-7289000D01*
X12115000Y-7239000D02*
G75*
G03*
X12115000Y-7239000I-50000J0D01*
G01*
X12015000Y-7697000D02*
X12115000Y-7797000D01*
X12115000Y-7697000D02*
X12015000Y-7797000D01*
X12115000Y-7747000D02*
G75*
G03*
X12115000Y-7747000I-50000J0D01*
G01*
X12015000Y-7951000D02*
X12115000Y-8051000D01*
X12115000Y-7951000D02*
X12015000Y-8051000D01*
X12115000Y-8001000D02*
G75*
G03*
X12115000Y-8001000I-50000J0D01*
G01*
X12015000Y-8459000D02*
X12115000Y-8559000D01*
X12115000Y-8459000D02*
X12015000Y-8559000D01*
X12115000Y-8509000D02*
G75*
G03*
X12115000Y-8509000I-50000J0D01*
G01*
X12015000Y-8713000D02*
X12115000Y-8813000D01*
X12115000Y-8713000D02*
X12015000Y-8813000D01*
X12115000Y-8763000D02*
G75*
G03*
X12115000Y-8763000I-50000J0D01*
G01*
X12776000Y-5284000D02*
X12876000Y-5384000D01*
X12876000Y-5284000D02*
X12776000Y-5384000D01*
X12876000Y-5334000D02*
G75*
G03*
X12876000Y-5334000I-50000J0D01*
G01*
X12776000Y-5538000D02*
X12876000Y-5638000D01*
X12876000Y-5538000D02*
X12776000Y-5638000D01*
X12876000Y-5588000D02*
G75*
G03*
X12876000Y-5588000I-50000J0D01*
G01*
X12776000Y-5792000D02*
X12876000Y-5892000D01*
X12876000Y-5792000D02*
X12776000Y-5892000D01*
X12876000Y-5842000D02*
G75*
G03*
X12876000Y-5842000I-50000J0D01*
G01*
X12776000Y-6046000D02*
X12876000Y-6146000D01*
X12876000Y-6046000D02*
X12776000Y-6146000D01*
X12876000Y-6096000D02*
G75*
G03*
X12876000Y-6096000I-50000J0D01*
G01*
X12776000Y-6300000D02*
X12876000Y-6400000D01*
X12876000Y-6300000D02*
X12776000Y-6400000D01*
X12876000Y-6350000D02*
G75*
G03*
X12876000Y-6350000I-50000J0D01*
G01*
X12776000Y-6554000D02*
X12876000Y-6654000D01*
X12876000Y-6554000D02*
X12776000Y-6654000D01*
X12876000Y-6604000D02*
G75*
G03*
X12876000Y-6604000I-50000J0D01*
G01*
X12776000Y-6808000D02*
X12876000Y-6908000D01*
X12876000Y-6808000D02*
X12776000Y-6908000D01*
X12876000Y-6858000D02*
G75*
G03*
X12876000Y-6858000I-50000J0D01*
G01*
X12776000Y-7062000D02*
X12876000Y-7162000D01*
X12876000Y-7062000D02*
X12776000Y-7162000D01*
X12876000Y-7112000D02*
G75*
G03*
X12876000Y-7112000I-50000J0D01*
G01*
X12776000Y-7316000D02*
X12876000Y-7416000D01*
X12876000Y-7316000D02*
X12776000Y-7416000D01*
X12876000Y-7366000D02*
G75*
G03*
X12876000Y-7366000I-50000J0D01*
G01*
X12776000Y-7570000D02*
X12876000Y-7670000D01*
X12876000Y-7570000D02*
X12776000Y-7670000D01*
X12876000Y-7620000D02*
G75*
G03*
X12876000Y-7620000I-50000J0D01*
G01*
X12776000Y-7824000D02*
X12876000Y-7924000D01*
X12876000Y-7824000D02*
X12776000Y-7924000D01*
X12876000Y-7874000D02*
G75*
G03*
X12876000Y-7874000I-50000J0D01*
G01*
X12776000Y-8078000D02*
X12876000Y-8178000D01*
X12876000Y-8078000D02*
X12776000Y-8178000D01*
X12876000Y-8128000D02*
G75*
G03*
X12876000Y-8128000I-50000J0D01*
G01*
X12776000Y-8332000D02*
X12876000Y-8432000D01*
X12876000Y-8332000D02*
X12776000Y-8432000D01*
X12876000Y-8382000D02*
G75*
G03*
X12876000Y-8382000I-50000J0D01*
G01*
X12776000Y-8586000D02*
X12876000Y-8686000D01*
X12876000Y-8586000D02*
X12776000Y-8686000D01*
X12876000Y-8636000D02*
G75*
G03*
X12876000Y-8636000I-50000J0D01*
G01*
X12776000Y-8840000D02*
X12876000Y-8940000D01*
X12876000Y-8840000D02*
X12776000Y-8940000D01*
X12876000Y-8890000D02*
G75*
G03*
X12876000Y-8890000I-50000J0D01*
G01*
X12777000Y-9696100D02*
X12877000Y-9796100D01*
X12877000Y-9696100D02*
X12777000Y-9796100D01*
X12877000Y-9746100D02*
G75*
G03*
X12877000Y-9746100I-50000J0D01*
G01*
X13031000Y-9696100D02*
X13131000Y-9796100D01*
X13131000Y-9696100D02*
X13031000Y-9796100D01*
X13131000Y-9746100D02*
G75*
G03*
X13131000Y-9746100I-50000J0D01*
G01*
X13285000Y-9696100D02*
X13385000Y-9796100D01*
X13385000Y-9696100D02*
X13285000Y-9796100D01*
X13385000Y-9746100D02*
G75*
G03*
X13385000Y-9746100I-50000J0D01*
G01*
X13793000Y-9696100D02*
X13893000Y-9796100D01*
X13893000Y-9696100D02*
X13793000Y-9796100D01*
X13893000Y-9746100D02*
G75*
G03*
X13893000Y-9746100I-50000J0D01*
G01*
X14047000Y-9696100D02*
X14147000Y-9796100D01*
X14147000Y-9696100D02*
X14047000Y-9796100D01*
X14147000Y-9746100D02*
G75*
G03*
X14147000Y-9746100I-50000J0D01*
G01*
X14300000Y-5284000D02*
X14400000Y-5384000D01*
X14400000Y-5284000D02*
X14300000Y-5384000D01*
X14400000Y-5334000D02*
G75*
G03*
X14400000Y-5334000I-50000J0D01*
G01*
X14300000Y-5538000D02*
X14400000Y-5638000D01*
X14400000Y-5538000D02*
X14300000Y-5638000D01*
X14400000Y-5588000D02*
G75*
G03*
X14400000Y-5588000I-50000J0D01*
G01*
X14300000Y-5792000D02*
X14400000Y-5892000D01*
X14400000Y-5792000D02*
X14300000Y-5892000D01*
X14400000Y-5842000D02*
G75*
G03*
X14400000Y-5842000I-50000J0D01*
G01*
X14300000Y-6046000D02*
X14400000Y-6146000D01*
X14400000Y-6046000D02*
X14300000Y-6146000D01*
X14400000Y-6096000D02*
G75*
G03*
X14400000Y-6096000I-50000J0D01*
G01*
X14300000Y-6300000D02*
X14400000Y-6400000D01*
X14400000Y-6300000D02*
X14300000Y-6400000D01*
X14400000Y-6350000D02*
G75*
G03*
X14400000Y-6350000I-50000J0D01*
G01*
X14300000Y-6554000D02*
X14400000Y-6654000D01*
X14400000Y-6554000D02*
X14300000Y-6654000D01*
X14400000Y-6604000D02*
G75*
G03*
X14400000Y-6604000I-50000J0D01*
G01*
X14300000Y-6808000D02*
X14400000Y-6908000D01*
X14400000Y-6808000D02*
X14300000Y-6908000D01*
X14400000Y-6858000D02*
G75*
G03*
X14400000Y-6858000I-50000J0D01*
G01*
X14300000Y-7062000D02*
X14400000Y-7162000D01*
X14400000Y-7062000D02*
X14300000Y-7162000D01*
X14400000Y-7112000D02*
G75*
G03*
X14400000Y-7112000I-50000J0D01*
G01*
X14300000Y-7316000D02*
X14400000Y-7416000D01*
X14400000Y-7316000D02*
X14300000Y-7416000D01*
X14400000Y-7366000D02*
G75*
G03*
X14400000Y-7366000I-50000J0D01*
G01*
X14300000Y-7570000D02*
X14400000Y-7670000D01*
X14400000Y-7570000D02*
X14300000Y-7670000D01*
X14400000Y-7620000D02*
G75*
G03*
X14400000Y-7620000I-50000J0D01*
G01*
X14300000Y-7824000D02*
X14400000Y-7924000D01*
X14400000Y-7824000D02*
X14300000Y-7924000D01*
X14400000Y-7874000D02*
G75*
G03*
X14400000Y-7874000I-50000J0D01*
G01*
X14300000Y-8078000D02*
X14400000Y-8178000D01*
X14400000Y-8078000D02*
X14300000Y-8178000D01*
X14400000Y-8128000D02*
G75*
G03*
X14400000Y-8128000I-50000J0D01*
G01*
X14300000Y-8332000D02*
X14400000Y-8432000D01*
X14400000Y-8332000D02*
X14300000Y-8432000D01*
X14400000Y-8382000D02*
G75*
G03*
X14400000Y-8382000I-50000J0D01*
G01*
X14300000Y-8586000D02*
X14400000Y-8686000D01*
X14400000Y-8586000D02*
X14300000Y-8686000D01*
X14400000Y-8636000D02*
G75*
G03*
X14400000Y-8636000I-50000J0D01*
G01*
X14300000Y-8840000D02*
X14400000Y-8940000D01*
X14400000Y-8840000D02*
X14300000Y-8940000D01*
X14400000Y-8890000D02*
G75*
G03*
X14400000Y-8890000I-50000J0D01*
G01*
X14301000Y-9696100D02*
X14401000Y-9796100D01*
X14401000Y-9696100D02*
X14301000Y-9796100D01*
X14401000Y-9746100D02*
G75*
G03*
X14401000Y-9746100I-50000J0D01*
G01*
X15063000Y-6681000D02*
X15163000Y-6781000D01*
X15163000Y-6681000D02*
X15063000Y-6781000D01*
X15163000Y-6731000D02*
G75*
G03*
X15163000Y-6731000I-50000J0D01*
G01*
X15063000Y-6935000D02*
X15163000Y-7035000D01*
X15163000Y-6935000D02*
X15063000Y-7035000D01*
X15163000Y-6985000D02*
G75*
G03*
X15163000Y-6985000I-50000J0D01*
G01*
X15063000Y-7189000D02*
X15163000Y-7289000D01*
X15163000Y-7189000D02*
X15063000Y-7289000D01*
X15163000Y-7239000D02*
G75*
G03*
X15163000Y-7239000I-50000J0D01*
G01*
X15063000Y-7443000D02*
X15163000Y-7543000D01*
X15163000Y-7443000D02*
X15063000Y-7543000D01*
X15163000Y-7493000D02*
G75*
G03*
X15163000Y-7493000I-50000J0D01*
G01*
X15063000Y-7697000D02*
X15163000Y-7797000D01*
X15163000Y-7697000D02*
X15063000Y-7797000D01*
X15163000Y-7747000D02*
G75*
G03*
X15163000Y-7747000I-50000J0D01*
G01*
X15063000Y-7951000D02*
X15163000Y-8051000D01*
X15163000Y-7951000D02*
X15063000Y-8051000D01*
X15163000Y-8001000D02*
G75*
G03*
X15163000Y-8001000I-50000J0D01*
G01*
D17*
X14910000Y-9652200D02*
X15062000Y-9804200D01*
X15062000Y-9652200D02*
X14910000Y-9804200D01*
X14986000Y-9652200D02*
X14986000Y-9804200D01*
X14910000Y-9728200D02*
X15062000Y-9728200D01*
X15418000Y-9652200D02*
X15570000Y-9804200D01*
X15570000Y-9652200D02*
X15418000Y-9804200D01*
X15494000Y-9652200D02*
X15494000Y-9804200D01*
X15418000Y-9728200D02*
X15570000Y-9728200D01*
D11*
X11936619Y-10475476D02*
X11936619Y-10275476D01*
X11984238Y-10275476D01*
X12012809Y-10285000D01*
X12031857Y-10304048D01*
X12041381Y-10323095D01*
X12050905Y-10361190D01*
X12050905Y-10389762D01*
X12041381Y-10427857D01*
X12031857Y-10446905D01*
X12012809Y-10465952D01*
X11984238Y-10475476D01*
X11936619Y-10475476D01*
X12136619Y-10475476D02*
X12136619Y-10342143D01*
X12136619Y-10380238D02*
X12146143Y-10361190D01*
X12155667Y-10351667D01*
X12174714Y-10342143D01*
X12193762Y-10342143D01*
X12260428Y-10475476D02*
X12260428Y-10342143D01*
X12260428Y-10275476D02*
X12250905Y-10285000D01*
X12260428Y-10294524D01*
X12269952Y-10285000D01*
X12260428Y-10275476D01*
X12260428Y-10294524D01*
X12384238Y-10475476D02*
X12365190Y-10465952D01*
X12355667Y-10446905D01*
X12355667Y-10275476D01*
X12489000Y-10475476D02*
X12469952Y-10465952D01*
X12460428Y-10446905D01*
X12460428Y-10275476D01*
X12717571Y-10475476D02*
X12717571Y-10275476D01*
X12784238Y-10418333D01*
X12850905Y-10275476D01*
X12850905Y-10475476D01*
X13031857Y-10475476D02*
X13031857Y-10370714D01*
X13022333Y-10351667D01*
X13003286Y-10342143D01*
X12965190Y-10342143D01*
X12946143Y-10351667D01*
X13031857Y-10465952D02*
X13012809Y-10475476D01*
X12965190Y-10475476D01*
X12946143Y-10465952D01*
X12936619Y-10446905D01*
X12936619Y-10427857D01*
X12946143Y-10408810D01*
X12965190Y-10399286D01*
X13012809Y-10399286D01*
X13031857Y-10389762D01*
X13127095Y-10342143D02*
X13127095Y-10542143D01*
X13127095Y-10351667D02*
X13146143Y-10342143D01*
X13184238Y-10342143D01*
X13203286Y-10351667D01*
X13212809Y-10361190D01*
X13222333Y-10380238D01*
X13222333Y-10437381D01*
X13212809Y-10456429D01*
X13203286Y-10465952D01*
X13184238Y-10475476D01*
X13146143Y-10475476D01*
X13127095Y-10465952D01*
X13308048Y-10456429D02*
X13317571Y-10465952D01*
X13308048Y-10475476D01*
X13298524Y-10465952D01*
X13308048Y-10456429D01*
X13308048Y-10475476D01*
X13308048Y-10351667D02*
X13317571Y-10361190D01*
X13308048Y-10370714D01*
X13298524Y-10361190D01*
X13308048Y-10351667D01*
X13308048Y-10370714D01*
D12*
X11639000Y-10785000D02*
X11679000Y-10825000D01*
X11679000Y-10785000D02*
X11639000Y-10825000D01*
D11*
X11974714Y-10695476D02*
X11993762Y-10695476D01*
X12012809Y-10705000D01*
X12022333Y-10714524D01*
X12031857Y-10733571D01*
X12041381Y-10771667D01*
X12041381Y-10819286D01*
X12031857Y-10857381D01*
X12022333Y-10876429D01*
X12012809Y-10885952D01*
X11993762Y-10895476D01*
X11974714Y-10895476D01*
X11955667Y-10885952D01*
X11946143Y-10876429D01*
X11936619Y-10857381D01*
X11927095Y-10819286D01*
X11927095Y-10771667D01*
X11936619Y-10733571D01*
X11946143Y-10714524D01*
X11955667Y-10705000D01*
X11974714Y-10695476D01*
X12127095Y-10876429D02*
X12136619Y-10885952D01*
X12127095Y-10895476D01*
X12117571Y-10885952D01*
X12127095Y-10876429D01*
X12127095Y-10895476D01*
X12308048Y-10762143D02*
X12308048Y-10895476D01*
X12260428Y-10685952D02*
X12212809Y-10828810D01*
X12336619Y-10828810D01*
X12450905Y-10695476D02*
X12469952Y-10695476D01*
X12489000Y-10705000D01*
X12498524Y-10714524D01*
X12508048Y-10733571D01*
X12517571Y-10771667D01*
X12517571Y-10819286D01*
X12508048Y-10857381D01*
X12498524Y-10876429D01*
X12489000Y-10885952D01*
X12469952Y-10895476D01*
X12450905Y-10895476D01*
X12431857Y-10885952D01*
X12422333Y-10876429D01*
X12412809Y-10857381D01*
X12403286Y-10819286D01*
X12403286Y-10771667D01*
X12412809Y-10733571D01*
X12422333Y-10714524D01*
X12431857Y-10705000D01*
X12450905Y-10695476D01*
X12641381Y-10695476D02*
X12660428Y-10695476D01*
X12679476Y-10705000D01*
X12689000Y-10714524D01*
X12698524Y-10733571D01*
X12708048Y-10771667D01*
X12708048Y-10819286D01*
X12698524Y-10857381D01*
X12689000Y-10876429D01*
X12679476Y-10885952D01*
X12660428Y-10895476D01*
X12641381Y-10895476D01*
X12622333Y-10885952D01*
X12612809Y-10876429D01*
X12603286Y-10857381D01*
X12593762Y-10819286D01*
X12593762Y-10771667D01*
X12603286Y-10733571D01*
X12612809Y-10714524D01*
X12622333Y-10705000D01*
X12641381Y-10695476D01*
X12793762Y-10895476D02*
X12793762Y-10762143D01*
X12793762Y-10781190D02*
X12803286Y-10771667D01*
X12822333Y-10762143D01*
X12850905Y-10762143D01*
X12869952Y-10771667D01*
X12879476Y-10790714D01*
X12879476Y-10895476D01*
X12879476Y-10790714D02*
X12889000Y-10771667D01*
X12908048Y-10762143D01*
X12936619Y-10762143D01*
X12955667Y-10771667D01*
X12965190Y-10790714D01*
X12965190Y-10895476D01*
X13060428Y-10895476D02*
X13060428Y-10762143D01*
X13060428Y-10781190D02*
X13069952Y-10771667D01*
X13089000Y-10762143D01*
X13117571Y-10762143D01*
X13136619Y-10771667D01*
X13146143Y-10790714D01*
X13146143Y-10895476D01*
X13146143Y-10790714D02*
X13155667Y-10771667D01*
X13174714Y-10762143D01*
X13203286Y-10762143D01*
X13222333Y-10771667D01*
X13231857Y-10790714D01*
X13231857Y-10895476D01*
X13622333Y-10685952D02*
X13450905Y-10943095D01*
X13879476Y-10695476D02*
X13898524Y-10695476D01*
X13917571Y-10705000D01*
X13927095Y-10714524D01*
X13936619Y-10733571D01*
X13946143Y-10771667D01*
X13946143Y-10819286D01*
X13936619Y-10857381D01*
X13927095Y-10876429D01*
X13917571Y-10885952D01*
X13898524Y-10895476D01*
X13879476Y-10895476D01*
X13860428Y-10885952D01*
X13850905Y-10876429D01*
X13841381Y-10857381D01*
X13831857Y-10819286D01*
X13831857Y-10771667D01*
X13841381Y-10733571D01*
X13850905Y-10714524D01*
X13860428Y-10705000D01*
X13879476Y-10695476D01*
X14031857Y-10876429D02*
X14041381Y-10885952D01*
X14031857Y-10895476D01*
X14022333Y-10885952D01*
X14031857Y-10876429D01*
X14031857Y-10895476D01*
X14165190Y-10695476D02*
X14184238Y-10695476D01*
X14203286Y-10705000D01*
X14212809Y-10714524D01*
X14222333Y-10733571D01*
X14231857Y-10771667D01*
X14231857Y-10819286D01*
X14222333Y-10857381D01*
X14212809Y-10876429D01*
X14203286Y-10885952D01*
X14184238Y-10895476D01*
X14165190Y-10895476D01*
X14146143Y-10885952D01*
X14136619Y-10876429D01*
X14127095Y-10857381D01*
X14117571Y-10819286D01*
X14117571Y-10771667D01*
X14127095Y-10733571D01*
X14136619Y-10714524D01*
X14146143Y-10705000D01*
X14165190Y-10695476D01*
X14422333Y-10895476D02*
X14308048Y-10895476D01*
X14365190Y-10895476D02*
X14365190Y-10695476D01*
X14346143Y-10724048D01*
X14327095Y-10743095D01*
X14308048Y-10752619D01*
X14603286Y-10695476D02*
X14508048Y-10695476D01*
X14498524Y-10790714D01*
X14508048Y-10781190D01*
X14527095Y-10771667D01*
X14574714Y-10771667D01*
X14593762Y-10781190D01*
X14603286Y-10790714D01*
X14612809Y-10809762D01*
X14612809Y-10857381D01*
X14603286Y-10876429D01*
X14593762Y-10885952D01*
X14574714Y-10895476D01*
X14527095Y-10895476D01*
X14508048Y-10885952D01*
X14498524Y-10876429D01*
X14679476Y-10695476D02*
X14812809Y-10695476D01*
X14727095Y-10895476D01*
X14879476Y-10695476D02*
X14879476Y-10733571D01*
X14955667Y-10695476D02*
X14955667Y-10733571D01*
X15250905Y-10971667D02*
X15241381Y-10962143D01*
X15222333Y-10933571D01*
X15212809Y-10914524D01*
X15203286Y-10885952D01*
X15193762Y-10838333D01*
X15193762Y-10800238D01*
X15203286Y-10752619D01*
X15212809Y-10724048D01*
X15222333Y-10705000D01*
X15241381Y-10676429D01*
X15250905Y-10666905D01*
X15431857Y-10895476D02*
X15317571Y-10895476D01*
X15374714Y-10895476D02*
X15374714Y-10695476D01*
X15355667Y-10724048D01*
X15336619Y-10743095D01*
X15317571Y-10752619D01*
X15555667Y-10695476D02*
X15574714Y-10695476D01*
X15593762Y-10705000D01*
X15603286Y-10714524D01*
X15612809Y-10733571D01*
X15622333Y-10771667D01*
X15622333Y-10819286D01*
X15612809Y-10857381D01*
X15603286Y-10876429D01*
X15593762Y-10885952D01*
X15574714Y-10895476D01*
X15555667Y-10895476D01*
X15536619Y-10885952D01*
X15527095Y-10876429D01*
X15517571Y-10857381D01*
X15508048Y-10819286D01*
X15508048Y-10771667D01*
X15517571Y-10733571D01*
X15527095Y-10714524D01*
X15536619Y-10705000D01*
X15555667Y-10695476D01*
X15860428Y-10895476D02*
X15860428Y-10695476D01*
X15946143Y-10895476D02*
X15946143Y-10790714D01*
X15936619Y-10771667D01*
X15917571Y-10762143D01*
X15889000Y-10762143D01*
X15869952Y-10771667D01*
X15860428Y-10781190D01*
X16069952Y-10895476D02*
X16050905Y-10885952D01*
X16041381Y-10876429D01*
X16031857Y-10857381D01*
X16031857Y-10800238D01*
X16041381Y-10781190D01*
X16050905Y-10771667D01*
X16069952Y-10762143D01*
X16098524Y-10762143D01*
X16117571Y-10771667D01*
X16127095Y-10781190D01*
X16136619Y-10800238D01*
X16136619Y-10857381D01*
X16127095Y-10876429D01*
X16117571Y-10885952D01*
X16098524Y-10895476D01*
X16069952Y-10895476D01*
X16250905Y-10895476D02*
X16231857Y-10885952D01*
X16222333Y-10866905D01*
X16222333Y-10695476D01*
X16403286Y-10885952D02*
X16384238Y-10895476D01*
X16346143Y-10895476D01*
X16327095Y-10885952D01*
X16317571Y-10866905D01*
X16317571Y-10790714D01*
X16327095Y-10771667D01*
X16346143Y-10762143D01*
X16384238Y-10762143D01*
X16403286Y-10771667D01*
X16412809Y-10790714D01*
X16412809Y-10809762D01*
X16317571Y-10828810D01*
X16489000Y-10885952D02*
X16508048Y-10895476D01*
X16546143Y-10895476D01*
X16565190Y-10885952D01*
X16574714Y-10866905D01*
X16574714Y-10857381D01*
X16565190Y-10838333D01*
X16546143Y-10828810D01*
X16517571Y-10828810D01*
X16498524Y-10819286D01*
X16489000Y-10800238D01*
X16489000Y-10790714D01*
X16498524Y-10771667D01*
X16517571Y-10762143D01*
X16546143Y-10762143D01*
X16565190Y-10771667D01*
X16641381Y-10971667D02*
X16650905Y-10962143D01*
X16669952Y-10933571D01*
X16679476Y-10914524D01*
X16689000Y-10885952D01*
X16698524Y-10838333D01*
X16698524Y-10800238D01*
X16689000Y-10752619D01*
X16679476Y-10724048D01*
X16669952Y-10705000D01*
X16650905Y-10676429D01*
X16641381Y-10666905D01*
D13*
X11679000Y-11069000D02*
G75*
G03*
X11679000Y-11069000I-35000J0D01*
G01*
D11*
X11974714Y-10959476D02*
X11993762Y-10959476D01*
X12012809Y-10969000D01*
X12022333Y-10978524D01*
X12031857Y-10997571D01*
X12041381Y-11035667D01*
X12041381Y-11083286D01*
X12031857Y-11121381D01*
X12022333Y-11140429D01*
X12012809Y-11149952D01*
X11993762Y-11159476D01*
X11974714Y-11159476D01*
X11955667Y-11149952D01*
X11946143Y-11140429D01*
X11936619Y-11121381D01*
X11927095Y-11083286D01*
X11927095Y-11035667D01*
X11936619Y-10997571D01*
X11946143Y-10978524D01*
X11955667Y-10969000D01*
X11974714Y-10959476D01*
X12127095Y-11140429D02*
X12136619Y-11149952D01*
X12127095Y-11159476D01*
X12117571Y-11149952D01*
X12127095Y-11140429D01*
X12127095Y-11159476D01*
X12203286Y-10959476D02*
X12336619Y-10959476D01*
X12250905Y-11159476D01*
X12450905Y-10959476D02*
X12469952Y-10959476D01*
X12489000Y-10969000D01*
X12498524Y-10978524D01*
X12508048Y-10997571D01*
X12517571Y-11035667D01*
X12517571Y-11083286D01*
X12508048Y-11121381D01*
X12498524Y-11140429D01*
X12489000Y-11149952D01*
X12469952Y-11159476D01*
X12450905Y-11159476D01*
X12431857Y-11149952D01*
X12422333Y-11140429D01*
X12412809Y-11121381D01*
X12403286Y-11083286D01*
X12403286Y-11035667D01*
X12412809Y-10997571D01*
X12422333Y-10978524D01*
X12431857Y-10969000D01*
X12450905Y-10959476D01*
X12641381Y-10959476D02*
X12660428Y-10959476D01*
X12679476Y-10969000D01*
X12689000Y-10978524D01*
X12698524Y-10997571D01*
X12708048Y-11035667D01*
X12708048Y-11083286D01*
X12698524Y-11121381D01*
X12689000Y-11140429D01*
X12679476Y-11149952D01*
X12660428Y-11159476D01*
X12641381Y-11159476D01*
X12622333Y-11149952D01*
X12612809Y-11140429D01*
X12603286Y-11121381D01*
X12593762Y-11083286D01*
X12593762Y-11035667D01*
X12603286Y-10997571D01*
X12612809Y-10978524D01*
X12622333Y-10969000D01*
X12641381Y-10959476D01*
X12793762Y-11159476D02*
X12793762Y-11026143D01*
X12793762Y-11045190D02*
X12803286Y-11035667D01*
X12822333Y-11026143D01*
X12850905Y-11026143D01*
X12869952Y-11035667D01*
X12879476Y-11054714D01*
X12879476Y-11159476D01*
X12879476Y-11054714D02*
X12889000Y-11035667D01*
X12908048Y-11026143D01*
X12936619Y-11026143D01*
X12955667Y-11035667D01*
X12965190Y-11054714D01*
X12965190Y-11159476D01*
X13060428Y-11159476D02*
X13060428Y-11026143D01*
X13060428Y-11045190D02*
X13069952Y-11035667D01*
X13089000Y-11026143D01*
X13117571Y-11026143D01*
X13136619Y-11035667D01*
X13146143Y-11054714D01*
X13146143Y-11159476D01*
X13146143Y-11054714D02*
X13155667Y-11035667D01*
X13174714Y-11026143D01*
X13203286Y-11026143D01*
X13222333Y-11035667D01*
X13231857Y-11054714D01*
X13231857Y-11159476D01*
X13622333Y-10949952D02*
X13450905Y-11207095D01*
X13879476Y-10959476D02*
X13898524Y-10959476D01*
X13917571Y-10969000D01*
X13927095Y-10978524D01*
X13936619Y-10997571D01*
X13946143Y-11035667D01*
X13946143Y-11083286D01*
X13936619Y-11121381D01*
X13927095Y-11140429D01*
X13917571Y-11149952D01*
X13898524Y-11159476D01*
X13879476Y-11159476D01*
X13860428Y-11149952D01*
X13850905Y-11140429D01*
X13841381Y-11121381D01*
X13831857Y-11083286D01*
X13831857Y-11035667D01*
X13841381Y-10997571D01*
X13850905Y-10978524D01*
X13860428Y-10969000D01*
X13879476Y-10959476D01*
X14031857Y-11140429D02*
X14041381Y-11149952D01*
X14031857Y-11159476D01*
X14022333Y-11149952D01*
X14031857Y-11140429D01*
X14031857Y-11159476D01*
X14165190Y-10959476D02*
X14184238Y-10959476D01*
X14203286Y-10969000D01*
X14212809Y-10978524D01*
X14222333Y-10997571D01*
X14231857Y-11035667D01*
X14231857Y-11083286D01*
X14222333Y-11121381D01*
X14212809Y-11140429D01*
X14203286Y-11149952D01*
X14184238Y-11159476D01*
X14165190Y-11159476D01*
X14146143Y-11149952D01*
X14136619Y-11140429D01*
X14127095Y-11121381D01*
X14117571Y-11083286D01*
X14117571Y-11035667D01*
X14127095Y-10997571D01*
X14136619Y-10978524D01*
X14146143Y-10969000D01*
X14165190Y-10959476D01*
X14308048Y-10978524D02*
X14317571Y-10969000D01*
X14336619Y-10959476D01*
X14384238Y-10959476D01*
X14403286Y-10969000D01*
X14412809Y-10978524D01*
X14422333Y-10997571D01*
X14422333Y-11016619D01*
X14412809Y-11045190D01*
X14298524Y-11159476D01*
X14422333Y-11159476D01*
X14489000Y-10959476D02*
X14622333Y-10959476D01*
X14536619Y-11159476D01*
X14784238Y-10959476D02*
X14746143Y-10959476D01*
X14727095Y-10969000D01*
X14717571Y-10978524D01*
X14698524Y-11007095D01*
X14689000Y-11045190D01*
X14689000Y-11121381D01*
X14698524Y-11140429D01*
X14708048Y-11149952D01*
X14727095Y-11159476D01*
X14765190Y-11159476D01*
X14784238Y-11149952D01*
X14793762Y-11140429D01*
X14803286Y-11121381D01*
X14803286Y-11073762D01*
X14793762Y-11054714D01*
X14784238Y-11045190D01*
X14765190Y-11035667D01*
X14727095Y-11035667D01*
X14708048Y-11045190D01*
X14698524Y-11054714D01*
X14689000Y-11073762D01*
X14879476Y-10959476D02*
X14879476Y-10997571D01*
X14955667Y-10959476D02*
X14955667Y-10997571D01*
X15250905Y-11235667D02*
X15241381Y-11226143D01*
X15222333Y-11197571D01*
X15212809Y-11178524D01*
X15203286Y-11149952D01*
X15193762Y-11102333D01*
X15193762Y-11064238D01*
X15203286Y-11016619D01*
X15212809Y-10988048D01*
X15222333Y-10969000D01*
X15241381Y-10940429D01*
X15250905Y-10930905D01*
X15317571Y-10978524D02*
X15327095Y-10969000D01*
X15346143Y-10959476D01*
X15393762Y-10959476D01*
X15412809Y-10969000D01*
X15422333Y-10978524D01*
X15431857Y-10997571D01*
X15431857Y-11016619D01*
X15422333Y-11045190D01*
X15308048Y-11159476D01*
X15431857Y-11159476D01*
X15669952Y-11159476D02*
X15669952Y-10959476D01*
X15755667Y-11159476D02*
X15755667Y-11054714D01*
X15746143Y-11035667D01*
X15727095Y-11026143D01*
X15698524Y-11026143D01*
X15679476Y-11035667D01*
X15669952Y-11045190D01*
X15879476Y-11159476D02*
X15860428Y-11149952D01*
X15850905Y-11140429D01*
X15841381Y-11121381D01*
X15841381Y-11064238D01*
X15850905Y-11045190D01*
X15860428Y-11035667D01*
X15879476Y-11026143D01*
X15908048Y-11026143D01*
X15927095Y-11035667D01*
X15936619Y-11045190D01*
X15946143Y-11064238D01*
X15946143Y-11121381D01*
X15936619Y-11140429D01*
X15927095Y-11149952D01*
X15908048Y-11159476D01*
X15879476Y-11159476D01*
X16060428Y-11159476D02*
X16041381Y-11149952D01*
X16031857Y-11130905D01*
X16031857Y-10959476D01*
X16212809Y-11149952D02*
X16193762Y-11159476D01*
X16155667Y-11159476D01*
X16136619Y-11149952D01*
X16127095Y-11130905D01*
X16127095Y-11054714D01*
X16136619Y-11035667D01*
X16155667Y-11026143D01*
X16193762Y-11026143D01*
X16212809Y-11035667D01*
X16222333Y-11054714D01*
X16222333Y-11073762D01*
X16127095Y-11092810D01*
X16298524Y-11149952D02*
X16317571Y-11159476D01*
X16355667Y-11159476D01*
X16374714Y-11149952D01*
X16384238Y-11130905D01*
X16384238Y-11121381D01*
X16374714Y-11102333D01*
X16355667Y-11092810D01*
X16327095Y-11092810D01*
X16308048Y-11083286D01*
X16298524Y-11064238D01*
X16298524Y-11054714D01*
X16308048Y-11035667D01*
X16327095Y-11026143D01*
X16355667Y-11026143D01*
X16374714Y-11035667D01*
X16450905Y-11235667D02*
X16460428Y-11226143D01*
X16479476Y-11197571D01*
X16489000Y-11178524D01*
X16498524Y-11149952D01*
X16508048Y-11102333D01*
X16508048Y-11064238D01*
X16498524Y-11016619D01*
X16489000Y-10988048D01*
X16479476Y-10969000D01*
X16460428Y-10940429D01*
X16450905Y-10930905D01*
D14*
X11639000Y-11293000D02*
X11639000Y-11373000D01*
X11599000Y-11333000D02*
X11679000Y-11333000D01*
D11*
X11974714Y-11223476D02*
X11993762Y-11223476D01*
X12012809Y-11233000D01*
X12022333Y-11242524D01*
X12031857Y-11261571D01*
X12041381Y-11299667D01*
X12041381Y-11347286D01*
X12031857Y-11385381D01*
X12022333Y-11404428D01*
X12012809Y-11413952D01*
X11993762Y-11423476D01*
X11974714Y-11423476D01*
X11955667Y-11413952D01*
X11946143Y-11404428D01*
X11936619Y-11385381D01*
X11927095Y-11347286D01*
X11927095Y-11299667D01*
X11936619Y-11261571D01*
X11946143Y-11242524D01*
X11955667Y-11233000D01*
X11974714Y-11223476D01*
X12127095Y-11404428D02*
X12136619Y-11413952D01*
X12127095Y-11423476D01*
X12117571Y-11413952D01*
X12127095Y-11404428D01*
X12127095Y-11423476D01*
X12250905Y-11309190D02*
X12231857Y-11299667D01*
X12222333Y-11290143D01*
X12212809Y-11271095D01*
X12212809Y-11261571D01*
X12222333Y-11242524D01*
X12231857Y-11233000D01*
X12250905Y-11223476D01*
X12289000Y-11223476D01*
X12308048Y-11233000D01*
X12317571Y-11242524D01*
X12327095Y-11261571D01*
X12327095Y-11271095D01*
X12317571Y-11290143D01*
X12308048Y-11299667D01*
X12289000Y-11309190D01*
X12250905Y-11309190D01*
X12231857Y-11318714D01*
X12222333Y-11328238D01*
X12212809Y-11347286D01*
X12212809Y-11385381D01*
X12222333Y-11404428D01*
X12231857Y-11413952D01*
X12250905Y-11423476D01*
X12289000Y-11423476D01*
X12308048Y-11413952D01*
X12317571Y-11404428D01*
X12327095Y-11385381D01*
X12327095Y-11347286D01*
X12317571Y-11328238D01*
X12308048Y-11318714D01*
X12289000Y-11309190D01*
X12450905Y-11223476D02*
X12469952Y-11223476D01*
X12489000Y-11233000D01*
X12498524Y-11242524D01*
X12508048Y-11261571D01*
X12517571Y-11299667D01*
X12517571Y-11347286D01*
X12508048Y-11385381D01*
X12498524Y-11404428D01*
X12489000Y-11413952D01*
X12469952Y-11423476D01*
X12450905Y-11423476D01*
X12431857Y-11413952D01*
X12422333Y-11404428D01*
X12412809Y-11385381D01*
X12403286Y-11347286D01*
X12403286Y-11299667D01*
X12412809Y-11261571D01*
X12422333Y-11242524D01*
X12431857Y-11233000D01*
X12450905Y-11223476D01*
X12641381Y-11223476D02*
X12660428Y-11223476D01*
X12679476Y-11233000D01*
X12689000Y-11242524D01*
X12698524Y-11261571D01*
X12708048Y-11299667D01*
X12708048Y-11347286D01*
X12698524Y-11385381D01*
X12689000Y-11404428D01*
X12679476Y-11413952D01*
X12660428Y-11423476D01*
X12641381Y-11423476D01*
X12622333Y-11413952D01*
X12612809Y-11404428D01*
X12603286Y-11385381D01*
X12593762Y-11347286D01*
X12593762Y-11299667D01*
X12603286Y-11261571D01*
X12612809Y-11242524D01*
X12622333Y-11233000D01*
X12641381Y-11223476D01*
X12793762Y-11423476D02*
X12793762Y-11290143D01*
X12793762Y-11309190D02*
X12803286Y-11299667D01*
X12822333Y-11290143D01*
X12850905Y-11290143D01*
X12869952Y-11299667D01*
X12879476Y-11318714D01*
X12879476Y-11423476D01*
X12879476Y-11318714D02*
X12889000Y-11299667D01*
X12908048Y-11290143D01*
X12936619Y-11290143D01*
X12955667Y-11299667D01*
X12965190Y-11318714D01*
X12965190Y-11423476D01*
X13060428Y-11423476D02*
X13060428Y-11290143D01*
X13060428Y-11309190D02*
X13069952Y-11299667D01*
X13089000Y-11290143D01*
X13117571Y-11290143D01*
X13136619Y-11299667D01*
X13146143Y-11318714D01*
X13146143Y-11423476D01*
X13146143Y-11318714D02*
X13155667Y-11299667D01*
X13174714Y-11290143D01*
X13203286Y-11290143D01*
X13222333Y-11299667D01*
X13231857Y-11318714D01*
X13231857Y-11423476D01*
X13622333Y-11213952D02*
X13450905Y-11471095D01*
X13879476Y-11223476D02*
X13898524Y-11223476D01*
X13917571Y-11233000D01*
X13927095Y-11242524D01*
X13936619Y-11261571D01*
X13946143Y-11299667D01*
X13946143Y-11347286D01*
X13936619Y-11385381D01*
X13927095Y-11404428D01*
X13917571Y-11413952D01*
X13898524Y-11423476D01*
X13879476Y-11423476D01*
X13860428Y-11413952D01*
X13850905Y-11404428D01*
X13841381Y-11385381D01*
X13831857Y-11347286D01*
X13831857Y-11299667D01*
X13841381Y-11261571D01*
X13850905Y-11242524D01*
X13860428Y-11233000D01*
X13879476Y-11223476D01*
X14031857Y-11404428D02*
X14041381Y-11413952D01*
X14031857Y-11423476D01*
X14022333Y-11413952D01*
X14031857Y-11404428D01*
X14031857Y-11423476D01*
X14165190Y-11223476D02*
X14184238Y-11223476D01*
X14203286Y-11233000D01*
X14212809Y-11242524D01*
X14222333Y-11261571D01*
X14231857Y-11299667D01*
X14231857Y-11347286D01*
X14222333Y-11385381D01*
X14212809Y-11404428D01*
X14203286Y-11413952D01*
X14184238Y-11423476D01*
X14165190Y-11423476D01*
X14146143Y-11413952D01*
X14136619Y-11404428D01*
X14127095Y-11385381D01*
X14117571Y-11347286D01*
X14117571Y-11299667D01*
X14127095Y-11261571D01*
X14136619Y-11242524D01*
X14146143Y-11233000D01*
X14165190Y-11223476D01*
X14298524Y-11223476D02*
X14422333Y-11223476D01*
X14355667Y-11299667D01*
X14384238Y-11299667D01*
X14403286Y-11309190D01*
X14412809Y-11318714D01*
X14422333Y-11337762D01*
X14422333Y-11385381D01*
X14412809Y-11404428D01*
X14403286Y-11413952D01*
X14384238Y-11423476D01*
X14327095Y-11423476D01*
X14308048Y-11413952D01*
X14298524Y-11404428D01*
X14612809Y-11423476D02*
X14498524Y-11423476D01*
X14555667Y-11423476D02*
X14555667Y-11223476D01*
X14536619Y-11252048D01*
X14517571Y-11271095D01*
X14498524Y-11280619D01*
X14793762Y-11223476D02*
X14698524Y-11223476D01*
X14689000Y-11318714D01*
X14698524Y-11309190D01*
X14717571Y-11299667D01*
X14765190Y-11299667D01*
X14784238Y-11309190D01*
X14793762Y-11318714D01*
X14803286Y-11337762D01*
X14803286Y-11385381D01*
X14793762Y-11404428D01*
X14784238Y-11413952D01*
X14765190Y-11423476D01*
X14717571Y-11423476D01*
X14698524Y-11413952D01*
X14689000Y-11404428D01*
X14879476Y-11223476D02*
X14879476Y-11261571D01*
X14955667Y-11223476D02*
X14955667Y-11261571D01*
X15250905Y-11499667D02*
X15241381Y-11490143D01*
X15222333Y-11461571D01*
X15212809Y-11442524D01*
X15203286Y-11413952D01*
X15193762Y-11366333D01*
X15193762Y-11328238D01*
X15203286Y-11280619D01*
X15212809Y-11252048D01*
X15222333Y-11233000D01*
X15241381Y-11204428D01*
X15250905Y-11194905D01*
X15317571Y-11242524D02*
X15327095Y-11233000D01*
X15346143Y-11223476D01*
X15393762Y-11223476D01*
X15412809Y-11233000D01*
X15422333Y-11242524D01*
X15431857Y-11261571D01*
X15431857Y-11280619D01*
X15422333Y-11309190D01*
X15308048Y-11423476D01*
X15431857Y-11423476D01*
X15669952Y-11423476D02*
X15669952Y-11223476D01*
X15755667Y-11423476D02*
X15755667Y-11318714D01*
X15746143Y-11299667D01*
X15727095Y-11290143D01*
X15698524Y-11290143D01*
X15679476Y-11299667D01*
X15669952Y-11309190D01*
X15879476Y-11423476D02*
X15860428Y-11413952D01*
X15850905Y-11404428D01*
X15841381Y-11385381D01*
X15841381Y-11328238D01*
X15850905Y-11309190D01*
X15860428Y-11299667D01*
X15879476Y-11290143D01*
X15908048Y-11290143D01*
X15927095Y-11299667D01*
X15936619Y-11309190D01*
X15946143Y-11328238D01*
X15946143Y-11385381D01*
X15936619Y-11404428D01*
X15927095Y-11413952D01*
X15908048Y-11423476D01*
X15879476Y-11423476D01*
X16060428Y-11423476D02*
X16041381Y-11413952D01*
X16031857Y-11394905D01*
X16031857Y-11223476D01*
X16212809Y-11413952D02*
X16193762Y-11423476D01*
X16155667Y-11423476D01*
X16136619Y-11413952D01*
X16127095Y-11394905D01*
X16127095Y-11318714D01*
X16136619Y-11299667D01*
X16155667Y-11290143D01*
X16193762Y-11290143D01*
X16212809Y-11299667D01*
X16222333Y-11318714D01*
X16222333Y-11337762D01*
X16127095Y-11356809D01*
X16298524Y-11413952D02*
X16317571Y-11423476D01*
X16355667Y-11423476D01*
X16374714Y-11413952D01*
X16384238Y-11394905D01*
X16384238Y-11385381D01*
X16374714Y-11366333D01*
X16355667Y-11356809D01*
X16327095Y-11356809D01*
X16308048Y-11347286D01*
X16298524Y-11328238D01*
X16298524Y-11318714D01*
X16308048Y-11299667D01*
X16327095Y-11290143D01*
X16355667Y-11290143D01*
X16374714Y-11299667D01*
X16450905Y-11499667D02*
X16460428Y-11490143D01*
X16479476Y-11461571D01*
X16489000Y-11442524D01*
X16498524Y-11413952D01*
X16508048Y-11366333D01*
X16508048Y-11328238D01*
X16498524Y-11280619D01*
X16489000Y-11252048D01*
X16479476Y-11233000D01*
X16460428Y-11204428D01*
X16450905Y-11194905D01*
D15*
X11666552Y-11627052D02*
X11666552Y-11566948D01*
X11606448Y-11566948D01*
X11606448Y-11627052D01*
X11666552Y-11627052D01*
D11*
X11974714Y-11487476D02*
X11993762Y-11487476D01*
X12012809Y-11497000D01*
X12022333Y-11506524D01*
X12031857Y-11525571D01*
X12041381Y-11563667D01*
X12041381Y-11611286D01*
X12031857Y-11649381D01*
X12022333Y-11668428D01*
X12012809Y-11677952D01*
X11993762Y-11687476D01*
X11974714Y-11687476D01*
X11955667Y-11677952D01*
X11946143Y-11668428D01*
X11936619Y-11649381D01*
X11927095Y-11611286D01*
X11927095Y-11563667D01*
X11936619Y-11525571D01*
X11946143Y-11506524D01*
X11955667Y-11497000D01*
X11974714Y-11487476D01*
X12127095Y-11668428D02*
X12136619Y-11677952D01*
X12127095Y-11687476D01*
X12117571Y-11677952D01*
X12127095Y-11668428D01*
X12127095Y-11687476D01*
X12250905Y-11573190D02*
X12231857Y-11563667D01*
X12222333Y-11554143D01*
X12212809Y-11535095D01*
X12212809Y-11525571D01*
X12222333Y-11506524D01*
X12231857Y-11497000D01*
X12250905Y-11487476D01*
X12289000Y-11487476D01*
X12308048Y-11497000D01*
X12317571Y-11506524D01*
X12327095Y-11525571D01*
X12327095Y-11535095D01*
X12317571Y-11554143D01*
X12308048Y-11563667D01*
X12289000Y-11573190D01*
X12250905Y-11573190D01*
X12231857Y-11582714D01*
X12222333Y-11592238D01*
X12212809Y-11611286D01*
X12212809Y-11649381D01*
X12222333Y-11668428D01*
X12231857Y-11677952D01*
X12250905Y-11687476D01*
X12289000Y-11687476D01*
X12308048Y-11677952D01*
X12317571Y-11668428D01*
X12327095Y-11649381D01*
X12327095Y-11611286D01*
X12317571Y-11592238D01*
X12308048Y-11582714D01*
X12289000Y-11573190D01*
X12508048Y-11487476D02*
X12412809Y-11487476D01*
X12403286Y-11582714D01*
X12412809Y-11573190D01*
X12431857Y-11563667D01*
X12479476Y-11563667D01*
X12498524Y-11573190D01*
X12508048Y-11582714D01*
X12517571Y-11601762D01*
X12517571Y-11649381D01*
X12508048Y-11668428D01*
X12498524Y-11677952D01*
X12479476Y-11687476D01*
X12431857Y-11687476D01*
X12412809Y-11677952D01*
X12403286Y-11668428D01*
X12641381Y-11487476D02*
X12660428Y-11487476D01*
X12679476Y-11497000D01*
X12689000Y-11506524D01*
X12698524Y-11525571D01*
X12708048Y-11563667D01*
X12708048Y-11611286D01*
X12698524Y-11649381D01*
X12689000Y-11668428D01*
X12679476Y-11677952D01*
X12660428Y-11687476D01*
X12641381Y-11687476D01*
X12622333Y-11677952D01*
X12612809Y-11668428D01*
X12603286Y-11649381D01*
X12593762Y-11611286D01*
X12593762Y-11563667D01*
X12603286Y-11525571D01*
X12612809Y-11506524D01*
X12622333Y-11497000D01*
X12641381Y-11487476D01*
X12793762Y-11687476D02*
X12793762Y-11554143D01*
X12793762Y-11573190D02*
X12803286Y-11563667D01*
X12822333Y-11554143D01*
X12850905Y-11554143D01*
X12869952Y-11563667D01*
X12879476Y-11582714D01*
X12879476Y-11687476D01*
X12879476Y-11582714D02*
X12889000Y-11563667D01*
X12908048Y-11554143D01*
X12936619Y-11554143D01*
X12955667Y-11563667D01*
X12965190Y-11582714D01*
X12965190Y-11687476D01*
X13060428Y-11687476D02*
X13060428Y-11554143D01*
X13060428Y-11573190D02*
X13069952Y-11563667D01*
X13089000Y-11554143D01*
X13117571Y-11554143D01*
X13136619Y-11563667D01*
X13146143Y-11582714D01*
X13146143Y-11687476D01*
X13146143Y-11582714D02*
X13155667Y-11563667D01*
X13174714Y-11554143D01*
X13203286Y-11554143D01*
X13222333Y-11563667D01*
X13231857Y-11582714D01*
X13231857Y-11687476D01*
X13622333Y-11477952D02*
X13450905Y-11735095D01*
X13879476Y-11487476D02*
X13898524Y-11487476D01*
X13917571Y-11497000D01*
X13927095Y-11506524D01*
X13936619Y-11525571D01*
X13946143Y-11563667D01*
X13946143Y-11611286D01*
X13936619Y-11649381D01*
X13927095Y-11668428D01*
X13917571Y-11677952D01*
X13898524Y-11687476D01*
X13879476Y-11687476D01*
X13860428Y-11677952D01*
X13850905Y-11668428D01*
X13841381Y-11649381D01*
X13831857Y-11611286D01*
X13831857Y-11563667D01*
X13841381Y-11525571D01*
X13850905Y-11506524D01*
X13860428Y-11497000D01*
X13879476Y-11487476D01*
X14031857Y-11668428D02*
X14041381Y-11677952D01*
X14031857Y-11687476D01*
X14022333Y-11677952D01*
X14031857Y-11668428D01*
X14031857Y-11687476D01*
X14165190Y-11487476D02*
X14184238Y-11487476D01*
X14203286Y-11497000D01*
X14212809Y-11506524D01*
X14222333Y-11525571D01*
X14231857Y-11563667D01*
X14231857Y-11611286D01*
X14222333Y-11649381D01*
X14212809Y-11668428D01*
X14203286Y-11677952D01*
X14184238Y-11687476D01*
X14165190Y-11687476D01*
X14146143Y-11677952D01*
X14136619Y-11668428D01*
X14127095Y-11649381D01*
X14117571Y-11611286D01*
X14117571Y-11563667D01*
X14127095Y-11525571D01*
X14136619Y-11506524D01*
X14146143Y-11497000D01*
X14165190Y-11487476D01*
X14298524Y-11487476D02*
X14422333Y-11487476D01*
X14355667Y-11563667D01*
X14384238Y-11563667D01*
X14403286Y-11573190D01*
X14412809Y-11582714D01*
X14422333Y-11601762D01*
X14422333Y-11649381D01*
X14412809Y-11668428D01*
X14403286Y-11677952D01*
X14384238Y-11687476D01*
X14327095Y-11687476D01*
X14308048Y-11677952D01*
X14298524Y-11668428D01*
X14489000Y-11487476D02*
X14612809Y-11487476D01*
X14546143Y-11563667D01*
X14574714Y-11563667D01*
X14593762Y-11573190D01*
X14603286Y-11582714D01*
X14612809Y-11601762D01*
X14612809Y-11649381D01*
X14603286Y-11668428D01*
X14593762Y-11677952D01*
X14574714Y-11687476D01*
X14517571Y-11687476D01*
X14498524Y-11677952D01*
X14489000Y-11668428D01*
X14793762Y-11487476D02*
X14698524Y-11487476D01*
X14689000Y-11582714D01*
X14698524Y-11573190D01*
X14717571Y-11563667D01*
X14765190Y-11563667D01*
X14784238Y-11573190D01*
X14793762Y-11582714D01*
X14803286Y-11601762D01*
X14803286Y-11649381D01*
X14793762Y-11668428D01*
X14784238Y-11677952D01*
X14765190Y-11687476D01*
X14717571Y-11687476D01*
X14698524Y-11677952D01*
X14689000Y-11668428D01*
X14879476Y-11487476D02*
X14879476Y-11525571D01*
X14955667Y-11487476D02*
X14955667Y-11525571D01*
X15250905Y-11763667D02*
X15241381Y-11754143D01*
X15222333Y-11725571D01*
X15212809Y-11706524D01*
X15203286Y-11677952D01*
X15193762Y-11630333D01*
X15193762Y-11592238D01*
X15203286Y-11544619D01*
X15212809Y-11516048D01*
X15222333Y-11497000D01*
X15241381Y-11468428D01*
X15250905Y-11458905D01*
X15431857Y-11687476D02*
X15317571Y-11687476D01*
X15374714Y-11687476D02*
X15374714Y-11487476D01*
X15355667Y-11516048D01*
X15336619Y-11535095D01*
X15317571Y-11544619D01*
X15508048Y-11506524D02*
X15517571Y-11497000D01*
X15536619Y-11487476D01*
X15584238Y-11487476D01*
X15603286Y-11497000D01*
X15612809Y-11506524D01*
X15622333Y-11525571D01*
X15622333Y-11544619D01*
X15612809Y-11573190D01*
X15498524Y-11687476D01*
X15622333Y-11687476D01*
X15860428Y-11687476D02*
X15860428Y-11487476D01*
X15946143Y-11687476D02*
X15946143Y-11582714D01*
X15936619Y-11563667D01*
X15917571Y-11554143D01*
X15889000Y-11554143D01*
X15869952Y-11563667D01*
X15860428Y-11573190D01*
X16069952Y-11687476D02*
X16050905Y-11677952D01*
X16041381Y-11668428D01*
X16031857Y-11649381D01*
X16031857Y-11592238D01*
X16041381Y-11573190D01*
X16050905Y-11563667D01*
X16069952Y-11554143D01*
X16098524Y-11554143D01*
X16117571Y-11563667D01*
X16127095Y-11573190D01*
X16136619Y-11592238D01*
X16136619Y-11649381D01*
X16127095Y-11668428D01*
X16117571Y-11677952D01*
X16098524Y-11687476D01*
X16069952Y-11687476D01*
X16250905Y-11687476D02*
X16231857Y-11677952D01*
X16222333Y-11658905D01*
X16222333Y-11487476D01*
X16403286Y-11677952D02*
X16384238Y-11687476D01*
X16346143Y-11687476D01*
X16327095Y-11677952D01*
X16317571Y-11658905D01*
X16317571Y-11582714D01*
X16327095Y-11563667D01*
X16346143Y-11554143D01*
X16384238Y-11554143D01*
X16403286Y-11563667D01*
X16412809Y-11582714D01*
X16412809Y-11601762D01*
X16317571Y-11620809D01*
X16489000Y-11677952D02*
X16508048Y-11687476D01*
X16546143Y-11687476D01*
X16565190Y-11677952D01*
X16574714Y-11658905D01*
X16574714Y-11649381D01*
X16565190Y-11630333D01*
X16546143Y-11620809D01*
X16517571Y-11620809D01*
X16498524Y-11611286D01*
X16489000Y-11592238D01*
X16489000Y-11582714D01*
X16498524Y-11563667D01*
X16517571Y-11554143D01*
X16546143Y-11554143D01*
X16565190Y-11563667D01*
X16641381Y-11763667D02*
X16650905Y-11754143D01*
X16669952Y-11725571D01*
X16679476Y-11706524D01*
X16689000Y-11677952D01*
X16698524Y-11630333D01*
X16698524Y-11592238D01*
X16689000Y-11544619D01*
X16679476Y-11516048D01*
X16669952Y-11497000D01*
X16650905Y-11468428D01*
X16641381Y-11458905D01*
D16*
X11634000Y-11906000D02*
X11679000Y-11861000D01*
X11634000Y-11816000D01*
X11589000Y-11861000D01*
X11634000Y-11906000D01*
D11*
X11974714Y-11751476D02*
X11993762Y-11751476D01*
X12012809Y-11761000D01*
X12022333Y-11770524D01*
X12031857Y-11789571D01*
X12041381Y-11827667D01*
X12041381Y-11875286D01*
X12031857Y-11913381D01*
X12022333Y-11932428D01*
X12012809Y-11941952D01*
X11993762Y-11951476D01*
X11974714Y-11951476D01*
X11955667Y-11941952D01*
X11946143Y-11932428D01*
X11936619Y-11913381D01*
X11927095Y-11875286D01*
X11927095Y-11827667D01*
X11936619Y-11789571D01*
X11946143Y-11770524D01*
X11955667Y-11761000D01*
X11974714Y-11751476D01*
X12127095Y-11932428D02*
X12136619Y-11941952D01*
X12127095Y-11951476D01*
X12117571Y-11941952D01*
X12127095Y-11932428D01*
X12127095Y-11951476D01*
X12231857Y-11951476D02*
X12269952Y-11951476D01*
X12289000Y-11941952D01*
X12298524Y-11932428D01*
X12317571Y-11903857D01*
X12327095Y-11865762D01*
X12327095Y-11789571D01*
X12317571Y-11770524D01*
X12308048Y-11761000D01*
X12289000Y-11751476D01*
X12250905Y-11751476D01*
X12231857Y-11761000D01*
X12222333Y-11770524D01*
X12212809Y-11789571D01*
X12212809Y-11837190D01*
X12222333Y-11856238D01*
X12231857Y-11865762D01*
X12250905Y-11875286D01*
X12289000Y-11875286D01*
X12308048Y-11865762D01*
X12317571Y-11856238D01*
X12327095Y-11837190D01*
X12450905Y-11751476D02*
X12469952Y-11751476D01*
X12489000Y-11761000D01*
X12498524Y-11770524D01*
X12508048Y-11789571D01*
X12517571Y-11827667D01*
X12517571Y-11875286D01*
X12508048Y-11913381D01*
X12498524Y-11932428D01*
X12489000Y-11941952D01*
X12469952Y-11951476D01*
X12450905Y-11951476D01*
X12431857Y-11941952D01*
X12422333Y-11932428D01*
X12412809Y-11913381D01*
X12403286Y-11875286D01*
X12403286Y-11827667D01*
X12412809Y-11789571D01*
X12422333Y-11770524D01*
X12431857Y-11761000D01*
X12450905Y-11751476D01*
X12641381Y-11751476D02*
X12660428Y-11751476D01*
X12679476Y-11761000D01*
X12689000Y-11770524D01*
X12698524Y-11789571D01*
X12708048Y-11827667D01*
X12708048Y-11875286D01*
X12698524Y-11913381D01*
X12689000Y-11932428D01*
X12679476Y-11941952D01*
X12660428Y-11951476D01*
X12641381Y-11951476D01*
X12622333Y-11941952D01*
X12612809Y-11932428D01*
X12603286Y-11913381D01*
X12593762Y-11875286D01*
X12593762Y-11827667D01*
X12603286Y-11789571D01*
X12612809Y-11770524D01*
X12622333Y-11761000D01*
X12641381Y-11751476D01*
X12793762Y-11951476D02*
X12793762Y-11818143D01*
X12793762Y-11837190D02*
X12803286Y-11827667D01*
X12822333Y-11818143D01*
X12850905Y-11818143D01*
X12869952Y-11827667D01*
X12879476Y-11846714D01*
X12879476Y-11951476D01*
X12879476Y-11846714D02*
X12889000Y-11827667D01*
X12908048Y-11818143D01*
X12936619Y-11818143D01*
X12955667Y-11827667D01*
X12965190Y-11846714D01*
X12965190Y-11951476D01*
X13060428Y-11951476D02*
X13060428Y-11818143D01*
X13060428Y-11837190D02*
X13069952Y-11827667D01*
X13089000Y-11818143D01*
X13117571Y-11818143D01*
X13136619Y-11827667D01*
X13146143Y-11846714D01*
X13146143Y-11951476D01*
X13146143Y-11846714D02*
X13155667Y-11827667D01*
X13174714Y-11818143D01*
X13203286Y-11818143D01*
X13222333Y-11827667D01*
X13231857Y-11846714D01*
X13231857Y-11951476D01*
X13622333Y-11741952D02*
X13450905Y-11999095D01*
X13879476Y-11751476D02*
X13898524Y-11751476D01*
X13917571Y-11761000D01*
X13927095Y-11770524D01*
X13936619Y-11789571D01*
X13946143Y-11827667D01*
X13946143Y-11875286D01*
X13936619Y-11913381D01*
X13927095Y-11932428D01*
X13917571Y-11941952D01*
X13898524Y-11951476D01*
X13879476Y-11951476D01*
X13860428Y-11941952D01*
X13850905Y-11932428D01*
X13841381Y-11913381D01*
X13831857Y-11875286D01*
X13831857Y-11827667D01*
X13841381Y-11789571D01*
X13850905Y-11770524D01*
X13860428Y-11761000D01*
X13879476Y-11751476D01*
X14031857Y-11932428D02*
X14041381Y-11941952D01*
X14031857Y-11951476D01*
X14022333Y-11941952D01*
X14031857Y-11932428D01*
X14031857Y-11951476D01*
X14165190Y-11751476D02*
X14184238Y-11751476D01*
X14203286Y-11761000D01*
X14212809Y-11770524D01*
X14222333Y-11789571D01*
X14231857Y-11827667D01*
X14231857Y-11875286D01*
X14222333Y-11913381D01*
X14212809Y-11932428D01*
X14203286Y-11941952D01*
X14184238Y-11951476D01*
X14165190Y-11951476D01*
X14146143Y-11941952D01*
X14136619Y-11932428D01*
X14127095Y-11913381D01*
X14117571Y-11875286D01*
X14117571Y-11827667D01*
X14127095Y-11789571D01*
X14136619Y-11770524D01*
X14146143Y-11761000D01*
X14165190Y-11751476D01*
X14298524Y-11751476D02*
X14422333Y-11751476D01*
X14355667Y-11827667D01*
X14384238Y-11827667D01*
X14403286Y-11837190D01*
X14412809Y-11846714D01*
X14422333Y-11865762D01*
X14422333Y-11913381D01*
X14412809Y-11932428D01*
X14403286Y-11941952D01*
X14384238Y-11951476D01*
X14327095Y-11951476D01*
X14308048Y-11941952D01*
X14298524Y-11932428D01*
X14603286Y-11751476D02*
X14508048Y-11751476D01*
X14498524Y-11846714D01*
X14508048Y-11837190D01*
X14527095Y-11827667D01*
X14574714Y-11827667D01*
X14593762Y-11837190D01*
X14603286Y-11846714D01*
X14612809Y-11865762D01*
X14612809Y-11913381D01*
X14603286Y-11932428D01*
X14593762Y-11941952D01*
X14574714Y-11951476D01*
X14527095Y-11951476D01*
X14508048Y-11941952D01*
X14498524Y-11932428D01*
X14784238Y-11818143D02*
X14784238Y-11951476D01*
X14736619Y-11741952D02*
X14689000Y-11884809D01*
X14812809Y-11884809D01*
X14879476Y-11751476D02*
X14879476Y-11789571D01*
X14955667Y-11751476D02*
X14955667Y-11789571D01*
X15250905Y-12027667D02*
X15241381Y-12018143D01*
X15222333Y-11989571D01*
X15212809Y-11970524D01*
X15203286Y-11941952D01*
X15193762Y-11894333D01*
X15193762Y-11856238D01*
X15203286Y-11808619D01*
X15212809Y-11780048D01*
X15222333Y-11761000D01*
X15241381Y-11732428D01*
X15250905Y-11722905D01*
X15422333Y-11751476D02*
X15327095Y-11751476D01*
X15317571Y-11846714D01*
X15327095Y-11837190D01*
X15346143Y-11827667D01*
X15393762Y-11827667D01*
X15412809Y-11837190D01*
X15422333Y-11846714D01*
X15431857Y-11865762D01*
X15431857Y-11913381D01*
X15422333Y-11932428D01*
X15412809Y-11941952D01*
X15393762Y-11951476D01*
X15346143Y-11951476D01*
X15327095Y-11941952D01*
X15317571Y-11932428D01*
X15669952Y-11951476D02*
X15669952Y-11751476D01*
X15755667Y-11951476D02*
X15755667Y-11846714D01*
X15746143Y-11827667D01*
X15727095Y-11818143D01*
X15698524Y-11818143D01*
X15679476Y-11827667D01*
X15669952Y-11837190D01*
X15879476Y-11951476D02*
X15860428Y-11941952D01*
X15850905Y-11932428D01*
X15841381Y-11913381D01*
X15841381Y-11856238D01*
X15850905Y-11837190D01*
X15860428Y-11827667D01*
X15879476Y-11818143D01*
X15908048Y-11818143D01*
X15927095Y-11827667D01*
X15936619Y-11837190D01*
X15946143Y-11856238D01*
X15946143Y-11913381D01*
X15936619Y-11932428D01*
X15927095Y-11941952D01*
X15908048Y-11951476D01*
X15879476Y-11951476D01*
X16060428Y-11951476D02*
X16041381Y-11941952D01*
X16031857Y-11922905D01*
X16031857Y-11751476D01*
X16212809Y-11941952D02*
X16193762Y-11951476D01*
X16155667Y-11951476D01*
X16136619Y-11941952D01*
X16127095Y-11922905D01*
X16127095Y-11846714D01*
X16136619Y-11827667D01*
X16155667Y-11818143D01*
X16193762Y-11818143D01*
X16212809Y-11827667D01*
X16222333Y-11846714D01*
X16222333Y-11865762D01*
X16127095Y-11884809D01*
X16298524Y-11941952D02*
X16317571Y-11951476D01*
X16355667Y-11951476D01*
X16374714Y-11941952D01*
X16384238Y-11922905D01*
X16384238Y-11913381D01*
X16374714Y-11894333D01*
X16355667Y-11884809D01*
X16327095Y-11884809D01*
X16308048Y-11875286D01*
X16298524Y-11856238D01*
X16298524Y-11846714D01*
X16308048Y-11827667D01*
X16327095Y-11818143D01*
X16355667Y-11818143D01*
X16374714Y-11827667D01*
X16450905Y-12027667D02*
X16460428Y-12018143D01*
X16479476Y-11989571D01*
X16489000Y-11970524D01*
X16498524Y-11941952D01*
X16508048Y-11894333D01*
X16508048Y-11856238D01*
X16498524Y-11808619D01*
X16489000Y-11780048D01*
X16479476Y-11761000D01*
X16460428Y-11732428D01*
X16450905Y-11722905D01*
D10*
X11579000Y-12075000D02*
X11679000Y-12175000D01*
X11679000Y-12075000D02*
X11579000Y-12175000D01*
X11679000Y-12125000D02*
G75*
G03*
X11679000Y-12125000I-50000J0D01*
G01*
D11*
X12041381Y-12215476D02*
X11927095Y-12215476D01*
X11984238Y-12215476D02*
X11984238Y-12015476D01*
X11965190Y-12044048D01*
X11946143Y-12063095D01*
X11927095Y-12072619D01*
X12127095Y-12196428D02*
X12136619Y-12205952D01*
X12127095Y-12215476D01*
X12117571Y-12205952D01*
X12127095Y-12196428D01*
X12127095Y-12215476D01*
X12260428Y-12015476D02*
X12279476Y-12015476D01*
X12298524Y-12025000D01*
X12308048Y-12034524D01*
X12317571Y-12053571D01*
X12327095Y-12091667D01*
X12327095Y-12139286D01*
X12317571Y-12177381D01*
X12308048Y-12196428D01*
X12298524Y-12205952D01*
X12279476Y-12215476D01*
X12260428Y-12215476D01*
X12241381Y-12205952D01*
X12231857Y-12196428D01*
X12222333Y-12177381D01*
X12212809Y-12139286D01*
X12212809Y-12091667D01*
X12222333Y-12053571D01*
X12231857Y-12034524D01*
X12241381Y-12025000D01*
X12260428Y-12015476D01*
X12450905Y-12015476D02*
X12469952Y-12015476D01*
X12489000Y-12025000D01*
X12498524Y-12034524D01*
X12508048Y-12053571D01*
X12517571Y-12091667D01*
X12517571Y-12139286D01*
X12508048Y-12177381D01*
X12498524Y-12196428D01*
X12489000Y-12205952D01*
X12469952Y-12215476D01*
X12450905Y-12215476D01*
X12431857Y-12205952D01*
X12422333Y-12196428D01*
X12412809Y-12177381D01*
X12403286Y-12139286D01*
X12403286Y-12091667D01*
X12412809Y-12053571D01*
X12422333Y-12034524D01*
X12431857Y-12025000D01*
X12450905Y-12015476D01*
X12641381Y-12015476D02*
X12660428Y-12015476D01*
X12679476Y-12025000D01*
X12689000Y-12034524D01*
X12698524Y-12053571D01*
X12708048Y-12091667D01*
X12708048Y-12139286D01*
X12698524Y-12177381D01*
X12689000Y-12196428D01*
X12679476Y-12205952D01*
X12660428Y-12215476D01*
X12641381Y-12215476D01*
X12622333Y-12205952D01*
X12612809Y-12196428D01*
X12603286Y-12177381D01*
X12593762Y-12139286D01*
X12593762Y-12091667D01*
X12603286Y-12053571D01*
X12612809Y-12034524D01*
X12622333Y-12025000D01*
X12641381Y-12015476D01*
X12793762Y-12215476D02*
X12793762Y-12082143D01*
X12793762Y-12101190D02*
X12803286Y-12091667D01*
X12822333Y-12082143D01*
X12850905Y-12082143D01*
X12869952Y-12091667D01*
X12879476Y-12110714D01*
X12879476Y-12215476D01*
X12879476Y-12110714D02*
X12889000Y-12091667D01*
X12908048Y-12082143D01*
X12936619Y-12082143D01*
X12955667Y-12091667D01*
X12965190Y-12110714D01*
X12965190Y-12215476D01*
X13060428Y-12215476D02*
X13060428Y-12082143D01*
X13060428Y-12101190D02*
X13069952Y-12091667D01*
X13089000Y-12082143D01*
X13117571Y-12082143D01*
X13136619Y-12091667D01*
X13146143Y-12110714D01*
X13146143Y-12215476D01*
X13146143Y-12110714D02*
X13155667Y-12091667D01*
X13174714Y-12082143D01*
X13203286Y-12082143D01*
X13222333Y-12091667D01*
X13231857Y-12110714D01*
X13231857Y-12215476D01*
X13622333Y-12005952D02*
X13450905Y-12263095D01*
X13879476Y-12015476D02*
X13898524Y-12015476D01*
X13917571Y-12025000D01*
X13927095Y-12034524D01*
X13936619Y-12053571D01*
X13946143Y-12091667D01*
X13946143Y-12139286D01*
X13936619Y-12177381D01*
X13927095Y-12196428D01*
X13917571Y-12205952D01*
X13898524Y-12215476D01*
X13879476Y-12215476D01*
X13860428Y-12205952D01*
X13850905Y-12196428D01*
X13841381Y-12177381D01*
X13831857Y-12139286D01*
X13831857Y-12091667D01*
X13841381Y-12053571D01*
X13850905Y-12034524D01*
X13860428Y-12025000D01*
X13879476Y-12015476D01*
X14031857Y-12196428D02*
X14041381Y-12205952D01*
X14031857Y-12215476D01*
X14022333Y-12205952D01*
X14031857Y-12196428D01*
X14031857Y-12215476D01*
X14165190Y-12015476D02*
X14184238Y-12015476D01*
X14203286Y-12025000D01*
X14212809Y-12034524D01*
X14222333Y-12053571D01*
X14231857Y-12091667D01*
X14231857Y-12139286D01*
X14222333Y-12177381D01*
X14212809Y-12196428D01*
X14203286Y-12205952D01*
X14184238Y-12215476D01*
X14165190Y-12215476D01*
X14146143Y-12205952D01*
X14136619Y-12196428D01*
X14127095Y-12177381D01*
X14117571Y-12139286D01*
X14117571Y-12091667D01*
X14127095Y-12053571D01*
X14136619Y-12034524D01*
X14146143Y-12025000D01*
X14165190Y-12015476D01*
X14298524Y-12015476D02*
X14422333Y-12015476D01*
X14355667Y-12091667D01*
X14384238Y-12091667D01*
X14403286Y-12101190D01*
X14412809Y-12110714D01*
X14422333Y-12129762D01*
X14422333Y-12177381D01*
X14412809Y-12196428D01*
X14403286Y-12205952D01*
X14384238Y-12215476D01*
X14327095Y-12215476D01*
X14308048Y-12205952D01*
X14298524Y-12196428D01*
X14517571Y-12215476D02*
X14555667Y-12215476D01*
X14574714Y-12205952D01*
X14584238Y-12196428D01*
X14603286Y-12167857D01*
X14612809Y-12129762D01*
X14612809Y-12053571D01*
X14603286Y-12034524D01*
X14593762Y-12025000D01*
X14574714Y-12015476D01*
X14536619Y-12015476D01*
X14517571Y-12025000D01*
X14508048Y-12034524D01*
X14498524Y-12053571D01*
X14498524Y-12101190D01*
X14508048Y-12120238D01*
X14517571Y-12129762D01*
X14536619Y-12139286D01*
X14574714Y-12139286D01*
X14593762Y-12129762D01*
X14603286Y-12120238D01*
X14612809Y-12101190D01*
X14784238Y-12082143D02*
X14784238Y-12215476D01*
X14736619Y-12005952D02*
X14689000Y-12148809D01*
X14812809Y-12148809D01*
X14879476Y-12015476D02*
X14879476Y-12053571D01*
X14955667Y-12015476D02*
X14955667Y-12053571D01*
X15250905Y-12291667D02*
X15241381Y-12282143D01*
X15222333Y-12253571D01*
X15212809Y-12234524D01*
X15203286Y-12205952D01*
X15193762Y-12158333D01*
X15193762Y-12120238D01*
X15203286Y-12072619D01*
X15212809Y-12044048D01*
X15222333Y-12025000D01*
X15241381Y-11996428D01*
X15250905Y-11986905D01*
X15422333Y-12015476D02*
X15327095Y-12015476D01*
X15317571Y-12110714D01*
X15327095Y-12101190D01*
X15346143Y-12091667D01*
X15393762Y-12091667D01*
X15412809Y-12101190D01*
X15422333Y-12110714D01*
X15431857Y-12129762D01*
X15431857Y-12177381D01*
X15422333Y-12196428D01*
X15412809Y-12205952D01*
X15393762Y-12215476D01*
X15346143Y-12215476D01*
X15327095Y-12205952D01*
X15317571Y-12196428D01*
X15498524Y-12015476D02*
X15622333Y-12015476D01*
X15555667Y-12091667D01*
X15584238Y-12091667D01*
X15603286Y-12101190D01*
X15612809Y-12110714D01*
X15622333Y-12129762D01*
X15622333Y-12177381D01*
X15612809Y-12196428D01*
X15603286Y-12205952D01*
X15584238Y-12215476D01*
X15527095Y-12215476D01*
X15508048Y-12205952D01*
X15498524Y-12196428D01*
X15860428Y-12215476D02*
X15860428Y-12015476D01*
X15946143Y-12215476D02*
X15946143Y-12110714D01*
X15936619Y-12091667D01*
X15917571Y-12082143D01*
X15889000Y-12082143D01*
X15869952Y-12091667D01*
X15860428Y-12101190D01*
X16069952Y-12215476D02*
X16050905Y-12205952D01*
X16041381Y-12196428D01*
X16031857Y-12177381D01*
X16031857Y-12120238D01*
X16041381Y-12101190D01*
X16050905Y-12091667D01*
X16069952Y-12082143D01*
X16098524Y-12082143D01*
X16117571Y-12091667D01*
X16127095Y-12101190D01*
X16136619Y-12120238D01*
X16136619Y-12177381D01*
X16127095Y-12196428D01*
X16117571Y-12205952D01*
X16098524Y-12215476D01*
X16069952Y-12215476D01*
X16250905Y-12215476D02*
X16231857Y-12205952D01*
X16222333Y-12186905D01*
X16222333Y-12015476D01*
X16403286Y-12205952D02*
X16384238Y-12215476D01*
X16346143Y-12215476D01*
X16327095Y-12205952D01*
X16317571Y-12186905D01*
X16317571Y-12110714D01*
X16327095Y-12091667D01*
X16346143Y-12082143D01*
X16384238Y-12082143D01*
X16403286Y-12091667D01*
X16412809Y-12110714D01*
X16412809Y-12129762D01*
X16317571Y-12148809D01*
X16489000Y-12205952D02*
X16508048Y-12215476D01*
X16546143Y-12215476D01*
X16565190Y-12205952D01*
X16574714Y-12186905D01*
X16574714Y-12177381D01*
X16565190Y-12158333D01*
X16546143Y-12148809D01*
X16517571Y-12148809D01*
X16498524Y-12139286D01*
X16489000Y-12120238D01*
X16489000Y-12110714D01*
X16498524Y-12091667D01*
X16517571Y-12082143D01*
X16546143Y-12082143D01*
X16565190Y-12091667D01*
X16641381Y-12291667D02*
X16650905Y-12282143D01*
X16669952Y-12253571D01*
X16679476Y-12234524D01*
X16689000Y-12205952D01*
X16698524Y-12158333D01*
X16698524Y-12120238D01*
X16689000Y-12072619D01*
X16679476Y-12044048D01*
X16669952Y-12025000D01*
X16650905Y-11996428D01*
X16641381Y-11986905D01*
D17*
X11527000Y-12313000D02*
X11679000Y-12465000D01*
X11679000Y-12313000D02*
X11527000Y-12465000D01*
X11603000Y-12313000D02*
X11603000Y-12465000D01*
X11527000Y-12389000D02*
X11679000Y-12389000D01*
D11*
X12041381Y-12479476D02*
X11927095Y-12479476D01*
X11984238Y-12479476D02*
X11984238Y-12279476D01*
X11965190Y-12308048D01*
X11946143Y-12327095D01*
X11927095Y-12336619D01*
X12127095Y-12460428D02*
X12136619Y-12469952D01*
X12127095Y-12479476D01*
X12117571Y-12469952D01*
X12127095Y-12460428D01*
X12127095Y-12479476D01*
X12317571Y-12279476D02*
X12222333Y-12279476D01*
X12212809Y-12374714D01*
X12222333Y-12365190D01*
X12241381Y-12355667D01*
X12289000Y-12355667D01*
X12308048Y-12365190D01*
X12317571Y-12374714D01*
X12327095Y-12393762D01*
X12327095Y-12441381D01*
X12317571Y-12460428D01*
X12308048Y-12469952D01*
X12289000Y-12479476D01*
X12241381Y-12479476D01*
X12222333Y-12469952D01*
X12212809Y-12460428D01*
X12403286Y-12298524D02*
X12412809Y-12289000D01*
X12431857Y-12279476D01*
X12479476Y-12279476D01*
X12498524Y-12289000D01*
X12508048Y-12298524D01*
X12517571Y-12317571D01*
X12517571Y-12336619D01*
X12508048Y-12365190D01*
X12393762Y-12479476D01*
X12517571Y-12479476D01*
X12641381Y-12279476D02*
X12660428Y-12279476D01*
X12679476Y-12289000D01*
X12689000Y-12298524D01*
X12698524Y-12317571D01*
X12708048Y-12355667D01*
X12708048Y-12403286D01*
X12698524Y-12441381D01*
X12689000Y-12460428D01*
X12679476Y-12469952D01*
X12660428Y-12479476D01*
X12641381Y-12479476D01*
X12622333Y-12469952D01*
X12612809Y-12460428D01*
X12603286Y-12441381D01*
X12593762Y-12403286D01*
X12593762Y-12355667D01*
X12603286Y-12317571D01*
X12612809Y-12298524D01*
X12622333Y-12289000D01*
X12641381Y-12279476D01*
X12793762Y-12479476D02*
X12793762Y-12346143D01*
X12793762Y-12365190D02*
X12803286Y-12355667D01*
X12822333Y-12346143D01*
X12850905Y-12346143D01*
X12869952Y-12355667D01*
X12879476Y-12374714D01*
X12879476Y-12479476D01*
X12879476Y-12374714D02*
X12889000Y-12355667D01*
X12908048Y-12346143D01*
X12936619Y-12346143D01*
X12955667Y-12355667D01*
X12965190Y-12374714D01*
X12965190Y-12479476D01*
X13060428Y-12479476D02*
X13060428Y-12346143D01*
X13060428Y-12365190D02*
X13069952Y-12355667D01*
X13089000Y-12346143D01*
X13117571Y-12346143D01*
X13136619Y-12355667D01*
X13146143Y-12374714D01*
X13146143Y-12479476D01*
X13146143Y-12374714D02*
X13155667Y-12355667D01*
X13174714Y-12346143D01*
X13203286Y-12346143D01*
X13222333Y-12355667D01*
X13231857Y-12374714D01*
X13231857Y-12479476D01*
X13622333Y-12269952D02*
X13450905Y-12527095D01*
X13879476Y-12279476D02*
X13898524Y-12279476D01*
X13917571Y-12289000D01*
X13927095Y-12298524D01*
X13936619Y-12317571D01*
X13946143Y-12355667D01*
X13946143Y-12403286D01*
X13936619Y-12441381D01*
X13927095Y-12460428D01*
X13917571Y-12469952D01*
X13898524Y-12479476D01*
X13879476Y-12479476D01*
X13860428Y-12469952D01*
X13850905Y-12460428D01*
X13841381Y-12441381D01*
X13831857Y-12403286D01*
X13831857Y-12355667D01*
X13841381Y-12317571D01*
X13850905Y-12298524D01*
X13860428Y-12289000D01*
X13879476Y-12279476D01*
X14031857Y-12460428D02*
X14041381Y-12469952D01*
X14031857Y-12479476D01*
X14022333Y-12469952D01*
X14031857Y-12460428D01*
X14031857Y-12479476D01*
X14165190Y-12279476D02*
X14184238Y-12279476D01*
X14203286Y-12289000D01*
X14212809Y-12298524D01*
X14222333Y-12317571D01*
X14231857Y-12355667D01*
X14231857Y-12403286D01*
X14222333Y-12441381D01*
X14212809Y-12460428D01*
X14203286Y-12469952D01*
X14184238Y-12479476D01*
X14165190Y-12479476D01*
X14146143Y-12469952D01*
X14136619Y-12460428D01*
X14127095Y-12441381D01*
X14117571Y-12403286D01*
X14117571Y-12355667D01*
X14127095Y-12317571D01*
X14136619Y-12298524D01*
X14146143Y-12289000D01*
X14165190Y-12279476D01*
X14412809Y-12279476D02*
X14317571Y-12279476D01*
X14308048Y-12374714D01*
X14317571Y-12365190D01*
X14336619Y-12355667D01*
X14384238Y-12355667D01*
X14403286Y-12365190D01*
X14412809Y-12374714D01*
X14422333Y-12393762D01*
X14422333Y-12441381D01*
X14412809Y-12460428D01*
X14403286Y-12469952D01*
X14384238Y-12479476D01*
X14336619Y-12479476D01*
X14317571Y-12469952D01*
X14308048Y-12460428D01*
X14517571Y-12479476D02*
X14555667Y-12479476D01*
X14574714Y-12469952D01*
X14584238Y-12460428D01*
X14603286Y-12431857D01*
X14612809Y-12393762D01*
X14612809Y-12317571D01*
X14603286Y-12298524D01*
X14593762Y-12289000D01*
X14574714Y-12279476D01*
X14536619Y-12279476D01*
X14517571Y-12289000D01*
X14508048Y-12298524D01*
X14498524Y-12317571D01*
X14498524Y-12365190D01*
X14508048Y-12384238D01*
X14517571Y-12393762D01*
X14536619Y-12403286D01*
X14574714Y-12403286D01*
X14593762Y-12393762D01*
X14603286Y-12384238D01*
X14612809Y-12365190D01*
X14727095Y-12365190D02*
X14708048Y-12355667D01*
X14698524Y-12346143D01*
X14689000Y-12327095D01*
X14689000Y-12317571D01*
X14698524Y-12298524D01*
X14708048Y-12289000D01*
X14727095Y-12279476D01*
X14765190Y-12279476D01*
X14784238Y-12289000D01*
X14793762Y-12298524D01*
X14803286Y-12317571D01*
X14803286Y-12327095D01*
X14793762Y-12346143D01*
X14784238Y-12355667D01*
X14765190Y-12365190D01*
X14727095Y-12365190D01*
X14708048Y-12374714D01*
X14698524Y-12384238D01*
X14689000Y-12403286D01*
X14689000Y-12441381D01*
X14698524Y-12460428D01*
X14708048Y-12469952D01*
X14727095Y-12479476D01*
X14765190Y-12479476D01*
X14784238Y-12469952D01*
X14793762Y-12460428D01*
X14803286Y-12441381D01*
X14803286Y-12403286D01*
X14793762Y-12384238D01*
X14784238Y-12374714D01*
X14765190Y-12365190D01*
X14879476Y-12279476D02*
X14879476Y-12317571D01*
X14955667Y-12279476D02*
X14955667Y-12317571D01*
X15250905Y-12555667D02*
X15241381Y-12546143D01*
X15222333Y-12517571D01*
X15212809Y-12498524D01*
X15203286Y-12469952D01*
X15193762Y-12422333D01*
X15193762Y-12384238D01*
X15203286Y-12336619D01*
X15212809Y-12308048D01*
X15222333Y-12289000D01*
X15241381Y-12260428D01*
X15250905Y-12250905D01*
X15317571Y-12298524D02*
X15327095Y-12289000D01*
X15346143Y-12279476D01*
X15393762Y-12279476D01*
X15412809Y-12289000D01*
X15422333Y-12298524D01*
X15431857Y-12317571D01*
X15431857Y-12336619D01*
X15422333Y-12365190D01*
X15308048Y-12479476D01*
X15431857Y-12479476D01*
X15669952Y-12479476D02*
X15669952Y-12279476D01*
X15755667Y-12479476D02*
X15755667Y-12374714D01*
X15746143Y-12355667D01*
X15727095Y-12346143D01*
X15698524Y-12346143D01*
X15679476Y-12355667D01*
X15669952Y-12365190D01*
X15879476Y-12479476D02*
X15860428Y-12469952D01*
X15850905Y-12460428D01*
X15841381Y-12441381D01*
X15841381Y-12384238D01*
X15850905Y-12365190D01*
X15860428Y-12355667D01*
X15879476Y-12346143D01*
X15908048Y-12346143D01*
X15927095Y-12355667D01*
X15936619Y-12365190D01*
X15946143Y-12384238D01*
X15946143Y-12441381D01*
X15936619Y-12460428D01*
X15927095Y-12469952D01*
X15908048Y-12479476D01*
X15879476Y-12479476D01*
X16060428Y-12479476D02*
X16041381Y-12469952D01*
X16031857Y-12450905D01*
X16031857Y-12279476D01*
X16212809Y-12469952D02*
X16193762Y-12479476D01*
X16155667Y-12479476D01*
X16136619Y-12469952D01*
X16127095Y-12450905D01*
X16127095Y-12374714D01*
X16136619Y-12355667D01*
X16155667Y-12346143D01*
X16193762Y-12346143D01*
X16212809Y-12355667D01*
X16222333Y-12374714D01*
X16222333Y-12393762D01*
X16127095Y-12412809D01*
X16298524Y-12469952D02*
X16317571Y-12479476D01*
X16355667Y-12479476D01*
X16374714Y-12469952D01*
X16384238Y-12450905D01*
X16384238Y-12441381D01*
X16374714Y-12422333D01*
X16355667Y-12412809D01*
X16327095Y-12412809D01*
X16308048Y-12403286D01*
X16298524Y-12384238D01*
X16298524Y-12374714D01*
X16308048Y-12355667D01*
X16327095Y-12346143D01*
X16355667Y-12346143D01*
X16374714Y-12355667D01*
X16450905Y-12555667D02*
X16460428Y-12546143D01*
X16479476Y-12517571D01*
X16489000Y-12498524D01*
X16498524Y-12469952D01*
X16508048Y-12422333D01*
X16508048Y-12384238D01*
X16498524Y-12336619D01*
X16489000Y-12308048D01*
X16479476Y-12289000D01*
X16460428Y-12260428D01*
X16450905Y-12250905D01*
M02*
